solid OpenSCAD_Model
  facet normal -1 0 0
    outer loop
      vertex 0 0 0
      vertex 0 38.1 4
      vertex 0 38.1 0
    endloop
  endfacet
  facet normal -1 -0 0
    outer loop
      vertex 0 38.1 4
      vertex 0 0 0
      vertex 0 0 4
    endloop
  endfacet
  facet normal 0 0 1
    outer loop
      vertex 85.725 38.1 4
      vertex 84.9313 19.05 4
      vertex 85.725 0 4
    endloop
  endfacet
  facet normal 0 0 1
    outer loop
      vertex 85.725 38.1 4
      vertex 84.4767 20.8944 4
      vertex 84.9313 19.05 4
    endloop
  endfacet
  facet normal 0 0 1
    outer loop
      vertex 85.725 38.1 4
      vertex 83.217 22.3162 4
      vertex 84.4767 20.8944 4
    endloop
  endfacet
  facet normal 0 0 1
    outer loop
      vertex 85.725 38.1 4
      vertex 81.4409 22.9898 4
      vertex 83.217 22.3162 4
    endloop
  endfacet
  facet normal -0 0 1
    outer loop
      vertex 73.6875 28.575 4
      vertex 81.4409 22.9898 4
      vertex 85.725 38.1 4
    endloop
  endfacet
  facet normal 0 0 1
    outer loop
      vertex 81.4409 22.9898 4
      vertex 73.6875 28.575 4
      vertex 79.5552 22.7608 4
    endloop
  endfacet
  facet normal -0 0 1
    outer loop
      vertex 73.0285 26.984 4
      vertex 79.5552 22.7608 4
      vertex 73.6875 28.575 4
    endloop
  endfacet
  facet normal 0 0 1
    outer loop
      vertex 77.9918 21.6818 4
      vertex 73.0285 26.984 4
      vertex 77.1091 19.9998 4
    endloop
  endfacet
  facet normal 0 0 1
    outer loop
      vertex 79.5552 22.7608 4
      vertex 73.0285 26.984 4
      vertex 77.9918 21.6818 4
    endloop
  endfacet
  facet normal 0 0 1
    outer loop
      vertex 85.725 38.1 4
      vertex 73.0285 30.166 4
      vertex 73.6875 28.575 4
    endloop
  endfacet
  facet normal 0 0 1
    outer loop
      vertex 85.725 38.1 4
      vertex 71.4375 30.825 4
      vertex 73.0285 30.166 4
    endloop
  endfacet
  facet normal 0 0 1
    outer loop
      vertex 52.3875 30.825 4
      vertex 71.4375 30.825 4
      vertex 85.725 38.1 4
    endloop
  endfacet
  facet normal 0 0 1
    outer loop
      vertex 71.4375 26.325 4
      vertex 65.4267 20.8944 4
      vertex 65.8812 19.05 4
    endloop
  endfacet
  facet normal 0 0 1
    outer loop
      vertex 54.6375 28.575 4
      vertex 69.1875 28.575 4
      vertex 69.8465 30.166 4
    endloop
  endfacet
  facet normal 0 0 1
    outer loop
      vertex 69.8465 26.984 4
      vertex 64.167 22.3162 4
      vertex 65.4267 20.8944 4
    endloop
  endfacet
  facet normal 0 0 1
    outer loop
      vertex 69.1875 28.575 4
      vertex 62.3909 22.9898 4
      vertex 64.167 22.3162 4
    endloop
  endfacet
  facet normal 0 0 1
    outer loop
      vertex 69.1875 28.575 4
      vertex 54.6375 28.575 4
      vertex 62.3909 22.9898 4
    endloop
  endfacet
  facet normal 0 0 1
    outer loop
      vertex 62.3909 22.9898 4
      vertex 54.6375 28.575 4
      vertex 60.5052 22.7608 4
    endloop
  endfacet
  facet normal 0 0 1
    outer loop
      vertex 58.9418 21.6818 4
      vertex 53.9785 26.984 4
      vertex 58.0591 19.9998 4
    endloop
  endfacet
  facet normal 0 0 1
    outer loop
      vertex 60.5052 22.7608 4
      vertex 53.9785 26.984 4
      vertex 58.9418 21.6818 4
    endloop
  endfacet
  facet normal -0 0 1
    outer loop
      vertex 53.9785 26.984 4
      vertex 60.5052 22.7608 4
      vertex 54.6375 28.575 4
    endloop
  endfacet
  facet normal 0 0 1
    outer loop
      vertex 71.4375 30.825 4
      vertex 52.3875 30.825 4
      vertex 69.8465 30.166 4
    endloop
  endfacet
  facet normal 0 0 1
    outer loop
      vertex 69.8465 30.166 4
      vertex 53.9785 30.166 4
      vertex 54.6375 28.575 4
    endloop
  endfacet
  facet normal 0 0 1
    outer loop
      vertex 69.8465 30.166 4
      vertex 52.3875 30.825 4
      vertex 53.9785 30.166 4
    endloop
  endfacet
  facet normal 0 0 1
    outer loop
      vertex 52.3875 26.325 4
      vertex 46.3767 20.8944 4
      vertex 46.8312 19.05 4
    endloop
  endfacet
  facet normal 0 0 1
    outer loop
      vertex 35.5875 28.575 4
      vertex 50.1375 28.575 4
      vertex 50.7965 30.166 4
    endloop
  endfacet
  facet normal 0 0 1
    outer loop
      vertex 50.7965 26.984 4
      vertex 45.117 22.3162 4
      vertex 46.3767 20.8944 4
    endloop
  endfacet
  facet normal 0 0 1
    outer loop
      vertex 50.1375 28.575 4
      vertex 43.3409 22.9898 4
      vertex 45.117 22.3162 4
    endloop
  endfacet
  facet normal 0 0 1
    outer loop
      vertex 50.1375 28.575 4
      vertex 35.5875 28.575 4
      vertex 43.3409 22.9898 4
    endloop
  endfacet
  facet normal 0 0 1
    outer loop
      vertex 43.3409 22.9898 4
      vertex 35.5875 28.575 4
      vertex 41.4552 22.7608 4
    endloop
  endfacet
  facet normal 0 0 1
    outer loop
      vertex 39.8918 21.6818 4
      vertex 34.9285 26.984 4
      vertex 39.0091 19.9998 4
    endloop
  endfacet
  facet normal 0 0 1
    outer loop
      vertex 41.4552 22.7608 4
      vertex 34.9285 26.984 4
      vertex 39.8918 21.6818 4
    endloop
  endfacet
  facet normal -0 0 1
    outer loop
      vertex 34.9285 26.984 4
      vertex 41.4552 22.7608 4
      vertex 35.5875 28.575 4
    endloop
  endfacet
  facet normal 0 0 1
    outer loop
      vertex 34.9285 30.166 4
      vertex 50.7965 30.166 4
      vertex 52.3875 30.825 4
    endloop
  endfacet
  facet normal 0 0 1
    outer loop
      vertex 33.3375 30.825 4
      vertex 52.3875 30.825 4
      vertex 85.725 38.1 4
    endloop
  endfacet
  facet normal 0 0 1
    outer loop
      vertex 50.7965 30.166 4
      vertex 34.9285 30.166 4
      vertex 35.5875 28.575 4
    endloop
  endfacet
  facet normal 0 0 1
    outer loop
      vertex 52.3875 30.825 4
      vertex 33.3375 30.825 4
      vertex 34.9285 30.166 4
    endloop
  endfacet
  facet normal 0 0 1
    outer loop
      vertex 33.3375 26.325 4
      vertex 27.3267 20.8944 4
      vertex 27.7812 19.05 4
    endloop
  endfacet
  facet normal 0 0 1
    outer loop
      vertex 16.5375 28.575 4
      vertex 31.0875 28.575 4
      vertex 31.7465 30.166 4
    endloop
  endfacet
  facet normal 0 0 1
    outer loop
      vertex 31.7465 26.984 4
      vertex 26.067 22.3162 4
      vertex 27.3267 20.8944 4
    endloop
  endfacet
  facet normal 0 0 1
    outer loop
      vertex 31.0875 28.575 4
      vertex 24.2909 22.9898 4
      vertex 26.067 22.3162 4
    endloop
  endfacet
  facet normal 0 0 1
    outer loop
      vertex 31.0875 28.575 4
      vertex 16.5375 28.575 4
      vertex 24.2909 22.9898 4
    endloop
  endfacet
  facet normal 0 0 1
    outer loop
      vertex 24.2909 22.9898 4
      vertex 16.5375 28.575 4
      vertex 22.4052 22.7608 4
    endloop
  endfacet
  facet normal 0 0 1
    outer loop
      vertex 20.8418 21.6818 4
      vertex 15.8785 26.984 4
      vertex 19.9591 19.9998 4
    endloop
  endfacet
  facet normal 0 0 1
    outer loop
      vertex 22.4052 22.7608 4
      vertex 15.8785 26.984 4
      vertex 20.8418 21.6818 4
    endloop
  endfacet
  facet normal -0 0 1
    outer loop
      vertex 15.8785 26.984 4
      vertex 22.4052 22.7608 4
      vertex 16.5375 28.575 4
    endloop
  endfacet
  facet normal 0 0 1
    outer loop
      vertex 15.8785 30.166 4
      vertex 31.7465 30.166 4
      vertex 33.3375 30.825 4
    endloop
  endfacet
  facet normal -0 0 1
    outer loop
      vertex 0 38.1 4
      vertex 33.3375 30.825 4
      vertex 85.725 38.1 4
    endloop
  endfacet
  facet normal 0 0 1
    outer loop
      vertex 31.7465 30.166 4
      vertex 15.8785 30.166 4
      vertex 16.5375 28.575 4
    endloop
  endfacet
  facet normal 0 0 1
    outer loop
      vertex 33.3375 30.825 4
      vertex 14.2875 30.825 4
      vertex 15.8785 30.166 4
    endloop
  endfacet
  facet normal 0 0 1
    outer loop
      vertex 14.2875 26.325 4
      vertex 8.27665 20.8944 4
      vertex 8.73125 19.05 4
    endloop
  endfacet
  facet normal 0 0 1
    outer loop
      vertex 0 38.1 4
      vertex 12.0375 28.575 4
      vertex 12.6965 30.166 4
    endloop
  endfacet
  facet normal 0 0 1
    outer loop
      vertex 12.6965 26.984 4
      vertex 7.01701 22.3162 4
      vertex 8.27665 20.8944 4
    endloop
  endfacet
  facet normal 0 0 1
    outer loop
      vertex 12.0375 28.575 4
      vertex 5.24088 22.9898 4
      vertex 7.01701 22.3162 4
    endloop
  endfacet
  facet normal 0 0 1
    outer loop
      vertex 12.0375 28.575 4
      vertex 0 38.1 4
      vertex 5.24088 22.9898 4
    endloop
  endfacet
  facet normal 0 0 1
    outer loop
      vertex 5.24088 22.9898 4
      vertex 0 38.1 4
      vertex 3.35516 22.7608 4
    endloop
  endfacet
  facet normal 0 0 1
    outer loop
      vertex 0.909074 19.9998 4
      vertex 0 38.1 4
      vertex 0.909074 18.1002 4
    endloop
  endfacet
  facet normal 0 0 1
    outer loop
      vertex 1.79185 21.6818 4
      vertex 0 38.1 4
      vertex 0.909074 19.9998 4
    endloop
  endfacet
  facet normal 0 0 1
    outer loop
      vertex 3.35516 22.7608 4
      vertex 0 38.1 4
      vertex 1.79185 21.6818 4
    endloop
  endfacet
  facet normal 0 0 1
    outer loop
      vertex 14.2875 30.825 4
      vertex 0 38.1 4
      vertex 12.6965 30.166 4
    endloop
  endfacet
  facet normal 0 0 1
    outer loop
      vertex 33.3375 30.825 4
      vertex 0 38.1 4
      vertex 14.2875 30.825 4
    endloop
  endfacet
  facet normal -0 0 1
    outer loop
      vertex 84.4767 17.2056 4
      vertex 85.725 0 4
      vertex 84.9313 19.05 4
    endloop
  endfacet
  facet normal -0 0 1
    outer loop
      vertex 83.217 15.7838 4
      vertex 85.725 0 4
      vertex 84.4767 17.2056 4
    endloop
  endfacet
  facet normal -0 0 1
    outer loop
      vertex 81.4409 15.1102 4
      vertex 85.725 0 4
      vertex 83.217 15.7838 4
    endloop
  endfacet
  facet normal 0 0 1
    outer loop
      vertex 79.5552 15.3392 4
      vertex 85.725 0 4
      vertex 81.4409 15.1102 4
    endloop
  endfacet
  facet normal -0 0 1
    outer loop
      vertex 64.167 15.7838 4
      vertex 79.5552 15.3392 4
      vertex 77.9918 16.4182 4
    endloop
  endfacet
  facet normal -0 0 1
    outer loop
      vertex 65.4267 17.2056 4
      vertex 77.9918 16.4182 4
      vertex 77.1091 18.1002 4
    endloop
  endfacet
  facet normal -0 0 1
    outer loop
      vertex 71.4375 26.325 4
      vertex 77.1091 19.9998 4
      vertex 73.0285 26.984 4
    endloop
  endfacet
  facet normal 0 0 1
    outer loop
      vertex 65.8812 19.05 4
      vertex 77.1091 19.9998 4
      vertex 71.4375 26.325 4
    endloop
  endfacet
  facet normal 0 0 1
    outer loop
      vertex 77.1091 19.9998 4
      vertex 65.8812 19.05 4
      vertex 77.1091 18.1002 4
    endloop
  endfacet
  facet normal 0 0 1
    outer loop
      vertex 65.4267 20.8944 4
      vertex 71.4375 26.325 4
      vertex 69.8465 26.984 4
    endloop
  endfacet
  facet normal 0 0 1
    outer loop
      vertex 64.167 22.3162 4
      vertex 69.8465 26.984 4
      vertex 69.1875 28.575 4
    endloop
  endfacet
  facet normal 0 0 1
    outer loop
      vertex 77.1091 18.1002 4
      vertex 65.8812 19.05 4
      vertex 65.4267 17.2056 4
    endloop
  endfacet
  facet normal 0 0 1
    outer loop
      vertex 77.9918 16.4182 4
      vertex 65.4267 17.2056 4
      vertex 64.167 15.7838 4
    endloop
  endfacet
  facet normal 0 0 1
    outer loop
      vertex 79.5552 15.3392 4
      vertex 64.167 15.7838 4
      vertex 85.725 0 4
    endloop
  endfacet
  facet normal -0 0 1
    outer loop
      vertex 62.3909 15.1102 4
      vertex 85.725 0 4
      vertex 64.167 15.7838 4
    endloop
  endfacet
  facet normal 0 0 1
    outer loop
      vertex 60.5052 15.3392 4
      vertex 85.725 0 4
      vertex 62.3909 15.1102 4
    endloop
  endfacet
  facet normal -0 0 1
    outer loop
      vertex 52.3875 26.325 4
      vertex 58.0591 19.9998 4
      vertex 53.9785 26.984 4
    endloop
  endfacet
  facet normal 0 0 1
    outer loop
      vertex 46.8312 19.05 4
      vertex 58.0591 19.9998 4
      vertex 52.3875 26.325 4
    endloop
  endfacet
  facet normal 0 0 1
    outer loop
      vertex 58.0591 19.9998 4
      vertex 46.8312 19.05 4
      vertex 58.0591 18.1002 4
    endloop
  endfacet
  facet normal 0 0 1
    outer loop
      vertex 46.3767 20.8944 4
      vertex 52.3875 26.325 4
      vertex 50.7965 26.984 4
    endloop
  endfacet
  facet normal 0 0 1
    outer loop
      vertex 45.117 22.3162 4
      vertex 50.7965 26.984 4
      vertex 50.1375 28.575 4
    endloop
  endfacet
  facet normal 0 0 1
    outer loop
      vertex 46.3767 17.2056 4
      vertex 58.0591 18.1002 4
      vertex 46.8312 19.05 4
    endloop
  endfacet
  facet normal 0 0 1
    outer loop
      vertex 58.0591 18.1002 4
      vertex 46.3767 17.2056 4
      vertex 58.9418 16.4182 4
    endloop
  endfacet
  facet normal 0 0 1
    outer loop
      vertex 45.117 15.7838 4
      vertex 58.9418 16.4182 4
      vertex 46.3767 17.2056 4
    endloop
  endfacet
  facet normal 0 0 1
    outer loop
      vertex 58.9418 16.4182 4
      vertex 45.117 15.7838 4
      vertex 60.5052 15.3392 4
    endloop
  endfacet
  facet normal 0 0 1
    outer loop
      vertex 43.3409 15.1102 4
      vertex 60.5052 15.3392 4
      vertex 45.117 15.7838 4
    endloop
  endfacet
  facet normal 0 0 1
    outer loop
      vertex 60.5052 15.3392 4
      vertex 43.3409 15.1102 4
      vertex 85.725 0 4
    endloop
  endfacet
  facet normal 0 0 1
    outer loop
      vertex 0 0 4
      vertex 43.3409 15.1102 4
      vertex 41.4552 15.3392 4
    endloop
  endfacet
  facet normal -0 0 1
    outer loop
      vertex 33.3375 26.325 4
      vertex 39.0091 19.9998 4
      vertex 34.9285 26.984 4
    endloop
  endfacet
  facet normal 0 0 1
    outer loop
      vertex 27.7812 19.05 4
      vertex 39.0091 19.9998 4
      vertex 33.3375 26.325 4
    endloop
  endfacet
  facet normal 0 0 1
    outer loop
      vertex 39.0091 19.9998 4
      vertex 27.7812 19.05 4
      vertex 39.0091 18.1002 4
    endloop
  endfacet
  facet normal 0 0 1
    outer loop
      vertex 27.3267 20.8944 4
      vertex 33.3375 26.325 4
      vertex 31.7465 26.984 4
    endloop
  endfacet
  facet normal 0 0 1
    outer loop
      vertex 26.067 22.3162 4
      vertex 31.7465 26.984 4
      vertex 31.0875 28.575 4
    endloop
  endfacet
  facet normal 0 0 1
    outer loop
      vertex 27.3267 17.2056 4
      vertex 39.0091 18.1002 4
      vertex 27.7812 19.05 4
    endloop
  endfacet
  facet normal 0 0 1
    outer loop
      vertex 39.0091 18.1002 4
      vertex 27.3267 17.2056 4
      vertex 39.8918 16.4182 4
    endloop
  endfacet
  facet normal 0 0 1
    outer loop
      vertex 26.067 15.7838 4
      vertex 39.8918 16.4182 4
      vertex 27.3267 17.2056 4
    endloop
  endfacet
  facet normal 0 0 1
    outer loop
      vertex 39.8918 16.4182 4
      vertex 26.067 15.7838 4
      vertex 41.4552 15.3392 4
    endloop
  endfacet
  facet normal 0 0 1
    outer loop
      vertex 24.2909 15.1102 4
      vertex 41.4552 15.3392 4
      vertex 26.067 15.7838 4
    endloop
  endfacet
  facet normal 0 0 1
    outer loop
      vertex 0 0 4
      vertex 41.4552 15.3392 4
      vertex 24.2909 15.1102 4
    endloop
  endfacet
  facet normal 0 0 1
    outer loop
      vertex 0 0 4
      vertex 24.2909 15.1102 4
      vertex 22.4052 15.3392 4
    endloop
  endfacet
  facet normal -0 0 1
    outer loop
      vertex 14.2875 26.325 4
      vertex 19.9591 19.9998 4
      vertex 15.8785 26.984 4
    endloop
  endfacet
  facet normal 0 0 1
    outer loop
      vertex 8.73125 19.05 4
      vertex 19.9591 19.9998 4
      vertex 14.2875 26.325 4
    endloop
  endfacet
  facet normal 0 0 1
    outer loop
      vertex 19.9591 19.9998 4
      vertex 8.73125 19.05 4
      vertex 19.9591 18.1002 4
    endloop
  endfacet
  facet normal 0 0 1
    outer loop
      vertex 8.27665 20.8944 4
      vertex 14.2875 26.325 4
      vertex 12.6965 26.984 4
    endloop
  endfacet
  facet normal 0 0 1
    outer loop
      vertex 7.01701 22.3162 4
      vertex 12.6965 26.984 4
      vertex 12.0375 28.575 4
    endloop
  endfacet
  facet normal 0 0 1
    outer loop
      vertex 8.27665 17.2056 4
      vertex 19.9591 18.1002 4
      vertex 8.73125 19.05 4
    endloop
  endfacet
  facet normal 0 0 1
    outer loop
      vertex 19.9591 18.1002 4
      vertex 8.27665 17.2056 4
      vertex 20.8418 16.4182 4
    endloop
  endfacet
  facet normal 0 0 1
    outer loop
      vertex 7.01701 15.7838 4
      vertex 20.8418 16.4182 4
      vertex 8.27665 17.2056 4
    endloop
  endfacet
  facet normal 0 0 1
    outer loop
      vertex 20.8418 16.4182 4
      vertex 7.01701 15.7838 4
      vertex 22.4052 15.3392 4
    endloop
  endfacet
  facet normal 0 0 1
    outer loop
      vertex 22.4052 15.3392 4
      vertex 7.01701 15.7838 4
      vertex 0 0 4
    endloop
  endfacet
  facet normal 0 0 1
    outer loop
      vertex 0 0 4
      vertex 7.01701 15.7838 4
      vertex 5.24088 15.1102 4
    endloop
  endfacet
  facet normal 0 0 1
    outer loop
      vertex 0 0 4
      vertex 5.24088 15.1102 4
      vertex 3.35516 15.3392 4
    endloop
  endfacet
  facet normal 0 0 1
    outer loop
      vertex 43.3409 15.1102 4
      vertex 0 0 4
      vertex 85.725 0 4
    endloop
  endfacet
  facet normal 0 0 1
    outer loop
      vertex 1.79185 16.4182 4
      vertex 0 0 4
      vertex 3.35516 15.3392 4
    endloop
  endfacet
  facet normal 0 0 1
    outer loop
      vertex 0.909074 18.1002 4
      vertex 0 0 4
      vertex 1.79185 16.4182 4
    endloop
  endfacet
  facet normal 0 0 1
    outer loop
      vertex 0 0 4
      vertex 0.909074 18.1002 4
      vertex 0 38.1 4
    endloop
  endfacet
  facet normal 1 -0 0
    outer loop
      vertex 85.725 0 4
      vertex 85.725 38.1 0
      vertex 85.725 38.1 4
    endloop
  endfacet
  facet normal 1 0 0
    outer loop
      vertex 85.725 38.1 0
      vertex 85.725 0 4
      vertex 85.725 0 0
    endloop
  endfacet
  facet normal 0 1 -0
    outer loop
      vertex 85.725 38.1 0
      vertex 0 38.1 4
      vertex 85.725 38.1 4
    endloop
  endfacet
  facet normal 0 1 0
    outer loop
      vertex 0 38.1 4
      vertex 85.725 38.1 0
      vertex 0 38.1 0
    endloop
  endfacet
  facet normal 0 0 -1
    outer loop
      vertex 85.725 0 0
      vertex 84.9313 19.05 0
      vertex 85.725 38.1 0
    endloop
  endfacet
  facet normal 0 0 -1
    outer loop
      vertex 85.725 0 0
      vertex 84.4767 17.2056 0
      vertex 84.9313 19.05 0
    endloop
  endfacet
  facet normal 0 0 -1
    outer loop
      vertex 85.725 0 0
      vertex 83.217 15.7838 0
      vertex 84.4767 17.2056 0
    endloop
  endfacet
  facet normal 0 0 -1
    outer loop
      vertex 85.725 0 0
      vertex 81.4409 15.1102 0
      vertex 83.217 15.7838 0
    endloop
  endfacet
  facet normal 0 0 -1
    outer loop
      vertex 85.725 0 0
      vertex 79.5552 15.3392 0
      vertex 81.4409 15.1102 0
    endloop
  endfacet
  facet normal 0 0 -1
    outer loop
      vertex 64.167 15.7838 0
      vertex 79.5552 15.3392 0
      vertex 85.725 0 0
    endloop
  endfacet
  facet normal 0 0 -1
    outer loop
      vertex 79.5552 15.3392 0
      vertex 64.167 15.7838 0
      vertex 77.9918 16.4182 0
    endloop
  endfacet
  facet normal 0 0 -1
    outer loop
      vertex 65.8812 19.05 0
      vertex 77.1091 19.9998 0
      vertex 77.1091 18.1002 0
    endloop
  endfacet
  facet normal 0 0 -1
    outer loop
      vertex 77.1091 19.9998 0
      vertex 73.0285 26.984 0
      vertex 73.6875 28.575 0
    endloop
  endfacet
  facet normal 0 0 -1
    outer loop
      vertex 77.1091 19.9998 0
      vertex 71.4375 26.325 0
      vertex 73.0285 26.984 0
    endloop
  endfacet
  facet normal 0 -0 -1
    outer loop
      vertex 65.4267 17.2056 0
      vertex 77.9918 16.4182 0
      vertex 64.167 15.7838 0
    endloop
  endfacet
  facet normal 0 -0 -1
    outer loop
      vertex 65.8812 19.05 0
      vertex 77.1091 18.1002 0
      vertex 65.4267 17.2056 0
    endloop
  endfacet
  facet normal -0 0 -1
    outer loop
      vertex 71.4375 26.325 0
      vertex 65.4267 20.8944 0
      vertex 69.8465 26.984 0
    endloop
  endfacet
  facet normal 0 0 -1
    outer loop
      vertex 65.4267 20.8944 0
      vertex 71.4375 26.325 0
      vertex 65.8812 19.05 0
    endloop
  endfacet
  facet normal -0 0 -1
    outer loop
      vertex 77.1091 19.9998 0
      vertex 65.8812 19.05 0
      vertex 71.4375 26.325 0
    endloop
  endfacet
  facet normal 0 0 -1
    outer loop
      vertex 77.9918 16.4182 0
      vertex 65.4267 17.2056 0
      vertex 77.1091 18.1002 0
    endloop
  endfacet
  facet normal 0 0 -1
    outer loop
      vertex 85.725 0 0
      vertex 62.3909 15.1102 0
      vertex 64.167 15.7838 0
    endloop
  endfacet
  facet normal 0 0 -1
    outer loop
      vertex 85.725 0 0
      vertex 60.5052 15.3392 0
      vertex 62.3909 15.1102 0
    endloop
  endfacet
  facet normal 0 0 -1
    outer loop
      vertex 46.8312 19.05 0
      vertex 58.0591 19.9998 0
      vertex 58.0591 18.1002 0
    endloop
  endfacet
  facet normal 0 0 -1
    outer loop
      vertex 58.0591 19.9998 0
      vertex 53.9785 26.984 0
      vertex 54.6375 28.575 0
    endloop
  endfacet
  facet normal 0 0 -1
    outer loop
      vertex 58.0591 19.9998 0
      vertex 52.3875 26.325 0
      vertex 53.9785 26.984 0
    endloop
  endfacet
  facet normal 0 0 -1
    outer loop
      vertex 46.3767 17.2056 0
      vertex 58.0591 18.1002 0
      vertex 58.9418 16.4182 0
    endloop
  endfacet
  facet normal -0 0 -1
    outer loop
      vertex 58.0591 19.9998 0
      vertex 46.8312 19.05 0
      vertex 52.3875 26.325 0
    endloop
  endfacet
  facet normal -0 0 -1
    outer loop
      vertex 52.3875 26.325 0
      vertex 46.3767 20.8944 0
      vertex 50.7965 26.984 0
    endloop
  endfacet
  facet normal 0 0 -1
    outer loop
      vertex 46.3767 20.8944 0
      vertex 52.3875 26.325 0
      vertex 46.8312 19.05 0
    endloop
  endfacet
  facet normal 0 0 -1
    outer loop
      vertex 45.117 15.7838 0
      vertex 58.9418 16.4182 0
      vertex 60.5052 15.3392 0
    endloop
  endfacet
  facet normal 0 0 -1
    outer loop
      vertex 43.3409 15.1102 0
      vertex 60.5052 15.3392 0
      vertex 85.725 0 0
    endloop
  endfacet
  facet normal -0 0 -1
    outer loop
      vertex 58.0591 18.1002 0
      vertex 46.3767 17.2056 0
      vertex 46.8312 19.05 0
    endloop
  endfacet
  facet normal -0 0 -1
    outer loop
      vertex 58.9418 16.4182 0
      vertex 45.117 15.7838 0
      vertex 46.3767 17.2056 0
    endloop
  endfacet
  facet normal -0 0 -1
    outer loop
      vertex 60.5052 15.3392 0
      vertex 43.3409 15.1102 0
      vertex 45.117 15.7838 0
    endloop
  endfacet
  facet normal 0 0 -1
    outer loop
      vertex 0 0 0
      vertex 43.3409 15.1102 0
      vertex 85.725 0 0
    endloop
  endfacet
  facet normal 0 0 -1
    outer loop
      vertex 27.7812 19.05 0
      vertex 39.0091 19.9998 0
      vertex 39.0091 18.1002 0
    endloop
  endfacet
  facet normal 0 0 -1
    outer loop
      vertex 39.0091 19.9998 0
      vertex 34.9285 26.984 0
      vertex 35.5875 28.575 0
    endloop
  endfacet
  facet normal 0 0 -1
    outer loop
      vertex 39.0091 19.9998 0
      vertex 33.3375 26.325 0
      vertex 34.9285 26.984 0
    endloop
  endfacet
  facet normal 0 0 -1
    outer loop
      vertex 27.3267 17.2056 0
      vertex 39.0091 18.1002 0
      vertex 39.8918 16.4182 0
    endloop
  endfacet
  facet normal -0 0 -1
    outer loop
      vertex 39.0091 19.9998 0
      vertex 27.7812 19.05 0
      vertex 33.3375 26.325 0
    endloop
  endfacet
  facet normal -0 0 -1
    outer loop
      vertex 33.3375 26.325 0
      vertex 27.3267 20.8944 0
      vertex 31.7465 26.984 0
    endloop
  endfacet
  facet normal 0 0 -1
    outer loop
      vertex 27.3267 20.8944 0
      vertex 33.3375 26.325 0
      vertex 27.7812 19.05 0
    endloop
  endfacet
  facet normal 0 0 -1
    outer loop
      vertex 26.067 15.7838 0
      vertex 39.8918 16.4182 0
      vertex 41.4552 15.3392 0
    endloop
  endfacet
  facet normal -0 0 -1
    outer loop
      vertex 43.3409 15.1102 0
      vertex 0 0 0
      vertex 41.4552 15.3392 0
    endloop
  endfacet
  facet normal -0 0 -1
    outer loop
      vertex 39.0091 18.1002 0
      vertex 27.3267 17.2056 0
      vertex 27.7812 19.05 0
    endloop
  endfacet
  facet normal -0 0 -1
    outer loop
      vertex 39.8918 16.4182 0
      vertex 26.067 15.7838 0
      vertex 27.3267 17.2056 0
    endloop
  endfacet
  facet normal -0 0 -1
    outer loop
      vertex 41.4552 15.3392 0
      vertex 24.2909 15.1102 0
      vertex 26.067 15.7838 0
    endloop
  endfacet
  facet normal 0 0 -1
    outer loop
      vertex 41.4552 15.3392 0
      vertex 0 0 0
      vertex 24.2909 15.1102 0
    endloop
  endfacet
  facet normal 0 0 -1
    outer loop
      vertex 8.73125 19.05 0
      vertex 19.9591 19.9998 0
      vertex 19.9591 18.1002 0
    endloop
  endfacet
  facet normal 0 0 -1
    outer loop
      vertex 19.9591 19.9998 0
      vertex 15.8785 26.984 0
      vertex 16.5375 28.575 0
    endloop
  endfacet
  facet normal 0 0 -1
    outer loop
      vertex 19.9591 19.9998 0
      vertex 14.2875 26.325 0
      vertex 15.8785 26.984 0
    endloop
  endfacet
  facet normal 0 0 -1
    outer loop
      vertex 8.27665 17.2056 0
      vertex 19.9591 18.1002 0
      vertex 20.8418 16.4182 0
    endloop
  endfacet
  facet normal -0 0 -1
    outer loop
      vertex 19.9591 19.9998 0
      vertex 8.73125 19.05 0
      vertex 14.2875 26.325 0
    endloop
  endfacet
  facet normal -0 0 -1
    outer loop
      vertex 14.2875 26.325 0
      vertex 8.27665 20.8944 0
      vertex 12.6965 26.984 0
    endloop
  endfacet
  facet normal 0 0 -1
    outer loop
      vertex 8.27665 20.8944 0
      vertex 14.2875 26.325 0
      vertex 8.73125 19.05 0
    endloop
  endfacet
  facet normal 0 0 -1
    outer loop
      vertex 7.01701 15.7838 0
      vertex 20.8418 16.4182 0
      vertex 22.4052 15.3392 0
    endloop
  endfacet
  facet normal -0 0 -1
    outer loop
      vertex 19.9591 18.1002 0
      vertex 8.27665 17.2056 0
      vertex 8.73125 19.05 0
    endloop
  endfacet
  facet normal -0 0 -1
    outer loop
      vertex 24.2909 15.1102 0
      vertex 0 0 0
      vertex 22.4052 15.3392 0
    endloop
  endfacet
  facet normal 0 -0 -1
    outer loop
      vertex 7.01701 15.7838 0
      vertex 22.4052 15.3392 0
      vertex 0 0 0
    endloop
  endfacet
  facet normal -0 0 -1
    outer loop
      vertex 20.8418 16.4182 0
      vertex 7.01701 15.7838 0
      vertex 8.27665 17.2056 0
    endloop
  endfacet
  facet normal 0 0 -1
    outer loop
      vertex 7.01701 15.7838 0
      vertex 0 0 0
      vertex 5.24088 15.1102 0
    endloop
  endfacet
  facet normal -0 0 -1
    outer loop
      vertex 0.909074 18.1002 0
      vertex 0 0 0
      vertex 0.909074 19.9998 0
    endloop
  endfacet
  facet normal -0 0 -1
    outer loop
      vertex 1.79185 16.4182 0
      vertex 0 0 0
      vertex 0.909074 18.1002 0
    endloop
  endfacet
  facet normal -0 0 -1
    outer loop
      vertex 3.35516 15.3392 0
      vertex 0 0 0
      vertex 1.79185 16.4182 0
    endloop
  endfacet
  facet normal -0 0 -1
    outer loop
      vertex 5.24088 15.1102 0
      vertex 0 0 0
      vertex 3.35516 15.3392 0
    endloop
  endfacet
  facet normal 0 0 -1
    outer loop
      vertex 84.4767 20.8944 0
      vertex 85.725 38.1 0
      vertex 84.9313 19.05 0
    endloop
  endfacet
  facet normal 0 0 -1
    outer loop
      vertex 83.217 22.3162 0
      vertex 85.725 38.1 0
      vertex 84.4767 20.8944 0
    endloop
  endfacet
  facet normal 0 0 -1
    outer loop
      vertex 81.4409 22.9898 0
      vertex 85.725 38.1 0
      vertex 83.217 22.3162 0
    endloop
  endfacet
  facet normal 0 0 -1
    outer loop
      vertex 73.6875 28.575 0
      vertex 81.4409 22.9898 0
      vertex 79.5552 22.7608 0
    endloop
  endfacet
  facet normal 0 0 -1
    outer loop
      vertex 73.6875 28.575 0
      vertex 79.5552 22.7608 0
      vertex 77.9918 21.6818 0
    endloop
  endfacet
  facet normal 0 0 -1
    outer loop
      vertex 73.6875 28.575 0
      vertex 77.9918 21.6818 0
      vertex 77.1091 19.9998 0
    endloop
  endfacet
  facet normal 0 0 -1
    outer loop
      vertex 81.4409 22.9898 0
      vertex 73.6875 28.575 0
      vertex 85.725 38.1 0
    endloop
  endfacet
  facet normal 0 0 -1
    outer loop
      vertex 73.0285 30.166 0
      vertex 85.725 38.1 0
      vertex 73.6875 28.575 0
    endloop
  endfacet
  facet normal 0 0 -1
    outer loop
      vertex 71.4375 30.825 0
      vertex 85.725 38.1 0
      vertex 73.0285 30.166 0
    endloop
  endfacet
  facet normal 0 0 -1
    outer loop
      vertex 52.3875 30.825 0
      vertex 71.4375 30.825 0
      vertex 69.8465 30.166 0
    endloop
  endfacet
  facet normal 0 0 -1
    outer loop
      vertex 64.167 22.3162 0
      vertex 69.8465 26.984 0
      vertex 65.4267 20.8944 0
    endloop
  endfacet
  facet normal -0 0 -1
    outer loop
      vertex 69.8465 26.984 0
      vertex 64.167 22.3162 0
      vertex 69.1875 28.575 0
    endloop
  endfacet
  facet normal 0 0 -1
    outer loop
      vertex 62.3909 22.9898 0
      vertex 69.1875 28.575 0
      vertex 64.167 22.3162 0
    endloop
  endfacet
  facet normal 0 0 -1
    outer loop
      vertex 54.6375 28.575 0
      vertex 69.1875 28.575 0
      vertex 62.3909 22.9898 0
    endloop
  endfacet
  facet normal 0 0 -1
    outer loop
      vertex 54.6375 28.575 0
      vertex 62.3909 22.9898 0
      vertex 60.5052 22.7608 0
    endloop
  endfacet
  facet normal 0 0 -1
    outer loop
      vertex 54.6375 28.575 0
      vertex 60.5052 22.7608 0
      vertex 58.9418 21.6818 0
    endloop
  endfacet
  facet normal 0 0 -1
    outer loop
      vertex 54.6375 28.575 0
      vertex 58.9418 21.6818 0
      vertex 58.0591 19.9998 0
    endloop
  endfacet
  facet normal 0 0 -1
    outer loop
      vertex 69.1875 28.575 0
      vertex 54.6375 28.575 0
      vertex 69.8465 30.166 0
    endloop
  endfacet
  facet normal 0 0 -1
    outer loop
      vertex 53.9785 30.166 0
      vertex 69.8465 30.166 0
      vertex 54.6375 28.575 0
    endloop
  endfacet
  facet normal 0 0 -1
    outer loop
      vertex 52.3875 30.825 0
      vertex 69.8465 30.166 0
      vertex 53.9785 30.166 0
    endloop
  endfacet
  facet normal 0 0 -1
    outer loop
      vertex 71.4375 30.825 0
      vertex 52.3875 30.825 0
      vertex 85.725 38.1 0
    endloop
  endfacet
  facet normal 0 0 -1
    outer loop
      vertex 45.117 22.3162 0
      vertex 50.7965 26.984 0
      vertex 46.3767 20.8944 0
    endloop
  endfacet
  facet normal -0 0 -1
    outer loop
      vertex 50.7965 26.984 0
      vertex 45.117 22.3162 0
      vertex 50.1375 28.575 0
    endloop
  endfacet
  facet normal 0 0 -1
    outer loop
      vertex 43.3409 22.9898 0
      vertex 50.1375 28.575 0
      vertex 45.117 22.3162 0
    endloop
  endfacet
  facet normal 0 0 -1
    outer loop
      vertex 35.5875 28.575 0
      vertex 50.1375 28.575 0
      vertex 43.3409 22.9898 0
    endloop
  endfacet
  facet normal 0 0 -1
    outer loop
      vertex 35.5875 28.575 0
      vertex 43.3409 22.9898 0
      vertex 41.4552 22.7608 0
    endloop
  endfacet
  facet normal 0 0 -1
    outer loop
      vertex 35.5875 28.575 0
      vertex 41.4552 22.7608 0
      vertex 39.8918 21.6818 0
    endloop
  endfacet
  facet normal 0 0 -1
    outer loop
      vertex 35.5875 28.575 0
      vertex 39.8918 21.6818 0
      vertex 39.0091 19.9998 0
    endloop
  endfacet
  facet normal 0 0 -1
    outer loop
      vertex 50.1375 28.575 0
      vertex 35.5875 28.575 0
      vertex 50.7965 30.166 0
    endloop
  endfacet
  facet normal 0 0 -1
    outer loop
      vertex 34.9285 30.166 0
      vertex 50.7965 30.166 0
      vertex 35.5875 28.575 0
    endloop
  endfacet
  facet normal 0 0 -1
    outer loop
      vertex 50.7965 30.166 0
      vertex 34.9285 30.166 0
      vertex 52.3875 30.825 0
    endloop
  endfacet
  facet normal 0 0 -1
    outer loop
      vertex 33.3375 30.825 0
      vertex 52.3875 30.825 0
      vertex 34.9285 30.166 0
    endloop
  endfacet
  facet normal 0 0 -1
    outer loop
      vertex 52.3875 30.825 0
      vertex 33.3375 30.825 0
      vertex 85.725 38.1 0
    endloop
  endfacet
  facet normal 0 0 -1
    outer loop
      vertex 26.067 22.3162 0
      vertex 31.7465 26.984 0
      vertex 27.3267 20.8944 0
    endloop
  endfacet
  facet normal -0 0 -1
    outer loop
      vertex 31.7465 26.984 0
      vertex 26.067 22.3162 0
      vertex 31.0875 28.575 0
    endloop
  endfacet
  facet normal 0 0 -1
    outer loop
      vertex 24.2909 22.9898 0
      vertex 31.0875 28.575 0
      vertex 26.067 22.3162 0
    endloop
  endfacet
  facet normal 0 0 -1
    outer loop
      vertex 16.5375 28.575 0
      vertex 31.0875 28.575 0
      vertex 24.2909 22.9898 0
    endloop
  endfacet
  facet normal 0 0 -1
    outer loop
      vertex 16.5375 28.575 0
      vertex 24.2909 22.9898 0
      vertex 22.4052 22.7608 0
    endloop
  endfacet
  facet normal 0 0 -1
    outer loop
      vertex 16.5375 28.575 0
      vertex 22.4052 22.7608 0
      vertex 20.8418 21.6818 0
    endloop
  endfacet
  facet normal 0 0 -1
    outer loop
      vertex 16.5375 28.575 0
      vertex 20.8418 21.6818 0
      vertex 19.9591 19.9998 0
    endloop
  endfacet
  facet normal 0 0 -1
    outer loop
      vertex 31.0875 28.575 0
      vertex 16.5375 28.575 0
      vertex 31.7465 30.166 0
    endloop
  endfacet
  facet normal 0 0 -1
    outer loop
      vertex 15.8785 30.166 0
      vertex 31.7465 30.166 0
      vertex 16.5375 28.575 0
    endloop
  endfacet
  facet normal 0 0 -1
    outer loop
      vertex 31.7465 30.166 0
      vertex 15.8785 30.166 0
      vertex 33.3375 30.825 0
    endloop
  endfacet
  facet normal 0 0 -1
    outer loop
      vertex 14.2875 30.825 0
      vertex 33.3375 30.825 0
      vertex 15.8785 30.166 0
    endloop
  endfacet
  facet normal 0 0 -1
    outer loop
      vertex 0 38.1 0
      vertex 33.3375 30.825 0
      vertex 14.2875 30.825 0
    endloop
  endfacet
  facet normal 0 0 -1
    outer loop
      vertex 7.01701 22.3162 0
      vertex 12.6965 26.984 0
      vertex 8.27665 20.8944 0
    endloop
  endfacet
  facet normal -0 0 -1
    outer loop
      vertex 12.6965 26.984 0
      vertex 7.01701 22.3162 0
      vertex 12.0375 28.575 0
    endloop
  endfacet
  facet normal 0 0 -1
    outer loop
      vertex 5.24088 22.9898 0
      vertex 12.0375 28.575 0
      vertex 7.01701 22.3162 0
    endloop
  endfacet
  facet normal 0 0 -1
    outer loop
      vertex 0 38.1 0
      vertex 12.0375 28.575 0
      vertex 5.24088 22.9898 0
    endloop
  endfacet
  facet normal 0 0 -1
    outer loop
      vertex 0 38.1 0
      vertex 5.24088 22.9898 0
      vertex 3.35516 22.7608 0
    endloop
  endfacet
  facet normal 0 0 -1
    outer loop
      vertex 0 38.1 0
      vertex 3.35516 22.7608 0
      vertex 1.79185 21.6818 0
    endloop
  endfacet
  facet normal 0 0 -1
    outer loop
      vertex 33.3375 30.825 0
      vertex 0 38.1 0
      vertex 85.725 38.1 0
    endloop
  endfacet
  facet normal 0 0 -1
    outer loop
      vertex 12.6965 30.166 0
      vertex 0 38.1 0
      vertex 14.2875 30.825 0
    endloop
  endfacet
  facet normal 0 0 -1
    outer loop
      vertex 12.0375 28.575 0
      vertex 0 38.1 0
      vertex 12.6965 30.166 0
    endloop
  endfacet
  facet normal 0 0 -1
    outer loop
      vertex 0.909074 19.9998 0
      vertex 0 38.1 0
      vertex 1.79185 21.6818 0
    endloop
  endfacet
  facet normal 0 0 -1
    outer loop
      vertex 0 38.1 0
      vertex 0.909074 19.9998 0
      vertex 0 0 0
    endloop
  endfacet
  facet normal 0 -1 0
    outer loop
      vertex 0 0 0
      vertex 85.725 0 4
      vertex 0 0 4
    endloop
  endfacet
  facet normal 0 -1 -0
    outer loop
      vertex 85.725 0 4
      vertex 0 0 0
      vertex 85.725 0 0
    endloop
  endfacet
  facet normal -0.970955 -0.239264 0
    outer loop
      vertex 46.8312 19.05 0
      vertex 46.3767 20.8944 4
      vertex 46.3767 20.8944 0
    endloop
  endfacet
  facet normal -0.970955 -0.239264 0
    outer loop
      vertex 46.3767 20.8944 4
      vertex 46.8312 19.05 0
      vertex 46.8312 19.05 4
    endloop
  endfacet
  facet normal 1 -0 0
    outer loop
      vertex 39.0091 18.1002 4
      vertex 39.0091 19.9998 0
      vertex 39.0091 19.9998 4
    endloop
  endfacet
  facet normal 1 0 0
    outer loop
      vertex 39.0091 19.9998 0
      vertex 39.0091 18.1002 4
      vertex 39.0091 18.1002 0
    endloop
  endfacet
  facet normal 0.120555 -0.992707 0
    outer loop
      vertex 41.4552 22.7608 0
      vertex 43.3409 22.9898 4
      vertex 41.4552 22.7608 4
    endloop
  endfacet
  facet normal 0.120555 -0.992707 0
    outer loop
      vertex 43.3409 22.9898 4
      vertex 41.4552 22.7608 0
      vertex 43.3409 22.9898 0
    endloop
  endfacet
  facet normal -0.354611 0.935014 0
    outer loop
      vertex 45.117 15.7838 0
      vertex 43.3409 15.1102 4
      vertex 45.117 15.7838 4
    endloop
  endfacet
  facet normal -0.354611 0.935014 0
    outer loop
      vertex 43.3409 15.1102 4
      vertex 45.117 15.7838 0
      vertex 43.3409 15.1102 0
    endloop
  endfacet
  facet normal -0.354611 -0.935014 0
    outer loop
      vertex 43.3409 22.9898 0
      vertex 45.117 22.3162 4
      vertex 43.3409 22.9898 4
    endloop
  endfacet
  facet normal -0.354611 -0.935014 -0
    outer loop
      vertex 45.117 22.3162 4
      vertex 43.3409 22.9898 0
      vertex 45.117 22.3162 0
    endloop
  endfacet
  facet normal -0.748486 -0.663151 0
    outer loop
      vertex 46.3767 20.8944 0
      vertex 45.117 22.3162 4
      vertex 45.117 22.3162 0
    endloop
  endfacet
  facet normal -0.748486 -0.663151 0
    outer loop
      vertex 45.117 22.3162 4
      vertex 46.3767 20.8944 0
      vertex 46.3767 20.8944 4
    endloop
  endfacet
  facet normal 0.885474 -0.464689 0
    outer loop
      vertex 39.0091 19.9998 4
      vertex 39.8918 21.6818 0
      vertex 39.8918 21.6818 4
    endloop
  endfacet
  facet normal 0.885474 -0.464689 0
    outer loop
      vertex 39.8918 21.6818 0
      vertex 39.0091 19.9998 4
      vertex 39.0091 19.9998 0
    endloop
  endfacet
  facet normal 0.568016 -0.823018 0
    outer loop
      vertex 39.8918 21.6818 0
      vertex 41.4552 22.7608 4
      vertex 39.8918 21.6818 4
    endloop
  endfacet
  facet normal 0.568016 -0.823018 0
    outer loop
      vertex 41.4552 22.7608 4
      vertex 39.8918 21.6818 0
      vertex 41.4552 22.7608 0
    endloop
  endfacet
  facet normal -0.748486 0.663151 0
    outer loop
      vertex 45.117 15.7838 0
      vertex 46.3767 17.2056 4
      vertex 46.3767 17.2056 0
    endloop
  endfacet
  facet normal -0.748486 0.663151 0
    outer loop
      vertex 46.3767 17.2056 4
      vertex 45.117 15.7838 0
      vertex 45.117 15.7838 4
    endloop
  endfacet
  facet normal -0.970955 0.239264 0
    outer loop
      vertex 46.3767 17.2056 0
      vertex 46.8312 19.05 4
      vertex 46.8312 19.05 0
    endloop
  endfacet
  facet normal -0.970955 0.239264 0
    outer loop
      vertex 46.8312 19.05 4
      vertex 46.3767 17.2056 0
      vertex 46.3767 17.2056 4
    endloop
  endfacet
  facet normal 0.120555 0.992707 -0
    outer loop
      vertex 43.3409 15.1102 0
      vertex 41.4552 15.3392 4
      vertex 43.3409 15.1102 4
    endloop
  endfacet
  facet normal 0.120555 0.992707 0
    outer loop
      vertex 41.4552 15.3392 4
      vertex 43.3409 15.1102 0
      vertex 41.4552 15.3392 0
    endloop
  endfacet
  facet normal 0.568016 0.823018 -0
    outer loop
      vertex 41.4552 15.3392 0
      vertex 39.8918 16.4182 4
      vertex 41.4552 15.3392 4
    endloop
  endfacet
  facet normal 0.568016 0.823018 0
    outer loop
      vertex 39.8918 16.4182 4
      vertex 41.4552 15.3392 0
      vertex 39.8918 16.4182 0
    endloop
  endfacet
  facet normal 0.885474 0.464689 0
    outer loop
      vertex 39.8918 16.4182 4
      vertex 39.0091 18.1002 0
      vertex 39.0091 18.1002 4
    endloop
  endfacet
  facet normal 0.885474 0.464689 0
    outer loop
      vertex 39.0091 18.1002 0
      vertex 39.8918 16.4182 4
      vertex 39.8918 16.4182 0
    endloop
  endfacet
  facet normal -0.970955 -0.239264 0
    outer loop
      vertex 27.7812 19.05 0
      vertex 27.3267 20.8944 4
      vertex 27.3267 20.8944 0
    endloop
  endfacet
  facet normal -0.970955 -0.239264 0
    outer loop
      vertex 27.3267 20.8944 4
      vertex 27.7812 19.05 0
      vertex 27.7812 19.05 4
    endloop
  endfacet
  facet normal 1 -0 0
    outer loop
      vertex 19.9591 18.1002 4
      vertex 19.9591 19.9998 0
      vertex 19.9591 19.9998 4
    endloop
  endfacet
  facet normal 1 0 0
    outer loop
      vertex 19.9591 19.9998 0
      vertex 19.9591 18.1002 4
      vertex 19.9591 18.1002 0
    endloop
  endfacet
  facet normal 0.120555 -0.992707 0
    outer loop
      vertex 22.4052 22.7608 0
      vertex 24.2909 22.9898 4
      vertex 22.4052 22.7608 4
    endloop
  endfacet
  facet normal 0.120555 -0.992707 0
    outer loop
      vertex 24.2909 22.9898 4
      vertex 22.4052 22.7608 0
      vertex 24.2909 22.9898 0
    endloop
  endfacet
  facet normal -0.354611 0.935014 0
    outer loop
      vertex 26.067 15.7838 0
      vertex 24.2909 15.1102 4
      vertex 26.067 15.7838 4
    endloop
  endfacet
  facet normal -0.354611 0.935014 0
    outer loop
      vertex 24.2909 15.1102 4
      vertex 26.067 15.7838 0
      vertex 24.2909 15.1102 0
    endloop
  endfacet
  facet normal -0.354611 -0.935014 0
    outer loop
      vertex 24.2909 22.9898 0
      vertex 26.067 22.3162 4
      vertex 24.2909 22.9898 4
    endloop
  endfacet
  facet normal -0.354611 -0.935014 -0
    outer loop
      vertex 26.067 22.3162 4
      vertex 24.2909 22.9898 0
      vertex 26.067 22.3162 0
    endloop
  endfacet
  facet normal -0.748486 -0.663151 0
    outer loop
      vertex 27.3267 20.8944 0
      vertex 26.067 22.3162 4
      vertex 26.067 22.3162 0
    endloop
  endfacet
  facet normal -0.748486 -0.663151 0
    outer loop
      vertex 26.067 22.3162 4
      vertex 27.3267 20.8944 0
      vertex 27.3267 20.8944 4
    endloop
  endfacet
  facet normal 0.885474 -0.464689 0
    outer loop
      vertex 19.9591 19.9998 4
      vertex 20.8418 21.6818 0
      vertex 20.8418 21.6818 4
    endloop
  endfacet
  facet normal 0.885474 -0.464689 0
    outer loop
      vertex 20.8418 21.6818 0
      vertex 19.9591 19.9998 4
      vertex 19.9591 19.9998 0
    endloop
  endfacet
  facet normal 0.568016 -0.823018 0
    outer loop
      vertex 20.8418 21.6818 0
      vertex 22.4052 22.7608 4
      vertex 20.8418 21.6818 4
    endloop
  endfacet
  facet normal 0.568016 -0.823018 0
    outer loop
      vertex 22.4052 22.7608 4
      vertex 20.8418 21.6818 0
      vertex 22.4052 22.7608 0
    endloop
  endfacet
  facet normal -0.970955 0.239264 0
    outer loop
      vertex 27.3267 17.2056 0
      vertex 27.7812 19.05 4
      vertex 27.7812 19.05 0
    endloop
  endfacet
  facet normal -0.970955 0.239264 0
    outer loop
      vertex 27.7812 19.05 4
      vertex 27.3267 17.2056 0
      vertex 27.3267 17.2056 4
    endloop
  endfacet
  facet normal -0.748486 0.663151 0
    outer loop
      vertex 26.067 15.7838 0
      vertex 27.3267 17.2056 4
      vertex 27.3267 17.2056 0
    endloop
  endfacet
  facet normal -0.748486 0.663151 0
    outer loop
      vertex 27.3267 17.2056 4
      vertex 26.067 15.7838 0
      vertex 26.067 15.7838 4
    endloop
  endfacet
  facet normal 0.120555 0.992707 -0
    outer loop
      vertex 24.2909 15.1102 0
      vertex 22.4052 15.3392 4
      vertex 24.2909 15.1102 4
    endloop
  endfacet
  facet normal 0.120555 0.992707 0
    outer loop
      vertex 22.4052 15.3392 4
      vertex 24.2909 15.1102 0
      vertex 22.4052 15.3392 0
    endloop
  endfacet
  facet normal 0.568016 0.823018 -0
    outer loop
      vertex 22.4052 15.3392 0
      vertex 20.8418 16.4182 4
      vertex 22.4052 15.3392 4
    endloop
  endfacet
  facet normal 0.568016 0.823018 0
    outer loop
      vertex 20.8418 16.4182 4
      vertex 22.4052 15.3392 0
      vertex 20.8418 16.4182 0
    endloop
  endfacet
  facet normal 0.885474 0.464689 0
    outer loop
      vertex 20.8418 16.4182 4
      vertex 19.9591 18.1002 0
      vertex 19.9591 18.1002 4
    endloop
  endfacet
  facet normal 0.885474 0.464689 0
    outer loop
      vertex 19.9591 18.1002 0
      vertex 20.8418 16.4182 4
      vertex 20.8418 16.4182 0
    endloop
  endfacet
  facet normal -0.970942 -0.239314 0
    outer loop
      vertex 8.73125 19.05 0
      vertex 8.27665 20.8944 4
      vertex 8.27665 20.8944 0
    endloop
  endfacet
  facet normal -0.970942 -0.239314 0
    outer loop
      vertex 8.27665 20.8944 4
      vertex 8.73125 19.05 0
      vertex 8.73125 19.05 4
    endloop
  endfacet
  facet normal 1 -0 0
    outer loop
      vertex 0.909074 18.1002 4
      vertex 0.909074 19.9998 0
      vertex 0.909074 19.9998 4
    endloop
  endfacet
  facet normal 1 0 0
    outer loop
      vertex 0.909074 19.9998 0
      vertex 0.909074 18.1002 4
      vertex 0.909074 18.1002 0
    endloop
  endfacet
  facet normal 0.120553 -0.992707 0
    outer loop
      vertex 3.35516 22.7608 0
      vertex 5.24088 22.9898 4
      vertex 3.35516 22.7608 4
    endloop
  endfacet
  facet normal 0.120553 -0.992707 0
    outer loop
      vertex 5.24088 22.9898 4
      vertex 3.35516 22.7608 0
      vertex 5.24088 22.9898 0
    endloop
  endfacet
  facet normal 0.568038 -0.823002 0
    outer loop
      vertex 1.79185 21.6818 0
      vertex 3.35516 22.7608 4
      vertex 1.79185 21.6818 4
    endloop
  endfacet
  facet normal 0.568038 -0.823002 0
    outer loop
      vertex 3.35516 22.7608 4
      vertex 1.79185 21.6818 0
      vertex 3.35516 22.7608 0
    endloop
  endfacet
  facet normal -0.354606 0.935016 0
    outer loop
      vertex 7.01701 15.7838 0
      vertex 5.24088 15.1102 4
      vertex 7.01701 15.7838 4
    endloop
  endfacet
  facet normal -0.354606 0.935016 0
    outer loop
      vertex 5.24088 15.1102 4
      vertex 7.01701 15.7838 0
      vertex 5.24088 15.1102 0
    endloop
  endfacet
  facet normal -0.354606 -0.935016 0
    outer loop
      vertex 5.24088 22.9898 0
      vertex 7.01701 22.3162 4
      vertex 5.24088 22.9898 4
    endloop
  endfacet
  facet normal -0.354606 -0.935016 -0
    outer loop
      vertex 7.01701 22.3162 4
      vertex 5.24088 22.9898 0
      vertex 7.01701 22.3162 0
    endloop
  endfacet
  facet normal -0.748502 -0.663133 0
    outer loop
      vertex 8.27665 20.8944 0
      vertex 7.01701 22.3162 4
      vertex 7.01701 22.3162 0
    endloop
  endfacet
  facet normal -0.748502 -0.663133 0
    outer loop
      vertex 7.01701 22.3162 4
      vertex 8.27665 20.8944 0
      vertex 8.27665 20.8944 4
    endloop
  endfacet
  facet normal 0.885457 -0.464721 0
    outer loop
      vertex 0.909074 19.9998 4
      vertex 1.79185 21.6818 0
      vertex 1.79185 21.6818 4
    endloop
  endfacet
  facet normal 0.885457 -0.464721 0
    outer loop
      vertex 1.79185 21.6818 0
      vertex 0.909074 19.9998 4
      vertex 0.909074 19.9998 0
    endloop
  endfacet
  facet normal -0.748502 0.663133 0
    outer loop
      vertex 7.01701 15.7838 0
      vertex 8.27665 17.2056 4
      vertex 8.27665 17.2056 0
    endloop
  endfacet
  facet normal -0.748502 0.663133 0
    outer loop
      vertex 8.27665 17.2056 4
      vertex 7.01701 15.7838 0
      vertex 7.01701 15.7838 4
    endloop
  endfacet
  facet normal -0.970942 0.239314 0
    outer loop
      vertex 8.27665 17.2056 0
      vertex 8.73125 19.05 4
      vertex 8.73125 19.05 0
    endloop
  endfacet
  facet normal -0.970942 0.239314 0
    outer loop
      vertex 8.73125 19.05 4
      vertex 8.27665 17.2056 0
      vertex 8.27665 17.2056 4
    endloop
  endfacet
  facet normal 0.120553 0.992707 -0
    outer loop
      vertex 5.24088 15.1102 0
      vertex 3.35516 15.3392 4
      vertex 5.24088 15.1102 4
    endloop
  endfacet
  facet normal 0.120553 0.992707 0
    outer loop
      vertex 3.35516 15.3392 4
      vertex 5.24088 15.1102 0
      vertex 3.35516 15.3392 0
    endloop
  endfacet
  facet normal 0.568038 0.823002 -0
    outer loop
      vertex 3.35516 15.3392 0
      vertex 1.79185 16.4182 4
      vertex 3.35516 15.3392 4
    endloop
  endfacet
  facet normal 0.568038 0.823002 0
    outer loop
      vertex 1.79185 16.4182 4
      vertex 3.35516 15.3392 0
      vertex 1.79185 16.4182 0
    endloop
  endfacet
  facet normal 0.885457 0.464721 0
    outer loop
      vertex 1.79185 16.4182 4
      vertex 0.909074 18.1002 0
      vertex 0.909074 18.1002 4
    endloop
  endfacet
  facet normal 0.885457 0.464721 0
    outer loop
      vertex 0.909074 18.1002 0
      vertex 1.79185 16.4182 4
      vertex 1.79185 16.4182 0
    endloop
  endfacet
  facet normal -0.970955 -0.239264 0
    outer loop
      vertex 65.8812 19.05 0
      vertex 65.4267 20.8944 4
      vertex 65.4267 20.8944 0
    endloop
  endfacet
  facet normal -0.970955 -0.239264 0
    outer loop
      vertex 65.4267 20.8944 4
      vertex 65.8812 19.05 0
      vertex 65.8812 19.05 4
    endloop
  endfacet
  facet normal 1 -0 0
    outer loop
      vertex 58.0591 18.1002 4
      vertex 58.0591 19.9998 0
      vertex 58.0591 19.9998 4
    endloop
  endfacet
  facet normal 1 0 0
    outer loop
      vertex 58.0591 19.9998 0
      vertex 58.0591 18.1002 4
      vertex 58.0591 18.1002 0
    endloop
  endfacet
  facet normal 0.120555 -0.992707 0
    outer loop
      vertex 60.5052 22.7608 0
      vertex 62.3909 22.9898 4
      vertex 60.5052 22.7608 4
    endloop
  endfacet
  facet normal 0.120555 -0.992707 0
    outer loop
      vertex 62.3909 22.9898 4
      vertex 60.5052 22.7608 0
      vertex 62.3909 22.9898 0
    endloop
  endfacet
  facet normal -0.354611 0.935014 0
    outer loop
      vertex 64.167 15.7838 0
      vertex 62.3909 15.1102 4
      vertex 64.167 15.7838 4
    endloop
  endfacet
  facet normal -0.354611 0.935014 0
    outer loop
      vertex 62.3909 15.1102 4
      vertex 64.167 15.7838 0
      vertex 62.3909 15.1102 0
    endloop
  endfacet
  facet normal -0.354611 -0.935014 0
    outer loop
      vertex 62.3909 22.9898 0
      vertex 64.167 22.3162 4
      vertex 62.3909 22.9898 4
    endloop
  endfacet
  facet normal -0.354611 -0.935014 -0
    outer loop
      vertex 64.167 22.3162 4
      vertex 62.3909 22.9898 0
      vertex 64.167 22.3162 0
    endloop
  endfacet
  facet normal -0.748486 -0.663151 0
    outer loop
      vertex 65.4267 20.8944 0
      vertex 64.167 22.3162 4
      vertex 64.167 22.3162 0
    endloop
  endfacet
  facet normal -0.748486 -0.663151 0
    outer loop
      vertex 64.167 22.3162 4
      vertex 65.4267 20.8944 0
      vertex 65.4267 20.8944 4
    endloop
  endfacet
  facet normal 0.885474 -0.464689 0
    outer loop
      vertex 58.0591 19.9998 4
      vertex 58.9418 21.6818 0
      vertex 58.9418 21.6818 4
    endloop
  endfacet
  facet normal 0.885474 -0.464689 0
    outer loop
      vertex 58.9418 21.6818 0
      vertex 58.0591 19.9998 4
      vertex 58.0591 19.9998 0
    endloop
  endfacet
  facet normal 0.568016 -0.823018 0
    outer loop
      vertex 58.9418 21.6818 0
      vertex 60.5052 22.7608 4
      vertex 58.9418 21.6818 4
    endloop
  endfacet
  facet normal 0.568016 -0.823018 0
    outer loop
      vertex 60.5052 22.7608 4
      vertex 58.9418 21.6818 0
      vertex 60.5052 22.7608 0
    endloop
  endfacet
  facet normal 0.885474 0.464689 0
    outer loop
      vertex 58.9418 16.4182 4
      vertex 58.0591 18.1002 0
      vertex 58.0591 18.1002 4
    endloop
  endfacet
  facet normal 0.885474 0.464689 0
    outer loop
      vertex 58.0591 18.1002 0
      vertex 58.9418 16.4182 4
      vertex 58.9418 16.4182 0
    endloop
  endfacet
  facet normal -0.748486 0.663151 0
    outer loop
      vertex 64.167 15.7838 0
      vertex 65.4267 17.2056 4
      vertex 65.4267 17.2056 0
    endloop
  endfacet
  facet normal -0.748486 0.663151 0
    outer loop
      vertex 65.4267 17.2056 4
      vertex 64.167 15.7838 0
      vertex 64.167 15.7838 4
    endloop
  endfacet
  facet normal -0.970955 0.239264 0
    outer loop
      vertex 65.4267 17.2056 0
      vertex 65.8812 19.05 4
      vertex 65.8812 19.05 0
    endloop
  endfacet
  facet normal -0.970955 0.239264 0
    outer loop
      vertex 65.8812 19.05 4
      vertex 65.4267 17.2056 0
      vertex 65.4267 17.2056 4
    endloop
  endfacet
  facet normal 0.120555 0.992707 -0
    outer loop
      vertex 62.3909 15.1102 0
      vertex 60.5052 15.3392 4
      vertex 62.3909 15.1102 4
    endloop
  endfacet
  facet normal 0.120555 0.992707 0
    outer loop
      vertex 60.5052 15.3392 4
      vertex 62.3909 15.1102 0
      vertex 60.5052 15.3392 0
    endloop
  endfacet
  facet normal 0.568016 0.823018 -0
    outer loop
      vertex 60.5052 15.3392 0
      vertex 58.9418 16.4182 4
      vertex 60.5052 15.3392 4
    endloop
  endfacet
  facet normal 0.568016 0.823018 0
    outer loop
      vertex 58.9418 16.4182 4
      vertex 60.5052 15.3392 0
      vertex 58.9418 16.4182 0
    endloop
  endfacet
  facet normal -0.970942 -0.239314 0
    outer loop
      vertex 84.9313 19.05 0
      vertex 84.4767 20.8944 4
      vertex 84.4767 20.8944 0
    endloop
  endfacet
  facet normal -0.970942 -0.239314 0
    outer loop
      vertex 84.4767 20.8944 4
      vertex 84.9313 19.05 0
      vertex 84.9313 19.05 4
    endloop
  endfacet
  facet normal 1 -0 0
    outer loop
      vertex 77.1091 18.1002 4
      vertex 77.1091 19.9998 0
      vertex 77.1091 19.9998 4
    endloop
  endfacet
  facet normal 1 0 0
    outer loop
      vertex 77.1091 19.9998 0
      vertex 77.1091 18.1002 4
      vertex 77.1091 18.1002 0
    endloop
  endfacet
  facet normal 0.120555 -0.992707 0
    outer loop
      vertex 79.5552 22.7608 0
      vertex 81.4409 22.9898 4
      vertex 79.5552 22.7608 4
    endloop
  endfacet
  facet normal 0.120555 -0.992707 0
    outer loop
      vertex 81.4409 22.9898 4
      vertex 79.5552 22.7608 0
      vertex 81.4409 22.9898 0
    endloop
  endfacet
  facet normal 0.568016 -0.823018 0
    outer loop
      vertex 77.9918 21.6818 0
      vertex 79.5552 22.7608 4
      vertex 77.9918 21.6818 4
    endloop
  endfacet
  facet normal 0.568016 -0.823018 0
    outer loop
      vertex 79.5552 22.7608 4
      vertex 77.9918 21.6818 0
      vertex 79.5552 22.7608 0
    endloop
  endfacet
  facet normal -0.354611 0.935014 0
    outer loop
      vertex 83.217 15.7838 0
      vertex 81.4409 15.1102 4
      vertex 83.217 15.7838 4
    endloop
  endfacet
  facet normal -0.354611 0.935014 0
    outer loop
      vertex 81.4409 15.1102 4
      vertex 83.217 15.7838 0
      vertex 81.4409 15.1102 0
    endloop
  endfacet
  facet normal -0.354611 -0.935014 0
    outer loop
      vertex 81.4409 22.9898 0
      vertex 83.217 22.3162 4
      vertex 81.4409 22.9898 4
    endloop
  endfacet
  facet normal -0.354611 -0.935014 -0
    outer loop
      vertex 83.217 22.3162 4
      vertex 81.4409 22.9898 0
      vertex 83.217 22.3162 0
    endloop
  endfacet
  facet normal -0.748486 -0.663151 0
    outer loop
      vertex 84.4767 20.8944 0
      vertex 83.217 22.3162 4
      vertex 83.217 22.3162 0
    endloop
  endfacet
  facet normal -0.748486 -0.663151 0
    outer loop
      vertex 83.217 22.3162 4
      vertex 84.4767 20.8944 0
      vertex 84.4767 20.8944 4
    endloop
  endfacet
  facet normal 0.885474 -0.464689 0
    outer loop
      vertex 77.1091 19.9998 4
      vertex 77.9918 21.6818 0
      vertex 77.9918 21.6818 4
    endloop
  endfacet
  facet normal 0.885474 -0.464689 0
    outer loop
      vertex 77.9918 21.6818 0
      vertex 77.1091 19.9998 4
      vertex 77.1091 19.9998 0
    endloop
  endfacet
  facet normal -0.970942 0.239314 0
    outer loop
      vertex 84.4767 17.2056 0
      vertex 84.9313 19.05 4
      vertex 84.9313 19.05 0
    endloop
  endfacet
  facet normal -0.970942 0.239314 0
    outer loop
      vertex 84.9313 19.05 4
      vertex 84.4767 17.2056 0
      vertex 84.4767 17.2056 4
    endloop
  endfacet
  facet normal -0.748486 0.663151 0
    outer loop
      vertex 83.217 15.7838 0
      vertex 84.4767 17.2056 4
      vertex 84.4767 17.2056 0
    endloop
  endfacet
  facet normal -0.748486 0.663151 0
    outer loop
      vertex 84.4767 17.2056 4
      vertex 83.217 15.7838 0
      vertex 83.217 15.7838 4
    endloop
  endfacet
  facet normal 0.120555 0.992707 -0
    outer loop
      vertex 81.4409 15.1102 0
      vertex 79.5552 15.3392 4
      vertex 81.4409 15.1102 4
    endloop
  endfacet
  facet normal 0.120555 0.992707 0
    outer loop
      vertex 79.5552 15.3392 4
      vertex 81.4409 15.1102 0
      vertex 79.5552 15.3392 0
    endloop
  endfacet
  facet normal 0.568016 0.823018 -0
    outer loop
      vertex 79.5552 15.3392 0
      vertex 77.9918 16.4182 4
      vertex 79.5552 15.3392 4
    endloop
  endfacet
  facet normal 0.568016 0.823018 0
    outer loop
      vertex 77.9918 16.4182 4
      vertex 79.5552 15.3392 0
      vertex 77.9918 16.4182 0
    endloop
  endfacet
  facet normal 0.885474 0.464689 0
    outer loop
      vertex 77.9918 16.4182 4
      vertex 77.1091 18.1002 0
      vertex 77.1091 18.1002 4
    endloop
  endfacet
  facet normal 0.885474 0.464689 0
    outer loop
      vertex 77.1091 18.1002 0
      vertex 77.9918 16.4182 4
      vertex 77.9918 16.4182 0
    endloop
  endfacet
  facet normal -0.923882 -0.382677 0
    outer loop
      vertex 16.5375 28.575 0
      vertex 15.8785 30.166 4
      vertex 15.8785 30.166 0
    endloop
  endfacet
  facet normal -0.923882 -0.382677 0
    outer loop
      vertex 15.8785 30.166 4
      vertex 16.5375 28.575 0
      vertex 16.5375 28.575 4
    endloop
  endfacet
  facet normal 0.382677 -0.923882 0
    outer loop
      vertex 12.6965 30.166 0
      vertex 14.2875 30.825 4
      vertex 12.6965 30.166 4
    endloop
  endfacet
  facet normal 0.382677 -0.923882 0
    outer loop
      vertex 14.2875 30.825 4
      vertex 12.6965 30.166 0
      vertex 14.2875 30.825 0
    endloop
  endfacet
  facet normal -0.382677 -0.923882 0
    outer loop
      vertex 14.2875 30.825 0
      vertex 15.8785 30.166 4
      vertex 14.2875 30.825 4
    endloop
  endfacet
  facet normal -0.382677 -0.923882 -0
    outer loop
      vertex 15.8785 30.166 4
      vertex 14.2875 30.825 0
      vertex 15.8785 30.166 0
    endloop
  endfacet
  facet normal 0.923882 -0.382677 0
    outer loop
      vertex 12.0375 28.575 4
      vertex 12.6965 30.166 0
      vertex 12.6965 30.166 4
    endloop
  endfacet
  facet normal 0.923882 -0.382677 0
    outer loop
      vertex 12.6965 30.166 0
      vertex 12.0375 28.575 4
      vertex 12.0375 28.575 0
    endloop
  endfacet
  facet normal -0.923882 0.382677 0
    outer loop
      vertex 15.8785 26.984 0
      vertex 16.5375 28.575 4
      vertex 16.5375 28.575 0
    endloop
  endfacet
  facet normal -0.923882 0.382677 0
    outer loop
      vertex 16.5375 28.575 4
      vertex 15.8785 26.984 0
      vertex 15.8785 26.984 4
    endloop
  endfacet
  facet normal 0.382677 0.923882 -0
    outer loop
      vertex 14.2875 26.325 0
      vertex 12.6965 26.984 4
      vertex 14.2875 26.325 4
    endloop
  endfacet
  facet normal 0.382677 0.923882 0
    outer loop
      vertex 12.6965 26.984 4
      vertex 14.2875 26.325 0
      vertex 12.6965 26.984 0
    endloop
  endfacet
  facet normal 0.923882 0.382677 0
    outer loop
      vertex 12.6965 26.984 4
      vertex 12.0375 28.575 0
      vertex 12.0375 28.575 4
    endloop
  endfacet
  facet normal 0.923882 0.382677 0
    outer loop
      vertex 12.0375 28.575 0
      vertex 12.6965 26.984 4
      vertex 12.6965 26.984 0
    endloop
  endfacet
  facet normal -0.382677 0.923882 0
    outer loop
      vertex 15.8785 26.984 0
      vertex 14.2875 26.325 4
      vertex 15.8785 26.984 4
    endloop
  endfacet
  facet normal -0.382677 0.923882 0
    outer loop
      vertex 14.2875 26.325 4
      vertex 15.8785 26.984 0
      vertex 14.2875 26.325 0
    endloop
  endfacet
  facet normal -0.923882 -0.382677 0
    outer loop
      vertex 35.5875 28.575 0
      vertex 34.9285 30.166 4
      vertex 34.9285 30.166 0
    endloop
  endfacet
  facet normal -0.923882 -0.382677 0
    outer loop
      vertex 34.9285 30.166 4
      vertex 35.5875 28.575 0
      vertex 35.5875 28.575 4
    endloop
  endfacet
  facet normal 0.382677 -0.923882 0
    outer loop
      vertex 31.7465 30.166 0
      vertex 33.3375 30.825 4
      vertex 31.7465 30.166 4
    endloop
  endfacet
  facet normal 0.382677 -0.923882 0
    outer loop
      vertex 33.3375 30.825 4
      vertex 31.7465 30.166 0
      vertex 33.3375 30.825 0
    endloop
  endfacet
  facet normal -0.382677 -0.923882 0
    outer loop
      vertex 33.3375 30.825 0
      vertex 34.9285 30.166 4
      vertex 33.3375 30.825 4
    endloop
  endfacet
  facet normal -0.382677 -0.923882 -0
    outer loop
      vertex 34.9285 30.166 4
      vertex 33.3375 30.825 0
      vertex 34.9285 30.166 0
    endloop
  endfacet
  facet normal 0.923882 -0.382677 0
    outer loop
      vertex 31.0875 28.575 4
      vertex 31.7465 30.166 0
      vertex 31.7465 30.166 4
    endloop
  endfacet
  facet normal 0.923882 -0.382677 0
    outer loop
      vertex 31.7465 30.166 0
      vertex 31.0875 28.575 4
      vertex 31.0875 28.575 0
    endloop
  endfacet
  facet normal -0.923882 0.382677 0
    outer loop
      vertex 34.9285 26.984 0
      vertex 35.5875 28.575 4
      vertex 35.5875 28.575 0
    endloop
  endfacet
  facet normal -0.923882 0.382677 0
    outer loop
      vertex 35.5875 28.575 4
      vertex 34.9285 26.984 0
      vertex 34.9285 26.984 4
    endloop
  endfacet
  facet normal 0.382677 0.923882 -0
    outer loop
      vertex 33.3375 26.325 0
      vertex 31.7465 26.984 4
      vertex 33.3375 26.325 4
    endloop
  endfacet
  facet normal 0.382677 0.923882 0
    outer loop
      vertex 31.7465 26.984 4
      vertex 33.3375 26.325 0
      vertex 31.7465 26.984 0
    endloop
  endfacet
  facet normal 0.923882 0.382677 0
    outer loop
      vertex 31.7465 26.984 4
      vertex 31.0875 28.575 0
      vertex 31.0875 28.575 4
    endloop
  endfacet
  facet normal 0.923882 0.382677 0
    outer loop
      vertex 31.0875 28.575 0
      vertex 31.7465 26.984 4
      vertex 31.7465 26.984 0
    endloop
  endfacet
  facet normal -0.382677 0.923882 0
    outer loop
      vertex 34.9285 26.984 0
      vertex 33.3375 26.325 4
      vertex 34.9285 26.984 4
    endloop
  endfacet
  facet normal -0.382677 0.923882 0
    outer loop
      vertex 33.3375 26.325 4
      vertex 34.9285 26.984 0
      vertex 33.3375 26.325 0
    endloop
  endfacet
  facet normal -0.923882 -0.382677 0
    outer loop
      vertex 54.6375 28.575 0
      vertex 53.9785 30.166 4
      vertex 53.9785 30.166 0
    endloop
  endfacet
  facet normal -0.923882 -0.382677 0
    outer loop
      vertex 53.9785 30.166 4
      vertex 54.6375 28.575 0
      vertex 54.6375 28.575 4
    endloop
  endfacet
  facet normal 0.382677 -0.923882 0
    outer loop
      vertex 50.7965 30.166 0
      vertex 52.3875 30.825 4
      vertex 50.7965 30.166 4
    endloop
  endfacet
  facet normal 0.382677 -0.923882 0
    outer loop
      vertex 52.3875 30.825 4
      vertex 50.7965 30.166 0
      vertex 52.3875 30.825 0
    endloop
  endfacet
  facet normal -0.382677 -0.923882 0
    outer loop
      vertex 52.3875 30.825 0
      vertex 53.9785 30.166 4
      vertex 52.3875 30.825 4
    endloop
  endfacet
  facet normal -0.382677 -0.923882 -0
    outer loop
      vertex 53.9785 30.166 4
      vertex 52.3875 30.825 0
      vertex 53.9785 30.166 0
    endloop
  endfacet
  facet normal 0.923882 -0.382677 0
    outer loop
      vertex 50.1375 28.575 4
      vertex 50.7965 30.166 0
      vertex 50.7965 30.166 4
    endloop
  endfacet
  facet normal 0.923882 -0.382677 0
    outer loop
      vertex 50.7965 30.166 0
      vertex 50.1375 28.575 4
      vertex 50.1375 28.575 0
    endloop
  endfacet
  facet normal -0.923882 0.382677 0
    outer loop
      vertex 53.9785 26.984 0
      vertex 54.6375 28.575 4
      vertex 54.6375 28.575 0
    endloop
  endfacet
  facet normal -0.923882 0.382677 0
    outer loop
      vertex 54.6375 28.575 4
      vertex 53.9785 26.984 0
      vertex 53.9785 26.984 4
    endloop
  endfacet
  facet normal 0.382677 0.923882 -0
    outer loop
      vertex 52.3875 26.325 0
      vertex 50.7965 26.984 4
      vertex 52.3875 26.325 4
    endloop
  endfacet
  facet normal 0.382677 0.923882 0
    outer loop
      vertex 50.7965 26.984 4
      vertex 52.3875 26.325 0
      vertex 50.7965 26.984 0
    endloop
  endfacet
  facet normal 0.923882 0.382677 0
    outer loop
      vertex 50.7965 26.984 4
      vertex 50.1375 28.575 0
      vertex 50.1375 28.575 4
    endloop
  endfacet
  facet normal 0.923882 0.382677 0
    outer loop
      vertex 50.1375 28.575 0
      vertex 50.7965 26.984 4
      vertex 50.7965 26.984 0
    endloop
  endfacet
  facet normal -0.382677 0.923882 0
    outer loop
      vertex 53.9785 26.984 0
      vertex 52.3875 26.325 4
      vertex 53.9785 26.984 4
    endloop
  endfacet
  facet normal -0.382677 0.923882 0
    outer loop
      vertex 52.3875 26.325 4
      vertex 53.9785 26.984 0
      vertex 52.3875 26.325 0
    endloop
  endfacet
  facet normal -0.923882 -0.382677 0
    outer loop
      vertex 73.6875 28.575 0
      vertex 73.0285 30.166 4
      vertex 73.0285 30.166 0
    endloop
  endfacet
  facet normal -0.923882 -0.382677 0
    outer loop
      vertex 73.0285 30.166 4
      vertex 73.6875 28.575 0
      vertex 73.6875 28.575 4
    endloop
  endfacet
  facet normal 0.382677 -0.923882 0
    outer loop
      vertex 69.8465 30.166 0
      vertex 71.4375 30.825 4
      vertex 69.8465 30.166 4
    endloop
  endfacet
  facet normal 0.382677 -0.923882 0
    outer loop
      vertex 71.4375 30.825 4
      vertex 69.8465 30.166 0
      vertex 71.4375 30.825 0
    endloop
  endfacet
  facet normal -0.382677 -0.923882 0
    outer loop
      vertex 71.4375 30.825 0
      vertex 73.0285 30.166 4
      vertex 71.4375 30.825 4
    endloop
  endfacet
  facet normal -0.382677 -0.923882 -0
    outer loop
      vertex 73.0285 30.166 4
      vertex 71.4375 30.825 0
      vertex 73.0285 30.166 0
    endloop
  endfacet
  facet normal 0.923882 -0.382677 0
    outer loop
      vertex 69.1875 28.575 4
      vertex 69.8465 30.166 0
      vertex 69.8465 30.166 4
    endloop
  endfacet
  facet normal 0.923882 -0.382677 0
    outer loop
      vertex 69.8465 30.166 0
      vertex 69.1875 28.575 4
      vertex 69.1875 28.575 0
    endloop
  endfacet
  facet normal -0.923882 0.382677 0
    outer loop
      vertex 73.0285 26.984 0
      vertex 73.6875 28.575 4
      vertex 73.6875 28.575 0
    endloop
  endfacet
  facet normal -0.923882 0.382677 0
    outer loop
      vertex 73.6875 28.575 4
      vertex 73.0285 26.984 0
      vertex 73.0285 26.984 4
    endloop
  endfacet
  facet normal 0.382677 0.923882 -0
    outer loop
      vertex 71.4375 26.325 0
      vertex 69.8465 26.984 4
      vertex 71.4375 26.325 4
    endloop
  endfacet
  facet normal 0.382677 0.923882 0
    outer loop
      vertex 69.8465 26.984 4
      vertex 71.4375 26.325 0
      vertex 69.8465 26.984 0
    endloop
  endfacet
  facet normal 0.923882 0.382677 0
    outer loop
      vertex 69.8465 26.984 4
      vertex 69.1875 28.575 0
      vertex 69.1875 28.575 4
    endloop
  endfacet
  facet normal 0.923882 0.382677 0
    outer loop
      vertex 69.1875 28.575 0
      vertex 69.8465 26.984 4
      vertex 69.8465 26.984 0
    endloop
  endfacet
  facet normal -0.382677 0.923882 0
    outer loop
      vertex 73.0285 26.984 0
      vertex 71.4375 26.325 4
      vertex 73.0285 26.984 4
    endloop
  endfacet
  facet normal -0.382677 0.923882 0
    outer loop
      vertex 71.4375 26.325 4
      vertex 73.0285 26.984 0
      vertex 71.4375 26.325 0
    endloop
  endfacet
endsolid OpenSCAD_Model
