solid OpenSCAD_Model
  facet normal -1 0 0
    outer loop
      vertex 0 0 0
      vertex 0 39 22.5
      vertex 0 39 0
    endloop
  endfacet
  facet normal -1 0 0
    outer loop
      vertex 0 0 58.0023
      vertex 0 19 48
      vertex 0 0 0
    endloop
  endfacet
  facet normal -1 -0 0
    outer loop
      vertex 0 39 22.5
      vertex 0 0 0
      vertex 0 19 48
    endloop
  endfacet
  facet normal -1 0 0
    outer loop
      vertex 0 19 67.999
      vertex 0 19.001 72.999
      vertex 0 19.001 67.999
    endloop
  endfacet
  facet normal -1 0 0
    outer loop
      vertex 0 19 48
      vertex 0 0 58.0023
      vertex 0 19 67.999
    endloop
  endfacet
  facet normal -1 0 0
    outer loop
      vertex 0 -2.999 67.999
      vertex 0 19 67.999
      vertex 0 0 58.0023
    endloop
  endfacet
  facet normal -1 0 0
    outer loop
      vertex 0 19 67.999
      vertex 0 -2.999 67.999
      vertex 0 19.001 72.999
    endloop
  endfacet
  facet normal 1 0 0
    outer loop
      vertex 27.5 19.001 72.999
      vertex 27.5 19 67.999
      vertex 27.5 19.001 67.999
    endloop
  endfacet
  facet normal 1 0 0
    outer loop
      vertex 27.5 19 67.999
      vertex 27.5 0 58.0023
      vertex 27.5 19 48
    endloop
  endfacet
  facet normal 1 0 0
    outer loop
      vertex 27.5 -2.999 67.999
      vertex 27.5 19 67.999
      vertex 27.5 19.001 72.999
    endloop
  endfacet
  facet normal 1 0 0
    outer loop
      vertex 27.5 19 67.999
      vertex 27.5 -2.999 67.999
      vertex 27.5 0 58.0023
    endloop
  endfacet
  facet normal 1 0 0
    outer loop
      vertex 27.5 0 0
      vertex 27.5 39 22.5
      vertex 27.5 19 48
    endloop
  endfacet
  facet normal 1 0 0
    outer loop
      vertex 27.5 0 0
      vertex 27.5 19 48
      vertex 27.5 0 58.0023
    endloop
  endfacet
  facet normal 1 0 0
    outer loop
      vertex 27.5 39 22.5
      vertex 27.5 0 0
      vertex 27.5 39 0
    endloop
  endfacet
  facet normal 0 1 -0
    outer loop
      vertex 27.5 39 0
      vertex 0 39 22.5
      vertex 27.5 39 22.5
    endloop
  endfacet
  facet normal 0 1 0
    outer loop
      vertex 0 39 22.5
      vertex 27.5 39 0
      vertex 0 39 0
    endloop
  endfacet
  facet normal 0 0 -1
    outer loop
      vertex 27.5 0 0
      vertex 24.5 3 0
      vertex 27.5 39 0
    endloop
  endfacet
  facet normal 0 0 -1
    outer loop
      vertex 27.5 0 0
      vertex 3 3 0
      vertex 24.5 3 0
    endloop
  endfacet
  facet normal -0 0 -1
    outer loop
      vertex 3 3 0
      vertex 0 0 0
      vertex 3 36 0
    endloop
  endfacet
  facet normal 0 0 -1
    outer loop
      vertex 0 0 0
      vertex 3 3 0
      vertex 27.5 0 0
    endloop
  endfacet
  facet normal 0 0 -1
    outer loop
      vertex 24.5 36 0
      vertex 27.5 39 0
      vertex 24.5 3 0
    endloop
  endfacet
  facet normal 0 0 -1
    outer loop
      vertex 3 36 0
      vertex 27.5 39 0
      vertex 24.5 36 0
    endloop
  endfacet
  facet normal 0 0 -1
    outer loop
      vertex 3 36 0
      vertex 0 39 0
      vertex 27.5 39 0
    endloop
  endfacet
  facet normal 0 0 -1
    outer loop
      vertex 0 39 0
      vertex 3 36 0
      vertex 0 0 0
    endloop
  endfacet
  facet normal 0 -1 0
    outer loop
      vertex 0 0 0
      vertex 27.5 0 58.0023
      vertex 0 0 58.0023
    endloop
  endfacet
  facet normal 0 -1 -0
    outer loop
      vertex 27.5 0 58.0023
      vertex 0 0 0
      vertex 27.5 0 0
    endloop
  endfacet
  facet normal 1 0 0
    outer loop
      vertex 3 13.01 64.9982
      vertex 3 19 65
      vertex 3 13.01 64.999
    endloop
  endfacet
  facet normal 1 0 0
    outer loop
      vertex 3 19 65
      vertex 3 6 64.999
      vertex 3 13.01 64.999
    endloop
  endfacet
  facet normal 1 0 0
    outer loop
      vertex 3 6 64.999
      vertex 3 3 65
      vertex 3 6 64.9982
    endloop
  endfacet
  facet normal 1 -0 0
    outer loop
      vertex 3 3 65
      vertex 3 6 64.999
      vertex 3 19 65
    endloop
  endfacet
  facet normal 1 0 0
    outer loop
      vertex 3 3 0
      vertex 3 36 26.325
      vertex 3 19 48
    endloop
  endfacet
  facet normal 1 0 0
    outer loop
      vertex 3 19 65
      vertex 3 13.01 64.9982
      vertex 3 19 48
    endloop
  endfacet
  facet normal 1 -0 0
    outer loop
      vertex 3 6 64.9982
      vertex 3 19 48
      vertex 3 13.01 64.9982
    endloop
  endfacet
  facet normal 1 0 0
    outer loop
      vertex 3 3 65
      vertex 3 19 48
      vertex 3 6 64.9982
    endloop
  endfacet
  facet normal 1 0 0
    outer loop
      vertex 3 19 48
      vertex 3 3 65
      vertex 3 3 0
    endloop
  endfacet
  facet normal 1 0 0
    outer loop
      vertex 3 36 26.325
      vertex 3 3 0
      vertex 3 36 0
    endloop
  endfacet
  facet normal 0 0 -1
    outer loop
      vertex 24.5 3 65
      vertex 24.4998 6 65
      vertex 24.5 19 65
    endloop
  endfacet
  facet normal 0 0 -1
    outer loop
      vertex 24.5 3 65
      vertex 17.501 6 65
      vertex 24.4998 6 65
    endloop
  endfacet
  facet normal 0 0 -1
    outer loop
      vertex 17.501 6 65
      vertex 17.25 13 65
      vertex 17.501 13 65
    endloop
  endfacet
  facet normal 0 0 -1
    outer loop
      vertex 17.501 6 65
      vertex 10.24 13 65
      vertex 17.25 13 65
    endloop
  endfacet
  facet normal 0 0 -1
    outer loop
      vertex 3 19 65
      vertex 10.24 13 65
      vertex 3 3 65
    endloop
  endfacet
  facet normal -0 0 -1
    outer loop
      vertex 17.501 6 65
      vertex 3 3 65
      vertex 10.24 13 65
    endloop
  endfacet
  facet normal 0 0 -1
    outer loop
      vertex 3 3 65
      vertex 17.501 6 65
      vertex 24.5 3 65
    endloop
  endfacet
  facet normal 0 0 -1
    outer loop
      vertex 24.4998 13 65
      vertex 24.5 19 65
      vertex 24.4998 6 65
    endloop
  endfacet
  facet normal 0 0 -1
    outer loop
      vertex 17.25 17.858 65
      vertex 24.4998 13 65
      vertex 17.501 13 65
    endloop
  endfacet
  facet normal 0 0 -1
    outer loop
      vertex 17.25 17.858 65
      vertex 17.501 13 65
      vertex 17.25 13 65
    endloop
  endfacet
  facet normal 0 0 -1
    outer loop
      vertex 24.4998 13 65
      vertex 17.25 17.858 65
      vertex 24.5 19 65
    endloop
  endfacet
  facet normal 0 0 -1
    outer loop
      vertex 10.24 17.858 65
      vertex 24.5 19 65
      vertex 17.25 17.858 65
    endloop
  endfacet
  facet normal 0 0 -1
    outer loop
      vertex 10.24 17.858 65
      vertex 3 19 65
      vertex 24.5 19 65
    endloop
  endfacet
  facet normal 0 0 -1
    outer loop
      vertex 10.24 13 65
      vertex 3 19 65
      vertex 10.24 17.858 65
    endloop
  endfacet
  facet normal -1 0 0
    outer loop
      vertex 24.5 3 0
      vertex 24.5 36 26.325
      vertex 24.5 36 0
    endloop
  endfacet
  facet normal -1 -0 0
    outer loop
      vertex 24.5 36 26.325
      vertex 24.5 3 0
      vertex 24.5 19 48
    endloop
  endfacet
  facet normal -1 0 0
    outer loop
      vertex 24.5 3 65
      vertex 24.5 19 48
      vertex 24.5 3 0
    endloop
  endfacet
  facet normal -1 0 0
    outer loop
      vertex 24.5 19 48
      vertex 24.5 3 65
      vertex 24.5 19 65
    endloop
  endfacet
  facet normal 0 -1 0
    outer loop
      vertex 3 36 0
      vertex 24.5 36 26.325
      vertex 3 36 26.325
    endloop
  endfacet
  facet normal 0 -1 -0
    outer loop
      vertex 24.5 36 26.325
      vertex 3 36 0
      vertex 24.5 36 0
    endloop
  endfacet
  facet normal 0 1 -0
    outer loop
      vertex 24.5 3 0
      vertex 3 3 65
      vertex 24.5 3 65
    endloop
  endfacet
  facet normal 0 1 0
    outer loop
      vertex 3 3 65
      vertex 24.5 3 0
      vertex 3 3 0
    endloop
  endfacet
  facet normal 0 0.786853 0.61714
    outer loop
      vertex 27.5 19 48
      vertex 24.5 36 26.325
      vertex 24.5 19 48
    endloop
  endfacet
  facet normal 0 0.786853 0.61714
    outer loop
      vertex 24.5 36 26.325
      vertex 27.5 39 22.5
      vertex 3 36 26.325
    endloop
  endfacet
  facet normal -1.46168e-16 0.786853 0.61714
    outer loop
      vertex 27.5 39 22.5
      vertex 24.5 36 26.325
      vertex 27.5 19 48
    endloop
  endfacet
  facet normal 0 0.786853 0.61714
    outer loop
      vertex 3 36 26.325
      vertex 0 19 48
      vertex 3 19 48
    endloop
  endfacet
  facet normal 1.46168e-16 0.786853 0.61714
    outer loop
      vertex 3 36 26.325
      vertex 0 39 22.5
      vertex 0 19 48
    endloop
  endfacet
  facet normal -0 0.786853 0.61714
    outer loop
      vertex 0 39 22.5
      vertex 3 36 26.325
      vertex 27.5 39 22.5
    endloop
  endfacet
  facet normal 0 1 0
    outer loop
      vertex 27.5 19 67.999
      vertex 24.5 19 65
      vertex 0 19 67.999
    endloop
  endfacet
  facet normal 0 1 -0
    outer loop
      vertex 27.5 19 48
      vertex 24.5 19 65
      vertex 27.5 19 67.999
    endloop
  endfacet
  facet normal 0 1 0
    outer loop
      vertex 24.5 19 65
      vertex 27.5 19 48
      vertex 24.5 19 48
    endloop
  endfacet
  facet normal 0 1 -0
    outer loop
      vertex 3 19 65
      vertex 0 19 67.999
      vertex 24.5 19 65
    endloop
  endfacet
  facet normal 0 1 0
    outer loop
      vertex 0 19 48
      vertex 3 19 65
      vertex 3 19 48
    endloop
  endfacet
  facet normal 0 1 0
    outer loop
      vertex 3 19 65
      vertex 0 19 48
      vertex 0 19 67.999
    endloop
  endfacet
  facet normal -1 0 0
    outer loop
      vertex 10.25 6 47.999
      vertex 10.25 13 58.999
      vertex 10.25 13 47.999
    endloop
  endfacet
  facet normal -1 0 0
    outer loop
      vertex 10.25 6 64.999
      vertex 10.25 13 58.999
      vertex 10.25 6 47.999
    endloop
  endfacet
  facet normal -1 0 0
    outer loop
      vertex 10.25 13 58.999
      vertex 10.25 6 64.999
      vertex 10.25 13 64.999
    endloop
  endfacet
  facet normal -0 0 1
    outer loop
      vertex 10.25 13 64.999
      vertex 17.25 6 64.999
      vertex 17.25 13 64.999
    endloop
  endfacet
  facet normal 0 0 1
    outer loop
      vertex 17.25 6 64.999
      vertex 10.25 13 64.999
      vertex 10.25 6 64.999
    endloop
  endfacet
  facet normal 1 0 0
    outer loop
      vertex 17.25 13 64.999
      vertex 17.25 17.858 65
      vertex 17.25 13 65
    endloop
  endfacet
  facet normal 1 -0 0
    outer loop
      vertex 17.25 13 64.999
      vertex 17.25 13 58.999
      vertex 17.25 17.858 65
    endloop
  endfacet
  facet normal 1 -0 0
    outer loop
      vertex 17.25 6 64.999
      vertex 17.25 13 58.999
      vertex 17.25 13 64.999
    endloop
  endfacet
  facet normal 1 0 0
    outer loop
      vertex 17.25 6 47.999
      vertex 17.25 13 58.999
      vertex 17.25 6 64.999
    endloop
  endfacet
  facet normal 1 0 0
    outer loop
      vertex 17.25 13 58.999
      vertex 17.25 6 47.999
      vertex 17.25 13 47.999
    endloop
  endfacet
  facet normal 0 -1 0
    outer loop
      vertex 10.24 13 65
      vertex 10.25 13 64.999
      vertex 17.25 13 65
    endloop
  endfacet
  facet normal 0 -1 0
    outer loop
      vertex 10.24 13 58.999
      vertex 10.25 13 64.999
      vertex 10.24 13 65
    endloop
  endfacet
  facet normal 0 -1 -0
    outer loop
      vertex 10.25 13 64.999
      vertex 10.24 13 58.999
      vertex 10.25 13 58.999
    endloop
  endfacet
  facet normal 0 -1 -0
    outer loop
      vertex 17.25 13 65
      vertex 10.25 13 64.999
      vertex 17.25 13 64.999
    endloop
  endfacet
  facet normal 0 1 0
    outer loop
      vertex 17.25 13 58.999
      vertex 13.6501 13 49.4976
      vertex 10.25 13 58.999
    endloop
  endfacet
  facet normal 0 1 0
    outer loop
      vertex 17.25 13 58.999
      vertex 14.0495 13 49.4862
      vertex 13.6501 13 49.4976
    endloop
  endfacet
  facet normal 0 1 0
    outer loop
      vertex 17.25 13 58.999
      vertex 14.4451 13 49.4293
      vertex 14.0495 13 49.4862
    endloop
  endfacet
  facet normal 0 1 0
    outer loop
      vertex 17.25 13 58.999
      vertex 14.8316 13 49.3277
      vertex 14.4451 13 49.4293
    endloop
  endfacet
  facet normal 0 1 0
    outer loop
      vertex 17.25 13 58.999
      vertex 15.204 13 49.1827
      vertex 14.8316 13 49.3277
    endloop
  endfacet
  facet normal 0 1 0
    outer loop
      vertex 17.25 13 58.999
      vertex 15.5574 13 48.9962
      vertex 15.204 13 49.1827
    endloop
  endfacet
  facet normal 0 1 0
    outer loop
      vertex 17.25 13 58.999
      vertex 15.8873 13 48.7707
      vertex 15.5574 13 48.9962
    endloop
  endfacet
  facet normal 0 1 -0
    outer loop
      vertex 17.25 13 47.999
      vertex 15.8873 13 48.7707
      vertex 17.25 13 58.999
    endloop
  endfacet
  facet normal 0 1 0
    outer loop
      vertex 15.8873 13 48.7707
      vertex 17.25 13 47.999
      vertex 16.1893 13 48.509
    endloop
  endfacet
  facet normal 0 1 0
    outer loop
      vertex 16.1893 13 48.509
      vertex 17.25 13 47.999
      vertex 16.4595 13 48.2145
    endloop
  endfacet
  facet normal 0 1 0
    outer loop
      vertex 16.4595 13 48.2145
      vertex 17.25 13 47.999
      vertex 16.6161 13 47.999
    endloop
  endfacet
  facet normal 0 1 -0
    outer loop
      vertex 13.2519 13 49.4634
      vertex 10.25 13 58.999
      vertex 13.6501 13 49.4976
    endloop
  endfacet
  facet normal 0 1 -0
    outer loop
      vertex 12.8602 13 49.384
      vertex 10.25 13 58.999
      vertex 13.2519 13 49.4634
    endloop
  endfacet
  facet normal 0 1 -0
    outer loop
      vertex 12.4802 13 49.2605
      vertex 10.25 13 58.999
      vertex 12.8602 13 49.384
    endloop
  endfacet
  facet normal 0 1 -0
    outer loop
      vertex 12.1167 13 49.0945
      vertex 10.25 13 58.999
      vertex 12.4802 13 49.2605
    endloop
  endfacet
  facet normal 0 1 -0
    outer loop
      vertex 11.7744 13 48.8882
      vertex 10.25 13 58.999
      vertex 12.1167 13 49.0945
    endloop
  endfacet
  facet normal 0 1 0
    outer loop
      vertex 10.25 13 47.999
      vertex 11.7744 13 48.8882
      vertex 11.458 13 48.6441
    endloop
  endfacet
  facet normal 0 1 0
    outer loop
      vertex 10.25 13 47.999
      vertex 11.458 13 48.6441
      vertex 11.1714 13 48.3656
    endloop
  endfacet
  facet normal 0 1 0
    outer loop
      vertex 10.25 13 47.999
      vertex 11.1714 13 48.3656
      vertex 10.9184 13 48.0562
    endloop
  endfacet
  facet normal 0 1 0
    outer loop
      vertex 10.25 13 47.999
      vertex 10.9184 13 48.0562
      vertex 10.8816 13 47.999
    endloop
  endfacet
  facet normal 0 1 0
    outer loop
      vertex 11.7744 13 48.8882
      vertex 10.25 13 47.999
      vertex 10.25 13 58.999
    endloop
  endfacet
  facet normal 0 0 -1
    outer loop
      vertex 10.25 6 47.999
      vertex 10.8816 13 47.999
      vertex 10.8816 6 47.999
    endloop
  endfacet
  facet normal -0 0 -1
    outer loop
      vertex 10.8816 13 47.999
      vertex 10.25 6 47.999
      vertex 10.25 13 47.999
    endloop
  endfacet
  facet normal 0 0 -1
    outer loop
      vertex 16.6161 6 47.999
      vertex 17.25 13 47.999
      vertex 17.25 6 47.999
    endloop
  endfacet
  facet normal -0 0 -1
    outer loop
      vertex 17.25 13 47.999
      vertex 16.6161 6 47.999
      vertex 16.6161 13 47.999
    endloop
  endfacet
  facet normal 0 -1 0
    outer loop
      vertex 10.25 6 64.999
      vertex 13.6501 6 49.4976
      vertex 17.25 6 64.999
    endloop
  endfacet
  facet normal 0 -1 0
    outer loop
      vertex 10.25 6 64.999
      vertex 13.2519 6 49.4634
      vertex 13.6501 6 49.4976
    endloop
  endfacet
  facet normal 0 -1 0
    outer loop
      vertex 10.25 6 64.999
      vertex 12.8602 6 49.384
      vertex 13.2519 6 49.4634
    endloop
  endfacet
  facet normal 0 -1 0
    outer loop
      vertex 10.25 6 64.999
      vertex 12.4802 6 49.2605
      vertex 12.8602 6 49.384
    endloop
  endfacet
  facet normal 0 -1 0
    outer loop
      vertex 10.25 6 64.999
      vertex 12.1167 6 49.0945
      vertex 12.4802 6 49.2605
    endloop
  endfacet
  facet normal 0 -1 0
    outer loop
      vertex 10.25 6 64.999
      vertex 11.7744 6 48.8882
      vertex 12.1167 6 49.0945
    endloop
  endfacet
  facet normal 0 -1 0
    outer loop
      vertex 10.25 6 47.999
      vertex 11.7744 6 48.8882
      vertex 10.25 6 64.999
    endloop
  endfacet
  facet normal 0 -1 0
    outer loop
      vertex 11.7744 6 48.8882
      vertex 10.25 6 47.999
      vertex 11.458 6 48.6441
    endloop
  endfacet
  facet normal 0 -1 0
    outer loop
      vertex 11.458 6 48.6441
      vertex 10.25 6 47.999
      vertex 11.1714 6 48.3656
    endloop
  endfacet
  facet normal 0 -1 0
    outer loop
      vertex 11.1714 6 48.3656
      vertex 10.25 6 47.999
      vertex 10.9184 6 48.0562
    endloop
  endfacet
  facet normal 0 -1 0
    outer loop
      vertex 10.9184 6 48.0562
      vertex 10.25 6 47.999
      vertex 10.8816 6 47.999
    endloop
  endfacet
  facet normal 0 -1 0
    outer loop
      vertex 14.0495 6 49.4862
      vertex 17.25 6 64.999
      vertex 13.6501 6 49.4976
    endloop
  endfacet
  facet normal 0 -1 0
    outer loop
      vertex 14.4451 6 49.4293
      vertex 17.25 6 64.999
      vertex 14.0495 6 49.4862
    endloop
  endfacet
  facet normal 0 -1 0
    outer loop
      vertex 14.8316 6 49.3277
      vertex 17.25 6 64.999
      vertex 14.4451 6 49.4293
    endloop
  endfacet
  facet normal 0 -1 0
    outer loop
      vertex 15.204 6 49.1827
      vertex 17.25 6 64.999
      vertex 14.8316 6 49.3277
    endloop
  endfacet
  facet normal 0 -1 0
    outer loop
      vertex 15.5574 6 48.9962
      vertex 17.25 6 64.999
      vertex 15.204 6 49.1827
    endloop
  endfacet
  facet normal 0 -1 0
    outer loop
      vertex 15.8873 6 48.7707
      vertex 17.25 6 64.999
      vertex 15.5574 6 48.9962
    endloop
  endfacet
  facet normal 0 -1 0
    outer loop
      vertex 17.25 6 47.999
      vertex 15.8873 6 48.7707
      vertex 16.1893 6 48.509
    endloop
  endfacet
  facet normal 0 -1 0
    outer loop
      vertex 17.25 6 47.999
      vertex 16.1893 6 48.509
      vertex 16.4595 6 48.2145
    endloop
  endfacet
  facet normal 0 -1 0
    outer loop
      vertex 17.25 6 47.999
      vertex 16.4595 6 48.2145
      vertex 16.6161 6 47.999
    endloop
  endfacet
  facet normal 0 -1 0
    outer loop
      vertex 15.8873 6 48.7707
      vertex 17.25 6 47.999
      vertex 17.25 6 64.999
    endloop
  endfacet
  facet normal -0.0285312 0 -0.999593
    outer loop
      vertex 13.6501 6 49.4976
      vertex 14.0495 13 49.4862
      vertex 14.0495 6 49.4862
    endloop
  endfacet
  facet normal -0.0285312 0 -0.999593
    outer loop
      vertex 14.0495 13 49.4862
      vertex 13.6501 6 49.4976
      vertex 13.6501 13 49.4976
    endloop
  endfacet
  facet normal -0.736853 0 -0.676053
    outer loop
      vertex 16.4595 6 48.2145
      vertex 16.1893 13 48.509
      vertex 16.4595 13 48.2145
    endloop
  endfacet
  facet normal -0.736853 -0 -0.676053
    outer loop
      vertex 16.1893 13 48.509
      vertex 16.4595 6 48.2145
      vertex 16.1893 6 48.509
    endloop
  endfacet
  facet normal 0.6969 0 -0.717169
    outer loop
      vertex 11.1714 6 48.3656
      vertex 11.458 13 48.6441
      vertex 11.458 6 48.6441
    endloop
  endfacet
  facet normal 0.6969 0 -0.717169
    outer loop
      vertex 11.458 13 48.6441
      vertex 11.1714 6 48.3656
      vertex 11.1714 13 48.3656
    endloop
  endfacet
  facet normal 0.415405 0 -0.909637
    outer loop
      vertex 12.1167 6 49.0945
      vertex 12.4802 13 49.2605
      vertex 12.4802 6 49.2605
    endloop
  endfacet
  facet normal 0.415405 0 -0.909637
    outer loop
      vertex 12.4802 13 49.2605
      vertex 12.1167 6 49.0945
      vertex 12.1167 13 49.0945
    endloop
  endfacet
  facet normal -0.362833 0 -0.931854
    outer loop
      vertex 14.8316 6 49.3277
      vertex 15.204 13 49.1827
      vertex 15.204 6 49.1827
    endloop
  endfacet
  facet normal -0.362833 0 -0.931854
    outer loop
      vertex 15.204 13 49.1827
      vertex 14.8316 6 49.3277
      vertex 14.8316 13 49.3277
    endloop
  endfacet
  facet normal -0.564307 0 -0.825565
    outer loop
      vertex 15.5574 6 48.9962
      vertex 15.8873 13 48.7707
      vertex 15.8873 6 48.7707
    endloop
  endfacet
  facet normal -0.564307 0 -0.825565
    outer loop
      vertex 15.8873 13 48.7707
      vertex 15.5574 6 48.9962
      vertex 15.5574 13 48.9962
    endloop
  endfacet
  facet normal 0.840987 0 -0.541055
    outer loop
      vertex 10.9184 6 48.0562
      vertex 10.8816 13 47.999
      vertex 10.9184 13 48.0562
    endloop
  endfacet
  facet normal 0.840987 0 -0.541055
    outer loop
      vertex 10.8816 13 47.999
      vertex 10.9184 6 48.0562
      vertex 10.8816 6 47.999
    endloop
  endfacet
  facet normal 0.610835 0 -0.791758
    outer loop
      vertex 11.458 6 48.6441
      vertex 11.7744 13 48.8882
      vertex 11.7744 6 48.8882
    endloop
  endfacet
  facet normal 0.610835 0 -0.791758
    outer loop
      vertex 11.7744 13 48.8882
      vertex 11.458 6 48.6441
      vertex 11.458 13 48.6441
    endloop
  endfacet
  facet normal 0.198666 0 -0.980067
    outer loop
      vertex 12.8602 6 49.384
      vertex 13.2519 13 49.4634
      vertex 13.2519 6 49.4634
    endloop
  endfacet
  facet normal 0.198666 0 -0.980067
    outer loop
      vertex 13.2519 13 49.4634
      vertex 12.8602 6 49.384
      vertex 12.8602 13 49.384
    endloop
  endfacet
  facet normal -0.654883 0 -0.75573
    outer loop
      vertex 15.8873 6 48.7707
      vertex 16.1893 13 48.509
      vertex 16.1893 6 48.509
    endloop
  endfacet
  facet normal -0.654883 0 -0.75573
    outer loop
      vertex 16.1893 13 48.509
      vertex 15.8873 6 48.7707
      vertex 15.8873 13 48.7707
    endloop
  endfacet
  facet normal 0.0855715 0 -0.996332
    outer loop
      vertex 13.2519 6 49.4634
      vertex 13.6501 13 49.4976
      vertex 13.6501 6 49.4976
    endloop
  endfacet
  facet normal 0.0855715 0 -0.996332
    outer loop
      vertex 13.6501 13 49.4976
      vertex 13.2519 6 49.4634
      vertex 13.2519 13 49.4634
    endloop
  endfacet
  facet normal -0.808963 0 -0.587859
    outer loop
      vertex 16.6161 6 47.999
      vertex 16.4595 13 48.2145
      vertex 16.6161 13 47.999
    endloop
  endfacet
  facet normal -0.808963 -0 -0.587859
    outer loop
      vertex 16.4595 13 48.2145
      vertex 16.6161 6 47.999
      vertex 16.4595 6 48.2145
    endloop
  endfacet
  facet normal -0.254235 0 -0.967143
    outer loop
      vertex 14.4451 6 49.4293
      vertex 14.8316 13 49.3277
      vertex 14.8316 6 49.3277
    endloop
  endfacet
  facet normal -0.254235 0 -0.967143
    outer loop
      vertex 14.8316 13 49.3277
      vertex 14.4451 6 49.4293
      vertex 14.4451 13 49.4293
    endloop
  endfacet
  facet normal -0.142367 0 -0.989814
    outer loop
      vertex 14.0495 6 49.4862
      vertex 14.4451 13 49.4293
      vertex 14.4451 6 49.4293
    endloop
  endfacet
  facet normal -0.142367 0 -0.989814
    outer loop
      vertex 14.4451 13 49.4293
      vertex 14.0495 6 49.4862
      vertex 14.0495 13 49.4862
    endloop
  endfacet
  facet normal -0.466726 0 -0.884402
    outer loop
      vertex 15.204 6 49.1827
      vertex 15.5574 13 48.9962
      vertex 15.5574 6 48.9962
    endloop
  endfacet
  facet normal -0.466726 0 -0.884402
    outer loop
      vertex 15.5574 13 48.9962
      vertex 15.204 6 49.1827
      vertex 15.204 13 49.1827
    endloop
  endfacet
  facet normal 0.774136 0 -0.63302
    outer loop
      vertex 11.1714 6 48.3656
      vertex 10.9184 13 48.0562
      vertex 11.1714 13 48.3656
    endloop
  endfacet
  facet normal 0.774136 0 -0.63302
    outer loop
      vertex 10.9184 13 48.0562
      vertex 11.1714 6 48.3656
      vertex 10.9184 6 48.0562
    endloop
  endfacet
  facet normal 0.516187 0 -0.856476
    outer loop
      vertex 11.7744 6 48.8882
      vertex 12.1167 13 49.0945
      vertex 12.1167 6 49.0945
    endloop
  endfacet
  facet normal 0.516187 0 -0.856476
    outer loop
      vertex 12.1167 13 49.0945
      vertex 11.7744 6 48.8882
      vertex 11.7744 13 48.8882
    endloop
  endfacet
  facet normal 0.309086 0 -0.951034
    outer loop
      vertex 12.4802 6 49.2605
      vertex 12.8602 13 49.384
      vertex 12.8602 6 49.384
    endloop
  endfacet
  facet normal 0.309086 0 -0.951034
    outer loop
      vertex 12.8602 13 49.384
      vertex 12.4802 6 49.2605
      vertex 12.4802 13 49.2605
    endloop
  endfacet
  facet normal 0 1 0
    outer loop
      vertex 24.4998 13 65
      vertex 17.501 13 59.3343
      vertex 17.501 13 65
    endloop
  endfacet
  facet normal -1 0 0
    outer loop
      vertex 17.501 6 59.3343
      vertex 17.501 13 65
      vertex 17.501 13 59.3343
    endloop
  endfacet
  facet normal -1 -0 0
    outer loop
      vertex 17.501 13 65
      vertex 17.501 6 59.3343
      vertex 17.501 6 65
    endloop
  endfacet
  facet normal 0.629199 0 -0.777245
    outer loop
      vertex 17.501 6 59.3343
      vertex 24.4998 13 65
      vertex 24.4998 6 65
    endloop
  endfacet
  facet normal 0.629199 0 -0.777245
    outer loop
      vertex 24.4998 13 65
      vertex 17.501 6 59.3343
      vertex 17.501 13 59.3343
    endloop
  endfacet
  facet normal 0 -1 0
    outer loop
      vertex 17.501 6 65
      vertex 17.501 6 59.3343
      vertex 24.4998 6 65
    endloop
  endfacet
  facet normal -0 0 1
    outer loop
      vertex 3 13.01 64.999
      vertex 9.999 6 64.999
      vertex 9.999 13.01 64.999
    endloop
  endfacet
  facet normal 0 0 1
    outer loop
      vertex 9.999 6 64.999
      vertex 3 13.01 64.999
      vertex 3 6 64.999
    endloop
  endfacet
  facet normal 0 -1 0
    outer loop
      vertex 3 6 64.9982
      vertex 9.999 6 64.999
      vertex 3 6 64.999
    endloop
  endfacet
  facet normal 0 -1 -0
    outer loop
      vertex 9.999 6 64.999
      vertex 3 6 64.9982
      vertex 9.999 6 59.3323
    endloop
  endfacet
  facet normal -0.629201 0 -0.777243
    outer loop
      vertex 3 6 64.9982
      vertex 9.999 13.01 59.3323
      vertex 9.999 6 59.3323
    endloop
  endfacet
  facet normal -0.629201 0 -0.777243
    outer loop
      vertex 9.999 13.01 59.3323
      vertex 3 6 64.9982
      vertex 3 13.01 64.9982
    endloop
  endfacet
  facet normal 1 -0 0
    outer loop
      vertex 9.999 6 64.999
      vertex 9.999 13.01 59.3323
      vertex 9.999 13.01 64.999
    endloop
  endfacet
  facet normal 1 0 0
    outer loop
      vertex 9.999 13.01 59.3323
      vertex 9.999 6 64.999
      vertex 9.999 6 59.3323
    endloop
  endfacet
  facet normal 0 1 0
    outer loop
      vertex 9.999 13.01 64.999
      vertex 3 13.01 64.9982
      vertex 3 13.01 64.999
    endloop
  endfacet
  facet normal -0 1 0
    outer loop
      vertex 3 13.01 64.9982
      vertex 9.999 13.01 64.999
      vertex 9.999 13.01 59.3323
    endloop
  endfacet
  facet normal 0 0.777242 -0.629202
    outer loop
      vertex 17.25 13 58.999
      vertex 10.24 17.858 65
      vertex 17.25 17.858 65
    endloop
  endfacet
  facet normal 0 0.777242 -0.629202
    outer loop
      vertex 10.25 13 58.999
      vertex 10.24 17.858 65
      vertex 17.25 13 58.999
    endloop
  endfacet
  facet normal 0 0.777242 -0.629202
    outer loop
      vertex 10.24 17.858 65
      vertex 10.25 13 58.999
      vertex 10.24 13 58.999
    endloop
  endfacet
  facet normal -1 -0 0
    outer loop
      vertex 10.24 17.858 65
      vertex 10.24 13 58.999
      vertex 10.24 13 65
    endloop
  endfacet
  facet normal 0 0 -1
    outer loop
      vertex 0 19 67.999
      vertex 27.5 19.001 67.999
      vertex 27.5 19 67.999
    endloop
  endfacet
  facet normal -0 0 -1
    outer loop
      vertex 27.5 19.001 67.999
      vertex 0 19 67.999
      vertex 0 19.001 67.999
    endloop
  endfacet
  facet normal 0 -0.221621 0.975133
    outer loop
      vertex 0 19.001 72.999
      vertex 27.5 -2.999 67.999
      vertex 27.5 19.001 72.999
    endloop
  endfacet
  facet normal 0 -0.221621 0.975133
    outer loop
      vertex 27.5 -2.999 67.999
      vertex 0 19.001 72.999
      vertex 0 -2.999 67.999
    endloop
  endfacet
  facet normal 0 1 -0
    outer loop
      vertex 27.5 19.001 67.999
      vertex 0 19.001 72.999
      vertex 27.5 19.001 72.999
    endloop
  endfacet
  facet normal 0 1 0
    outer loop
      vertex 0 19.001 72.999
      vertex 27.5 19.001 67.999
      vertex 0 19.001 67.999
    endloop
  endfacet
  facet normal 0 -0.957827 -0.287347
    outer loop
      vertex 0 0 58.0023
      vertex 27.5 -2.999 67.999
      vertex 0 -2.999 67.999
    endloop
  endfacet
  facet normal 0 -0.957827 -0.287347
    outer loop
      vertex 27.5 -2.999 67.999
      vertex 0 0 58.0023
      vertex 27.5 0 58.0023
    endloop
  endfacet
endsolid OpenSCAD_Model
