solid OpenSCAD_Model
  facet normal 0 1 -0
    outer loop
      vertex 27.5 40.5 -0.5
      vertex 0 40.5 20.4813
      vertex 27.5 40.5 20.4813
    endloop
  endfacet
  facet normal 0 1 0
    outer loop
      vertex 0 40.5 20.4813
      vertex 27.5 40.5 -0.5
      vertex 0 40.5 -0.5
    endloop
  endfacet
  facet normal -0.980787 0.195084 0
    outer loop
      vertex -1 39.5 -0.5
      vertex -0.923879 39.8827 21.2714
      vertex -0.923879 39.8827 -0.5
    endloop
  endfacet
  facet normal -0.980787 0.195084 0
    outer loop
      vertex -0.923879 39.8827 21.2714
      vertex -1 39.5 -0.5
      vertex -1 39.5 21.7612
    endloop
  endfacet
  facet normal -0 0 1
    outer loop
      vertex -1 19 68
      vertex -0.382683 18.9249 68
      vertex -0.00502451 19 68
    endloop
  endfacet
  facet normal 0 0 1
    outer loop
      vertex -1 19 68
      vertex -0.707107 18.7081 68
      vertex -0.382683 18.9249 68
    endloop
  endfacet
  facet normal 0 0 1
    outer loop
      vertex -1 19 68
      vertex -0.923879 18.3837 68
      vertex -0.707107 18.7081 68
    endloop
  endfacet
  facet normal 0 0 1
    outer loop
      vertex -0.923879 18.3837 68
      vertex -1 19 68
      vertex -1 18.001 68
    endloop
  endfacet
  facet normal 0 0 1
    outer loop
      vertex 28.5 19 68
      vertex 28.4239 18.3837 68
      vertex 28.5 18.001 68
    endloop
  endfacet
  facet normal 0 0 1
    outer loop
      vertex 28.5 19 68
      vertex 28.2071 18.7081 68
      vertex 28.4239 18.3837 68
    endloop
  endfacet
  facet normal 0 0 1
    outer loop
      vertex 28.5 19 68
      vertex 27.8827 18.9249 68
      vertex 28.2071 18.7081 68
    endloop
  endfacet
  facet normal 0 -0 1
    outer loop
      vertex 27.8827 18.9249 68
      vertex 28.5 19 68
      vertex 27.505 19 68
    endloop
  endfacet
  facet normal -0.19504 0.980795 0
    outer loop
      vertex -0.382683 40.4239 -0.5
      vertex 0 40.5 20.4813
      vertex 0 40.5 -0.5
    endloop
  endfacet
  facet normal -0.19504 0.980795 0
    outer loop
      vertex 0 40.5 20.4813
      vertex -0.382683 40.4239 -0.5
      vertex -0.382683 40.4239 20.5787
    endloop
  endfacet
  facet normal 0.980797 0.195032 -0
    outer loop
      vertex 28.5 39.5 -0.5
      vertex 28.4239 39.8827 21.2714
      vertex 28.5 39.5 21.7612
    endloop
  endfacet
  facet normal 0.980797 0.195032 0
    outer loop
      vertex 28.4239 39.8827 21.2714
      vertex 28.5 39.5 -0.5
      vertex 28.4239 39.8827 -0.5
    endloop
  endfacet
  facet normal 1 0 0
    outer loop
      vertex 28.5 -2.999 67.999
      vertex 28.5 18.001 68
      vertex 28.5 18.001 72.999
    endloop
  endfacet
  facet normal 1 0 0
    outer loop
      vertex 28.5 18.001 68
      vertex 28.5 -2.999 67.999
      vertex 28.5 -2.999 66.999
    endloop
  endfacet
  facet normal 1 0 0
    outer loop
      vertex 28.5 18.001 68
      vertex 28.5 -2.999 66.999
      vertex 28.5 0 57.0023
    endloop
  endfacet
  facet normal 1 0 0
    outer loop
      vertex 28.5 19 68
      vertex 28.5 18.001 68
      vertex 28.5 19 48
    endloop
  endfacet
  facet normal 1 0 0
    outer loop
      vertex 28.5 0 -0.5
      vertex 28.5 39.5 21.7612
      vertex 28.5 19 48
    endloop
  endfacet
  facet normal 1 -0 0
    outer loop
      vertex 28.5 0 57.0023
      vertex 28.5 19 48
      vertex 28.5 18.001 68
    endloop
  endfacet
  facet normal 1 0 0
    outer loop
      vertex 28.5 0 -0.5
      vertex 28.5 19 48
      vertex 28.5 0 57.0023
    endloop
  endfacet
  facet normal 1 0 0
    outer loop
      vertex 28.5 39.5 21.7612
      vertex 28.5 0 -0.5
      vertex 28.5 39.5 -0.5
    endloop
  endfacet
  facet normal -0.831452 0.555597 0
    outer loop
      vertex -0.923879 39.8827 -0.5
      vertex -0.707107 40.2071 20.8561
      vertex -0.707107 40.2071 -0.5
    endloop
  endfacet
  facet normal -0.831452 0.555597 0
    outer loop
      vertex -0.707107 40.2071 20.8561
      vertex -0.923879 39.8827 -0.5
      vertex -0.923879 39.8827 21.2714
    endloop
  endfacet
  facet normal -0.555618 0.831438 0
    outer loop
      vertex -0.707107 40.2071 -0.5
      vertex -0.382683 40.4239 20.5787
      vertex -0.382683 40.4239 -0.5
    endloop
  endfacet
  facet normal -0.555618 0.831438 0
    outer loop
      vertex -0.382683 40.4239 20.5787
      vertex -0.707107 40.2071 -0.5
      vertex -0.707107 40.2071 20.8561
    endloop
  endfacet
  facet normal 0.831419 0.555646 -0
    outer loop
      vertex 28.4239 39.8827 -0.5
      vertex 28.2071 40.2071 20.8561
      vertex 28.4239 39.8827 21.2714
    endloop
  endfacet
  facet normal 0.831419 0.555646 0
    outer loop
      vertex 28.2071 40.2071 20.8561
      vertex 28.4239 39.8827 -0.5
      vertex 28.2071 40.2071 -0.5
    endloop
  endfacet
  facet normal 0.195084 -0.980787 0
    outer loop
      vertex 27.5 -1 -0.5
      vertex 27.8827 -0.923879 57.0023
      vertex 27.5 -1 57.0023
    endloop
  endfacet
  facet normal 0.195084 -0.980787 0
    outer loop
      vertex 27.8827 -0.923879 57.0023
      vertex 27.5 -1 -0.5
      vertex 27.8827 -0.923879 -0.5
    endloop
  endfacet
  facet normal -1 0 0
    outer loop
      vertex -1 0 -0.5
      vertex -1 39.5 21.7612
      vertex -1 39.5 -0.5
    endloop
  endfacet
  facet normal -1 0 0
    outer loop
      vertex -1 19 48
      vertex -1 18.001 68
      vertex -1 19 68
    endloop
  endfacet
  facet normal -1 -0 0
    outer loop
      vertex -1 39.5 21.7612
      vertex -1 0 -0.5
      vertex -1 19 48
    endloop
  endfacet
  facet normal -1 0 0
    outer loop
      vertex -1 0 57.0023
      vertex -1 19 48
      vertex -1 0 -0.5
    endloop
  endfacet
  facet normal -1 0 0
    outer loop
      vertex -1 19 48
      vertex -1 0 57.0023
      vertex -1 18.001 68
    endloop
  endfacet
  facet normal -1 0 0
    outer loop
      vertex -1 -2.999 66.999
      vertex -1 18.001 68
      vertex -1 0 57.0023
    endloop
  endfacet
  facet normal -1 0 0
    outer loop
      vertex -1 -2.999 67.999
      vertex -1 18.001 68
      vertex -1 -2.999 66.999
    endloop
  endfacet
  facet normal -1 -0 0
    outer loop
      vertex -1 18.001 68
      vertex -1 -2.999 67.999
      vertex -1 18.001 72.999
    endloop
  endfacet
  facet normal 0 0 -1
    outer loop
      vertex 8.75 34.5 -0.5
      vertex 2.5 34.5 -0.5
      vertex 8.75 37 -0.5
    endloop
  endfacet
  facet normal 0 0 -1
    outer loop
      vertex 27.5 -1 -0.5
      vertex 28.5 0 -0.5
      vertex 28.4239 -0.382683 -0.5
    endloop
  endfacet
  facet normal 0 0 -1
    outer loop
      vertex 28.5 0 -0.5
      vertex 25 34.5 -0.5
      vertex 28.5 39.5 -0.5
    endloop
  endfacet
  facet normal 0 0 -1
    outer loop
      vertex 27.5 -1 -0.5
      vertex 28.4239 -0.382683 -0.5
      vertex 28.2071 -0.707107 -0.5
    endloop
  endfacet
  facet normal 0 -0 -1
    outer loop
      vertex 27.5 40.5 -0.5
      vertex 28.5 39.5 -0.5
      vertex 25 34.5 -0.5
    endloop
  endfacet
  facet normal 0 0 -1
    outer loop
      vertex 27.5 -1 -0.5
      vertex 28.2071 -0.707107 -0.5
      vertex 27.8827 -0.923879 -0.5
    endloop
  endfacet
  facet normal 0 0 -1
    outer loop
      vertex 28.5 39.5 -0.5
      vertex 27.5 40.5 -0.5
      vertex 28.4239 39.8827 -0.5
    endloop
  endfacet
  facet normal -0 0 -1
    outer loop
      vertex 28.5 0 -0.5
      vertex 27.5 -1 -0.5
      vertex 25 2.5 -0.5
    endloop
  endfacet
  facet normal 0 0 -1
    outer loop
      vertex 28.4239 39.8827 -0.5
      vertex 27.5 40.5 -0.5
      vertex 28.2071 40.2071 -0.5
    endloop
  endfacet
  facet normal 0 0 -1
    outer loop
      vertex 28.5 0 -0.5
      vertex 25 2.5 -0.5
      vertex 25 34.5 -0.5
    endloop
  endfacet
  facet normal 0 0 -1
    outer loop
      vertex 27.5 -1 -0.5
      vertex 2.5 2.5 -0.5
      vertex 25 2.5 -0.5
    endloop
  endfacet
  facet normal 0 0 -1
    outer loop
      vertex -1 0 -0.5
      vertex 2.5 2.5 -0.5
      vertex 0 -1 -0.5
    endloop
  endfacet
  facet normal 0 0 -1
    outer loop
      vertex 0 -1 -0.5
      vertex 2.5 2.5 -0.5
      vertex 27.5 -1 -0.5
    endloop
  endfacet
  facet normal 0 0 -1
    outer loop
      vertex 28.2071 40.2071 -0.5
      vertex 27.5 40.5 -0.5
      vertex 27.8827 40.4239 -0.5
    endloop
  endfacet
  facet normal 0 0 -1
    outer loop
      vertex 18.75 37 -0.5
      vertex 25 34.5 -0.5
      vertex 18.75 34.5 -0.5
    endloop
  endfacet
  facet normal 0 0 -1
    outer loop
      vertex 25 34.5 -0.5
      vertex 18.75 37 -0.5
      vertex 27.5 40.5 -0.5
    endloop
  endfacet
  facet normal 0 0 -1
    outer loop
      vertex 8.75 37 -0.5
      vertex 27.5 40.5 -0.5
      vertex 18.75 37 -0.5
    endloop
  endfacet
  facet normal 0 0 -1
    outer loop
      vertex 8.75 37 -0.5
      vertex 0 40.5 -0.5
      vertex 27.5 40.5 -0.5
    endloop
  endfacet
  facet normal 0 0 -1
    outer loop
      vertex 2.5 34.5 -0.5
      vertex 0 40.5 -0.5
      vertex 8.75 37 -0.5
    endloop
  endfacet
  facet normal -0 0 -1
    outer loop
      vertex 2.5 2.5 -0.5
      vertex -1 0 -0.5
      vertex 2.5 34.5 -0.5
    endloop
  endfacet
  facet normal 0 0 -1
    outer loop
      vertex -1 0 -0.5
      vertex 0 -1 -0.5
      vertex -0.382683 -0.923879 -0.5
    endloop
  endfacet
  facet normal 0 0 -1
    outer loop
      vertex -1 39.5 -0.5
      vertex 2.5 34.5 -0.5
      vertex -1 0 -0.5
    endloop
  endfacet
  facet normal 0 0 -1
    outer loop
      vertex -1 0 -0.5
      vertex -0.382683 -0.923879 -0.5
      vertex -0.707107 -0.707107 -0.5
    endloop
  endfacet
  facet normal 0 0 -1
    outer loop
      vertex 2.5 34.5 -0.5
      vertex -1 39.5 -0.5
      vertex 0 40.5 -0.5
    endloop
  endfacet
  facet normal 0 0 -1
    outer loop
      vertex -1 0 -0.5
      vertex -0.707107 -0.707107 -0.5
      vertex -0.923879 -0.382683 -0.5
    endloop
  endfacet
  facet normal 0 0 -1
    outer loop
      vertex 0 40.5 -0.5
      vertex -1 39.5 -0.5
      vertex -0.382683 40.4239 -0.5
    endloop
  endfacet
  facet normal 0 0 -1
    outer loop
      vertex -0.382683 40.4239 -0.5
      vertex -1 39.5 -0.5
      vertex -0.707107 40.2071 -0.5
    endloop
  endfacet
  facet normal 0 0 -1
    outer loop
      vertex -0.707107 40.2071 -0.5
      vertex -1 39.5 -0.5
      vertex -0.923879 39.8827 -0.5
    endloop
  endfacet
  facet normal 0 -1 0
    outer loop
      vertex 0 -1 -0.5
      vertex 27.5 -1 57.0023
      vertex 0 -1 57.0023
    endloop
  endfacet
  facet normal 0 -1 -0
    outer loop
      vertex 27.5 -1 57.0023
      vertex 0 -1 -0.5
      vertex 27.5 -1 -0.5
    endloop
  endfacet
  facet normal 0.555646 0.831419 -0
    outer loop
      vertex 28.2071 40.2071 -0.5
      vertex 27.8827 40.4239 20.5787
      vertex 28.2071 40.2071 20.8561
    endloop
  endfacet
  facet normal 0.555646 0.831419 0
    outer loop
      vertex 27.8827 40.4239 20.5787
      vertex 28.2071 40.2071 -0.5
      vertex 27.8827 40.4239 -0.5
    endloop
  endfacet
  facet normal -0.981311 -0.192428 0
    outer loop
      vertex -1 0 -0.5
      vertex -0.999975 -0.000127491 57.0023
      vertex -1 0 57.0023
    endloop
  endfacet
  facet normal -0.980785 -0.195092 -6.13593e-09
    outer loop
      vertex -0.923879 -0.382683 -0.5
      vertex -0.999975 -0.000127491 57.0023
      vertex -1 0 -0.5
    endloop
  endfacet
  facet normal -0.980785 -0.195093 0
    outer loop
      vertex -0.999975 -0.000127491 57.0023
      vertex -0.923879 -0.382683 -0.5
      vertex -0.923879 -0.382683 57.0023
    endloop
  endfacet
  facet normal -0.555568 -0.831471 0
    outer loop
      vertex -0.707107 -0.707107 -0.5
      vertex -0.382683 -0.923879 57.0023
      vertex -0.707107 -0.707107 57.0023
    endloop
  endfacet
  facet normal -0.555568 -0.831471 -0
    outer loop
      vertex -0.382683 -0.923879 57.0023
      vertex -0.707107 -0.707107 -0.5
      vertex -0.382683 -0.923879 -0.5
    endloop
  endfacet
  facet normal 0.195032 0.980797 -0
    outer loop
      vertex 27.8827 40.4239 -0.5
      vertex 27.5 40.5 20.4813
      vertex 27.8827 40.4239 20.5787
    endloop
  endfacet
  facet normal 0.195032 0.980797 0
    outer loop
      vertex 27.5 40.5 20.4813
      vertex 27.8827 40.4239 -0.5
      vertex 27.5 40.5 -0.5
    endloop
  endfacet
  facet normal 0.831438 -0.555618 0
    outer loop
      vertex 28.2071 -0.707107 57.0023
      vertex 28.4239 -0.382683 -0.5
      vertex 28.4239 -0.382683 57.0023
    endloop
  endfacet
  facet normal 0.831438 -0.555618 0
    outer loop
      vertex 28.4239 -0.382683 -0.5
      vertex 28.2071 -0.707107 57.0023
      vertex 28.2071 -0.707107 -0.5
    endloop
  endfacet
  facet normal 1 -0 0
    outer loop
      vertex 28.5 -0.000127491 57.0023
      vertex 28.5 0 -0.5
      vertex 28.5 0 57.0023
    endloop
  endfacet
  facet normal 0.980783 -0.195103 -4.32571e-07
    outer loop
      vertex 28.4239 -0.382683 57.0023
      vertex 28.5 0 -0.5
      vertex 28.5 -0.000127491 57.0023
    endloop
  endfacet
  facet normal 0.980795 -0.19504 0
    outer loop
      vertex 28.5 0 -0.5
      vertex 28.4239 -0.382683 57.0023
      vertex 28.4239 -0.382683 -0.5
    endloop
  endfacet
  facet normal 0.555597 -0.831452 0
    outer loop
      vertex 27.8827 -0.923879 -0.5
      vertex 28.2071 -0.707107 57.0023
      vertex 27.8827 -0.923879 57.0023
    endloop
  endfacet
  facet normal 0.555597 -0.831452 0
    outer loop
      vertex 28.2071 -0.707107 57.0023
      vertex 27.8827 -0.923879 -0.5
      vertex 28.2071 -0.707107 -0.5
    endloop
  endfacet
  facet normal -0.195092 -0.980785 0
    outer loop
      vertex -0.382683 -0.923879 -0.5
      vertex 0 -1 57.0023
      vertex -0.382683 -0.923879 57.0023
    endloop
  endfacet
  facet normal -0.195092 -0.980785 -0
    outer loop
      vertex 0 -1 57.0023
      vertex -0.382683 -0.923879 -0.5
      vertex 0 -1 -0.5
    endloop
  endfacet
  facet normal -0.831471 -0.555568 0
    outer loop
      vertex -0.707107 -0.707107 -0.5
      vertex -0.923879 -0.382683 57.0023
      vertex -0.923879 -0.382683 -0.5
    endloop
  endfacet
  facet normal -0.831471 -0.555568 0
    outer loop
      vertex -0.923879 -0.382683 57.0023
      vertex -0.707107 -0.707107 -0.5
      vertex -0.707107 -0.707107 57.0023
    endloop
  endfacet
  facet normal 1 0 0
    outer loop
      vertex 2.5 19 65
      vertex 2.5 2.5 65
      vertex 2.5 19 48
    endloop
  endfacet
  facet normal 1 0 0
    outer loop
      vertex 2.5 2.5 -0.5
      vertex 2.5 34.5 28.1609
      vertex 2.5 19 48
    endloop
  endfacet
  facet normal 1 0 0
    outer loop
      vertex 2.5 2.5 -0.5
      vertex 2.5 19 48
      vertex 2.5 2.5 65
    endloop
  endfacet
  facet normal 1 0 0
    outer loop
      vertex 2.5 34.5 28.1609
      vertex 2.5 2.5 -0.5
      vertex 2.5 34.5 -0.5
    endloop
  endfacet
  facet normal 0 0 -1
    outer loop
      vertex 24 9.5 65
      vertex 25 2.5 65
      vertex 24 4.25 65
    endloop
  endfacet
  facet normal 0 0 -1
    outer loop
      vertex 25 2.5 65
      vertex 17.001 4.25 65
      vertex 24 4.25 65
    endloop
  endfacet
  facet normal 0 0 -1
    outer loop
      vertex 17.001 4.25 65
      vertex 10.24 8.75 65
      vertex 17.001 8.75 65
    endloop
  endfacet
  facet normal 0 0 -1
    outer loop
      vertex 2.5 19 65
      vertex 10.24 8.75 65
      vertex 2.5 2.5 65
    endloop
  endfacet
  facet normal -0 0 -1
    outer loop
      vertex 17.001 4.25 65
      vertex 2.5 2.5 65
      vertex 10.24 8.75 65
    endloop
  endfacet
  facet normal 0 0 -1
    outer loop
      vertex 2.5 2.5 65
      vertex 17.001 4.25 65
      vertex 25 2.5 65
    endloop
  endfacet
  facet normal 0 0 -1
    outer loop
      vertex 25 2.5 65
      vertex 24 9.5 65
      vertex 25 19 65
    endloop
  endfacet
  facet normal 0 0 -1
    outer loop
      vertex 17.25 13.5129 65
      vertex 24 9.5 65
      vertex 17.25 9.5 65
    endloop
  endfacet
  facet normal 0 0 -1
    outer loop
      vertex 24 9.5 65
      vertex 17.25 13.5129 65
      vertex 25 19 65
    endloop
  endfacet
  facet normal 0 0 -1
    outer loop
      vertex 10.24 13.5129 65
      vertex 25 19 65
      vertex 17.25 13.5129 65
    endloop
  endfacet
  facet normal 0 0 -1
    outer loop
      vertex 10.24 13.5129 65
      vertex 2.5 19 65
      vertex 25 19 65
    endloop
  endfacet
  facet normal 0 0 -1
    outer loop
      vertex 10.24 8.75 65
      vertex 2.5 19 65
      vertex 10.24 13.5129 65
    endloop
  endfacet
  facet normal -1 0 0
    outer loop
      vertex 25 2.5 -0.5
      vertex 25 34.5 28.1609
      vertex 25 34.5 -0.5
    endloop
  endfacet
  facet normal -1 -0 0
    outer loop
      vertex 25 34.5 28.1609
      vertex 25 2.5 -0.5
      vertex 25 19 48
    endloop
  endfacet
  facet normal -1 0 0
    outer loop
      vertex 25 2.5 65
      vertex 25 19 48
      vertex 25 2.5 -0.5
    endloop
  endfacet
  facet normal -1 0 0
    outer loop
      vertex 25 19 48
      vertex 25 2.5 65
      vertex 25 19 65
    endloop
  endfacet
  facet normal 0 1 -0
    outer loop
      vertex 25 2.5 -0.5
      vertex 2.5 2.5 65
      vertex 25 2.5 65
    endloop
  endfacet
  facet normal 0 1 0
    outer loop
      vertex 2.5 2.5 65
      vertex 25 2.5 -0.5
      vertex 2.5 2.5 -0.5
    endloop
  endfacet
  facet normal 0 -1 0
    outer loop
      vertex 2.5 34.5 -0.5
      vertex 8.75 34.5 28.1609
      vertex 2.5 34.5 28.1609
    endloop
  endfacet
  facet normal 0 -1 -0
    outer loop
      vertex 8.75 34.5 28.1609
      vertex 2.5 34.5 -0.5
      vertex 8.75 34.5 -0.5
    endloop
  endfacet
  facet normal 0 -1 0
    outer loop
      vertex 18.75 34.5 -0.5
      vertex 25 34.5 28.1609
      vertex 18.75 34.5 28.1609
    endloop
  endfacet
  facet normal 0 -1 -0
    outer loop
      vertex 25 34.5 28.1609
      vertex 18.75 34.5 -0.5
      vertex 25 34.5 -0.5
    endloop
  endfacet
  facet normal 0 0.788011 0.615661
    outer loop
      vertex 28.5 19 48
      vertex 25 34.5 28.1609
      vertex 25 19 48
    endloop
  endfacet
  facet normal 0 0.788006 0.615668
    outer loop
      vertex 25 34.5 28.1609
      vertex 18.75 37 24.9611
      vertex 18.75 34.5 28.1609
    endloop
  endfacet
  facet normal 2.81447e-06 0.788008 0.615665
    outer loop
      vertex 25 34.5 28.1609
      vertex 27.5 40.5 20.4813
      vertex 18.75 37 24.9611
    endloop
  endfacet
  facet normal 1.44863e-05 0.788007 0.615667
    outer loop
      vertex 27.5 40.5 20.4813
      vertex 25 34.5 28.1609
      vertex 28.5 39.5 21.7612
    endloop
  endfacet
  facet normal -1.2871e-06 0.788011 0.615662
    outer loop
      vertex 28.5 39.5 21.7612
      vertex 25 34.5 28.1609
      vertex 28.5 19 48
    endloop
  endfacet
  facet normal 0 0.788006 0.615668
    outer loop
      vertex 8.75 34.5 28.1609
      vertex 8.75 37 24.9611
      vertex 2.5 34.5 28.1609
    endloop
  endfacet
  facet normal 0 0.788011 0.615661
    outer loop
      vertex 2.5 34.5 28.1609
      vertex -1 19 48
      vertex 2.5 19 48
    endloop
  endfacet
  facet normal 1.2871e-06 0.788011 0.615662
    outer loop
      vertex 2.5 34.5 28.1609
      vertex -1 39.5 21.7612
      vertex -1 19 48
    endloop
  endfacet
  facet normal -2.81447e-06 0.788008 0.615665
    outer loop
      vertex 0 40.5 20.4813
      vertex 2.5 34.5 28.1609
      vertex 8.75 37 24.9611
    endloop
  endfacet
  facet normal 0 0.788011 0.615661
    outer loop
      vertex 18.75 37 24.9611
      vertex 27.5 40.5 20.4813
      vertex 8.75 37 24.9611
    endloop
  endfacet
  facet normal -3.56041e-05 0.787988 0.615691
    outer loop
      vertex 27.5 40.5 20.4813
      vertex 28.5 39.5 21.7612
      vertex 28.4239 39.8827 21.2714
    endloop
  endfacet
  facet normal -0 0.788011 0.615661
    outer loop
      vertex 0 40.5 20.4813
      vertex 8.75 37 24.9611
      vertex 27.5 40.5 20.4813
    endloop
  endfacet
  facet normal 0.000208718 0.788126 0.615514
    outer loop
      vertex 27.5 40.5 20.4813
      vertex 28.4239 39.8827 21.2714
      vertex 28.2071 40.2071 20.8561
    endloop
  endfacet
  facet normal -1.44863e-05 0.788007 0.615667
    outer loop
      vertex 2.5 34.5 28.1609
      vertex 0 40.5 20.4813
      vertex -1 39.5 21.7612
    endloop
  endfacet
  facet normal -6.53002e-05 0.787875 0.615835
    outer loop
      vertex 27.5 40.5 20.4813
      vertex 28.2071 40.2071 20.8561
      vertex 27.8827 40.4239 20.5787
    endloop
  endfacet
  facet normal 3.56065e-05 0.787988 0.615691
    outer loop
      vertex -1 39.5 21.7612
      vertex 0 40.5 20.4813
      vertex -0.923879 39.8827 21.2714
    endloop
  endfacet
  facet normal -0.000208705 0.788126 0.615514
    outer loop
      vertex -0.923879 39.8827 21.2714
      vertex 0 40.5 20.4813
      vertex -0.707107 40.2071 20.8561
    endloop
  endfacet
  facet normal 6.53064e-05 0.787875 0.615835
    outer loop
      vertex -0.707107 40.2071 20.8561
      vertex 0 40.5 20.4813
      vertex -0.382683 40.4239 20.5787
    endloop
  endfacet
  facet normal 0 1 0
    outer loop
      vertex 28.5 19 68
      vertex 27.505 19 66.999
      vertex 27.505 19 68
    endloop
  endfacet
  facet normal 0 1 0
    outer loop
      vertex 27.505 19 66.999
      vertex 25 19 65
      vertex -0.00502451 19 66.999
    endloop
  endfacet
  facet normal 0 1 -0
    outer loop
      vertex 28.5 19 48
      vertex 27.505 19 66.999
      vertex 28.5 19 68
    endloop
  endfacet
  facet normal 0 1 0
    outer loop
      vertex 28.5 19 48
      vertex 25 19 65
      vertex 27.505 19 66.999
    endloop
  endfacet
  facet normal 0 1 0
    outer loop
      vertex 25 19 65
      vertex 28.5 19 48
      vertex 25 19 48
    endloop
  endfacet
  facet normal 0 1 -0
    outer loop
      vertex -0.00502451 19 66.999
      vertex -1 19 68
      vertex -0.00502451 19 68
    endloop
  endfacet
  facet normal 0 1 -0
    outer loop
      vertex 2.5 19 65
      vertex -0.00502451 19 66.999
      vertex 25 19 65
    endloop
  endfacet
  facet normal 0 1 0
    outer loop
      vertex -1 19 48
      vertex 2.5 19 65
      vertex 2.5 19 48
    endloop
  endfacet
  facet normal 0 1 0
    outer loop
      vertex 2.5 19 65
      vertex -1 19 48
      vertex -0.00502451 19 66.999
    endloop
  endfacet
  facet normal 0 1 0
    outer loop
      vertex -0.00502451 19 66.999
      vertex -1 19 48
      vertex -1 19 68
    endloop
  endfacet
  facet normal 1 0 0
    outer loop
      vertex 8.75 34.5 -0.5
      vertex 8.75 37 24.9611
      vertex 8.75 34.5 28.1609
    endloop
  endfacet
  facet normal 1 0 0
    outer loop
      vertex 8.75 37 24.9611
      vertex 8.75 34.5 -0.5
      vertex 8.75 37 -0.5
    endloop
  endfacet
  facet normal -1 0 0
    outer loop
      vertex 18.75 34.5 -0.5
      vertex 18.75 37 24.9611
      vertex 18.75 37 -0.5
    endloop
  endfacet
  facet normal -1 -0 0
    outer loop
      vertex 18.75 37 24.9611
      vertex 18.75 34.5 -0.5
      vertex 18.75 34.5 28.1609
    endloop
  endfacet
  facet normal 0 -1 0
    outer loop
      vertex 8.75 37 -0.5
      vertex 18.75 37 24.9611
      vertex 8.75 37 24.9611
    endloop
  endfacet
  facet normal 0 -1 -0
    outer loop
      vertex 18.75 37 24.9611
      vertex 8.75 37 -0.5
      vertex 18.75 37 -0.5
    endloop
  endfacet
  facet normal 0.327467 -0.21885 0.919168
    outer loop
      vertex 28.2071 17.2939 72.999
      vertex 28.4239 -3.38168 67.999
      vertex 28.4239 17.6183 72.999
    endloop
  endfacet
  facet normal 0.327494 -0.218847 0.919159
    outer loop
      vertex 28.4239 -3.38168 67.999
      vertex 28.2071 17.2939 72.999
      vertex 28.2071 -3.70611 67.999
    endloop
  endfacet
  facet normal 0 -1 0
    outer loop
      vertex 0 -3.999 66.999
      vertex 27.5 -3.999 67.999
      vertex 0 -3.999 67.999
    endloop
  endfacet
  facet normal 0 -1 -0
    outer loop
      vertex 27.5 -3.999 67.999
      vertex 0 -3.999 66.999
      vertex 27.5 -3.999 66.999
    endloop
  endfacet
  facet normal 0.0460091 -0.231375 0.971776
    outer loop
      vertex 27.5 17.001 72.999
      vertex 27.8827 -3.92288 67.999
      vertex 27.8827 17.0771 72.999
    endloop
  endfacet
  facet normal 0.0460211 -0.231375 0.971775
    outer loop
      vertex 27.8827 -3.92288 67.999
      vertex 27.5 17.001 72.999
      vertex 27.5 -3.999 67.999
    endloop
  endfacet
  facet normal 0.831443 -0.555611 0
    outer loop
      vertex 28.2071 -3.70611 67.999
      vertex 28.4239 -3.38168 66.999
      vertex 28.4239 -3.38168 67.999
    endloop
  endfacet
  facet normal 0.831443 -0.555611 0
    outer loop
      vertex 28.4239 -3.38168 66.999
      vertex 28.2071 -3.70611 67.999
      vertex 28.2071 -3.70611 66.999
    endloop
  endfacet
  facet normal 0.980797 0.195032 0
    outer loop
      vertex 28.5 18.001 72.999
      vertex 28.4239 18.3837 68
      vertex 28.4239 18.3837 72.999
    endloop
  endfacet
  facet normal 0.980797 0.195032 0
    outer loop
      vertex 28.4239 18.3837 68
      vertex 28.5 18.001 72.999
      vertex 28.5 18.001 68
    endloop
  endfacet
  facet normal 0.195081 -0.980787 0
    outer loop
      vertex 27.5 -3.999 66.999
      vertex 27.8827 -3.92288 67.999
      vertex 27.5 -3.999 67.999
    endloop
  endfacet
  facet normal 0.195081 -0.980787 0
    outer loop
      vertex 27.8827 -3.92288 67.999
      vertex 27.5 -3.999 66.999
      vertex 27.8827 -3.92288 66.999
    endloop
  endfacet
  facet normal -0.980787 0.195084 0
    outer loop
      vertex -1 18.001 68
      vertex -0.923879 18.3837 72.999
      vertex -0.923879 18.3837 68
    endloop
  endfacet
  facet normal -0.980787 0.195084 0
    outer loop
      vertex -0.923879 18.3837 72.999
      vertex -1 18.001 68
      vertex -1 18.001 72.999
    endloop
  endfacet
  facet normal -0.758652 -0.1509 0.633779
    outer loop
      vertex -1 -2.999 67.999
      vertex -0.923879 17.6183 72.999
      vertex -1 18.001 72.999
    endloop
  endfacet
  facet normal -0.758636 -0.150904 0.633798
    outer loop
      vertex -0.923879 17.6183 72.999
      vertex -1 -2.999 67.999
      vertex -0.923879 -3.38168 67.999
    endloop
  endfacet
  facet normal -0.195089 -0.980785 0
    outer loop
      vertex -0.382683 -3.92288 66.999
      vertex 0 -3.999 67.999
      vertex -0.382683 -3.92288 67.999
    endloop
  endfacet
  facet normal -0.195089 -0.980785 -0
    outer loop
      vertex 0 -3.999 67.999
      vertex -0.382683 -3.92288 66.999
      vertex 0 -3.999 66.999
    endloop
  endfacet
  facet normal 0.980795 -0.195042 0
    outer loop
      vertex 28.4239 -3.38168 67.999
      vertex 28.5 -2.999 66.999
      vertex 28.5 -2.999 67.999
    endloop
  endfacet
  facet normal 0.980795 -0.195042 0
    outer loop
      vertex 28.5 -2.999 66.999
      vertex 28.4239 -3.38168 67.999
      vertex 28.4239 -3.38168 66.999
    endloop
  endfacet
  facet normal 0.758741 -0.150876 0.633679
    outer loop
      vertex 28.4239 17.6183 72.999
      vertex 28.5 -2.999 67.999
      vertex 28.5 18.001 72.999
    endloop
  endfacet
  facet normal 0.758724 -0.15088 0.633697
    outer loop
      vertex 28.5 -2.999 67.999
      vertex 28.4239 17.6183 72.999
      vertex 28.4239 -3.38168 67.999
    endloop
  endfacet
  facet normal -0.555565 -0.831473 0
    outer loop
      vertex -0.707107 -3.70611 66.999
      vertex -0.382683 -3.92288 67.999
      vertex -0.707107 -3.70611 67.999
    endloop
  endfacet
  facet normal -0.555565 -0.831473 -0
    outer loop
      vertex -0.382683 -3.92288 67.999
      vertex -0.707107 -3.70611 66.999
      vertex -0.382683 -3.92288 66.999
    endloop
  endfacet
  facet normal 0 -0.231621 0.972806
    outer loop
      vertex 0 17.001 72.999
      vertex 27.5 -3.999 67.999
      vertex 27.5 17.001 72.999
    endloop
  endfacet
  facet normal 0 -0.231621 0.972806
    outer loop
      vertex 27.5 -3.999 67.999
      vertex 0 17.001 72.999
      vertex 0 -3.999 67.999
    endloop
  endfacet
  facet normal 0.555593 -0.831454 0
    outer loop
      vertex 27.8827 -3.92288 66.999
      vertex 28.2071 -3.70611 67.999
      vertex 27.8827 -3.92288 67.999
    endloop
  endfacet
  facet normal 0.555593 -0.831454 0
    outer loop
      vertex 28.2071 -3.70611 67.999
      vertex 27.8827 -3.92288 66.999
      vertex 28.2071 -3.70611 66.999
    endloop
  endfacet
  facet normal 0.831419 0.555646 0
    outer loop
      vertex 28.4239 18.3837 72.999
      vertex 28.2071 18.7081 68
      vertex 28.2071 18.7081 72.999
    endloop
  endfacet
  facet normal 0.831419 0.555646 0
    outer loop
      vertex 28.2071 18.7081 68
      vertex 28.4239 18.3837 72.999
      vertex 28.4239 18.3837 68
    endloop
  endfacet
  facet normal 0 1 -0
    outer loop
      vertex 27.5 19.001 66.999
      vertex 0 19.001 72.999
      vertex 27.5 19.001 72.999
    endloop
  endfacet
  facet normal 0 1 0
    outer loop
      vertex 0 19.001 72.999
      vertex 27.5 19.001 66.999
      vertex 0 19.001 66.999
    endloop
  endfacet
  facet normal 0 0 1
    outer loop
      vertex 28.4239 18.3837 72.999
      vertex 28.4239 17.6183 72.999
      vertex 28.5 18.001 72.999
    endloop
  endfacet
  facet normal 0 0 1
    outer loop
      vertex 28.2071 18.7081 72.999
      vertex 28.4239 17.6183 72.999
      vertex 28.4239 18.3837 72.999
    endloop
  endfacet
  facet normal 0 0 1
    outer loop
      vertex 28.2071 18.7081 72.999
      vertex 28.2071 17.2939 72.999
      vertex 28.4239 17.6183 72.999
    endloop
  endfacet
  facet normal 0 0 1
    outer loop
      vertex 27.8827 18.9249 72.999
      vertex 28.2071 17.2939 72.999
      vertex 28.2071 18.7081 72.999
    endloop
  endfacet
  facet normal 0 0 1
    outer loop
      vertex 27.8827 18.9249 72.999
      vertex 27.8827 17.0771 72.999
      vertex 28.2071 17.2939 72.999
    endloop
  endfacet
  facet normal 0 0 1
    outer loop
      vertex 27.5 19.001 72.999
      vertex 27.8827 17.0771 72.999
      vertex 27.8827 18.9249 72.999
    endloop
  endfacet
  facet normal 0 0 1
    outer loop
      vertex 27.5 19.001 72.999
      vertex 27.5 17.001 72.999
      vertex 27.8827 17.0771 72.999
    endloop
  endfacet
  facet normal -0 0 1
    outer loop
      vertex 0 19.001 72.999
      vertex 27.5 17.001 72.999
      vertex 27.5 19.001 72.999
    endloop
  endfacet
  facet normal 0 0 1
    outer loop
      vertex 0 19.001 72.999
      vertex 0 17.001 72.999
      vertex 27.5 17.001 72.999
    endloop
  endfacet
  facet normal -0 0 1
    outer loop
      vertex -0.382683 18.9249 72.999
      vertex 0 17.001 72.999
      vertex 0 19.001 72.999
    endloop
  endfacet
  facet normal 0 0 1
    outer loop
      vertex -0.382683 18.9249 72.999
      vertex -0.382683 17.0771 72.999
      vertex 0 17.001 72.999
    endloop
  endfacet
  facet normal -0 0 1
    outer loop
      vertex -0.707107 18.7081 72.999
      vertex -0.382683 17.0771 72.999
      vertex -0.382683 18.9249 72.999
    endloop
  endfacet
  facet normal 0 0 1
    outer loop
      vertex -0.707107 18.7081 72.999
      vertex -0.707107 17.2939 72.999
      vertex -0.382683 17.0771 72.999
    endloop
  endfacet
  facet normal -0 0 1
    outer loop
      vertex -0.923879 18.3837 72.999
      vertex -0.707107 17.2939 72.999
      vertex -0.707107 18.7081 72.999
    endloop
  endfacet
  facet normal 0 0 1
    outer loop
      vertex -0.923879 18.3837 72.999
      vertex -0.923879 17.6183 72.999
      vertex -0.707107 17.2939 72.999
    endloop
  endfacet
  facet normal 0 -0 1
    outer loop
      vertex -0.923879 17.6183 72.999
      vertex -0.923879 18.3837 72.999
      vertex -1 18.001 72.999
    endloop
  endfacet
  facet normal -0.19504 0.980795 -1.62928e-07
    outer loop
      vertex 0 19.001 72.999
      vertex -0.00502451 19 68
      vertex -0.382683 18.9249 72.999
    endloop
  endfacet
  facet normal -0.195196 0.980764 0
    outer loop
      vertex 0 19.001 66.999
      vertex -0.00502451 19 68
      vertex 0 19.001 72.999
    endloop
  endfacet
  facet normal -0.195196 0.980764 0
    outer loop
      vertex -0.00502451 19 68
      vertex 0 19.001 66.999
      vertex -0.00502451 19 66.999
    endloop
  endfacet
  facet normal -0.195038 0.980796 0
    outer loop
      vertex -0.382683 18.9249 72.999
      vertex -0.00502451 19 68
      vertex -0.382683 18.9249 68
    endloop
  endfacet
  facet normal 0 0 -1
    outer loop
      vertex 27.505 19 66.999
      vertex 0 19.001 66.999
      vertex 27.5 19.001 66.999
    endloop
  endfacet
  facet normal 0 -0 -1
    outer loop
      vertex 0 19.001 66.999
      vertex 27.505 19 66.999
      vertex -0.00502451 19 66.999
    endloop
  endfacet
  facet normal -0.831476 -0.555561 0
    outer loop
      vertex -0.707107 -3.70611 66.999
      vertex -0.923879 -3.38168 67.999
      vertex -0.923879 -3.38168 66.999
    endloop
  endfacet
  facet normal -0.831476 -0.555561 0
    outer loop
      vertex -0.923879 -3.38168 67.999
      vertex -0.707107 -3.70611 66.999
      vertex -0.707107 -3.70611 67.999
    endloop
  endfacet
  facet normal -0.152961 -0.228895 0.961358
    outer loop
      vertex -0.707107 -3.70611 67.999
      vertex -0.382683 17.0771 72.999
      vertex -0.707107 17.2939 72.999
    endloop
  endfacet
  facet normal -0.152941 -0.228896 0.961361
    outer loop
      vertex -0.382683 17.0771 72.999
      vertex -0.707107 -3.70611 67.999
      vertex -0.382683 -3.92288 67.999
    endloop
  endfacet
  facet normal 0.152973 -0.228894 0.961357
    outer loop
      vertex 27.8827 17.0771 72.999
      vertex 28.2071 -3.70611 67.999
      vertex 28.2071 17.2939 72.999
    endloop
  endfacet
  facet normal 0.152952 -0.228895 0.96136
    outer loop
      vertex 28.2071 -3.70611 67.999
      vertex 27.8827 17.0771 72.999
      vertex 27.8827 -3.92288 67.999
    endloop
  endfacet
  facet normal 0.195032 0.980797 -0
    outer loop
      vertex 27.8827 18.9249 68
      vertex 27.5 19.001 72.999
      vertex 27.8827 18.9249 72.999
    endloop
  endfacet
  facet normal 0.195017 0.9808 -1.14281e-06
    outer loop
      vertex 27.505 19 68
      vertex 27.5 19.001 72.999
      vertex 27.8827 18.9249 68
    endloop
  endfacet
  facet normal 0.196116 0.980581 0
    outer loop
      vertex 27.5 19.001 66.999
      vertex 27.505 19 68
      vertex 27.505 19 66.999
    endloop
  endfacet
  facet normal 0.196116 0.980581 0
    outer loop
      vertex 27.505 19 68
      vertex 27.5 19.001 66.999
      vertex 27.5 19.001 72.999
    endloop
  endfacet
  facet normal -0.980785 -0.195093 0
    outer loop
      vertex -0.923879 -3.38168 66.999
      vertex -1 -2.999 67.999
      vertex -1 -2.999 66.999
    endloop
  endfacet
  facet normal -0.980785 -0.195093 0
    outer loop
      vertex -1 -2.999 67.999
      vertex -0.923879 -3.38168 66.999
      vertex -0.923879 -3.38168 67.999
    endloop
  endfacet
  facet normal -0.831452 0.555597 0
    outer loop
      vertex -0.923879 18.3837 68
      vertex -0.707107 18.7081 72.999
      vertex -0.707107 18.7081 68
    endloop
  endfacet
  facet normal -0.831452 0.555597 0
    outer loop
      vertex -0.707107 18.7081 72.999
      vertex -0.923879 18.3837 68
      vertex -0.923879 18.3837 72.999
    endloop
  endfacet
  facet normal -0.555618 0.831438 0
    outer loop
      vertex -0.382683 18.9249 68
      vertex -0.707107 18.7081 72.999
      vertex -0.382683 18.9249 72.999
    endloop
  endfacet
  facet normal -0.555618 0.831438 0
    outer loop
      vertex -0.707107 18.7081 72.999
      vertex -0.382683 18.9249 68
      vertex -0.707107 18.7081 68
    endloop
  endfacet
  facet normal -0.327505 -0.218847 0.919155
    outer loop
      vertex -0.923879 -3.38168 67.999
      vertex -0.707107 17.2939 72.999
      vertex -0.923879 17.6183 72.999
    endloop
  endfacet
  facet normal -0.327531 -0.218844 0.919147
    outer loop
      vertex -0.707107 17.2939 72.999
      vertex -0.923879 -3.38168 67.999
      vertex -0.707107 -3.70611 67.999
    endloop
  endfacet
  facet normal 0.555646 0.831419 -0
    outer loop
      vertex 28.2071 18.7081 68
      vertex 27.8827 18.9249 72.999
      vertex 28.2071 18.7081 72.999
    endloop
  endfacet
  facet normal 0.555646 0.831419 0
    outer loop
      vertex 27.8827 18.9249 72.999
      vertex 28.2071 18.7081 68
      vertex 27.8827 18.9249 68
    endloop
  endfacet
  facet normal -0.0460111 -0.231375 0.971776
    outer loop
      vertex -0.382683 -3.92288 67.999
      vertex 0 17.001 72.999
      vertex -0.382683 17.0771 72.999
    endloop
  endfacet
  facet normal -0.0460231 -0.231375 0.971775
    outer loop
      vertex 0 17.001 72.999
      vertex -0.382683 -3.92288 67.999
      vertex 0 -3.999 67.999
    endloop
  endfacet
  facet normal -0.979109 -0.194759 -0.0584276
    outer loop
      vertex -0.923879 -3.38168 66.999
      vertex -0.999975 -0.000127491 57.0023
      vertex -0.923879 -0.382683 57.0023
    endloop
  endfacet
  facet normal -0.820158 -0.548009 -0.164402
    outer loop
      vertex -0.707107 -0.707107 57.0023
      vertex -0.923879 -3.38168 66.999
      vertex -0.923879 -0.382683 57.0023
    endloop
  endfacet
  facet normal -0.820162 -0.548002 -0.1644
    outer loop
      vertex -0.923879 -3.38168 66.999
      vertex -0.707107 -0.707107 57.0023
      vertex -0.707107 -3.70611 66.999
    endloop
  endfacet
  facet normal -0.187156 -0.940902 -0.28227
    outer loop
      vertex -0.382683 -0.923879 57.0023
      vertex 0 -3.999 66.999
      vertex -0.382683 -3.92288 66.999
    endloop
  endfacet
  facet normal -0.187158 -0.940902 -0.28227
    outer loop
      vertex 0 -3.999 66.999
      vertex -0.382683 -0.923879 57.0023
      vertex 0 -1 57.0023
    endloop
  endfacet
  facet normal -0.97968 -0.192108 -0.0576321
    outer loop
      vertex -0.999975 -0.000127491 57.0023
      vertex -1 -2.999 66.999
      vertex -1 0 57.0023
    endloop
  endfacet
  facet normal -0.979109 -0.19476 -0.0584278
    outer loop
      vertex -1 -2.999 66.999
      vertex -0.999975 -0.000127491 57.0023
      vertex -0.923879 -3.38168 66.999
    endloop
  endfacet
  facet normal 0 -0.957827 -0.287347
    outer loop
      vertex 0 -1 57.0023
      vertex 27.5 -3.999 66.999
      vertex 0 -3.999 66.999
    endloop
  endfacet
  facet normal 0 -0.957827 -0.287347
    outer loop
      vertex 27.5 -3.999 66.999
      vertex 0 -1 57.0023
      vertex 27.5 -1 57.0023
    endloop
  endfacet
  facet normal -0.539048 -0.806754 -0.242026
    outer loop
      vertex -0.707107 -0.707107 57.0023
      vertex -0.382683 -3.92288 66.999
      vertex -0.707107 -3.70611 66.999
    endloop
  endfacet
  facet normal -0.539051 -0.806751 -0.242025
    outer loop
      vertex -0.382683 -3.92288 66.999
      vertex -0.707107 -0.707107 57.0023
      vertex -0.382683 -0.923879 57.0023
    endloop
  endfacet
  facet normal 0.187148 -0.940903 -0.28227
    outer loop
      vertex 27.5 -1 57.0023
      vertex 27.8827 -3.92288 66.999
      vertex 27.5 -3.999 66.999
    endloop
  endfacet
  facet normal 0.18715 -0.940903 -0.28227
    outer loop
      vertex 27.8827 -3.92288 66.999
      vertex 27.5 -1 57.0023
      vertex 27.8827 -0.923879 57.0023
    endloop
  endfacet
  facet normal 0.539076 -0.806736 -0.24202
    outer loop
      vertex 27.8827 -0.923879 57.0023
      vertex 28.2071 -3.70611 66.999
      vertex 27.8827 -3.92288 66.999
    endloop
  endfacet
  facet normal 0.539079 -0.806734 -0.24202
    outer loop
      vertex 28.2071 -3.70611 66.999
      vertex 27.8827 -0.923879 57.0023
      vertex 28.2071 -0.707107 57.0023
    endloop
  endfacet
  facet normal 0.820123 -0.548056 -0.164416
    outer loop
      vertex 28.4239 -3.38168 66.999
      vertex 28.2071 -0.707107 57.0023
      vertex 28.4239 -0.382683 57.0023
    endloop
  endfacet
  facet normal 0.820128 -0.54805 -0.164414
    outer loop
      vertex 28.2071 -0.707107 57.0023
      vertex 28.4239 -3.38168 66.999
      vertex 28.2071 -3.70611 66.999
    endloop
  endfacet
  facet normal 0.979107 -0.194769 -0.0584305
    outer loop
      vertex 28.5 -0.000127491 57.0023
      vertex 28.4239 -3.38168 66.999
      vertex 28.4239 -0.382683 57.0023
    endloop
  endfacet
  facet normal 1 0 0
    outer loop
      vertex 28.5 -2.999 66.999
      vertex 28.5 -0.000127491 57.0023
      vertex 28.5 0 57.0023
    endloop
  endfacet
  facet normal 0.97912 -0.194709 -0.0584099
    outer loop
      vertex 28.5 -0.000127491 57.0023
      vertex 28.5 -2.999 66.999
      vertex 28.4239 -3.38168 66.999
    endloop
  endfacet
  facet normal -1 0 0
    outer loop
      vertex 10.25 4.5 58.5695
      vertex 10.25 9.5 46.4701
      vertex 10.25 5.45807 44.999
    endloop
  endfacet
  facet normal -1 0 0
    outer loop
      vertex 10.25 9.5 46.4701
      vertex 10.25 4.5 58.5695
      vertex 10.25 9.5 58.5695
    endloop
  endfacet
  facet normal -1 0 0
    outer loop
      vertex 10.25 4.25 44.999
      vertex 10.25 4.5 58.5695
      vertex 10.25 5.45807 44.999
    endloop
  endfacet
  facet normal -1 0 0
    outer loop
      vertex 10.25 4.25 64.999
      vertex 10.25 4.5 58.5695
      vertex 10.25 4.25 44.999
    endloop
  endfacet
  facet normal -1 0 0
    outer loop
      vertex 10.25 4.5 58.5695
      vertex 10.25 4.25 64.999
      vertex 10.25 4.5 64.999
    endloop
  endfacet
  facet normal 0 0 0
    outer loop
      vertex 10.25 4.25 64.999
      vertex 10.25 8.75 64.999
      vertex 10.25 4.5 64.999
    endloop
  endfacet
  facet normal -0 0 1
    outer loop
      vertex 10.25 8.75 64.999
      vertex 17.001 4.25 64.999
      vertex 17.001 8.75 64.999
    endloop
  endfacet
  facet normal 0 0 1
    outer loop
      vertex 17.001 4.25 64.999
      vertex 10.25 8.75 64.999
      vertex 10.25 4.25 64.999
    endloop
  endfacet
  facet normal 1 -0 0
    outer loop
      vertex 17.25 4.25 58.5715
      vertex 17.25 9.5 46.4701
      vertex 17.25 9.5 58.5715
    endloop
  endfacet
  facet normal 1 0 0
    outer loop
      vertex 17.25 9.5 46.4701
      vertex 17.25 4.25 58.5715
      vertex 17.25 5.45807 44.999
    endloop
  endfacet
  facet normal 1 0 0
    outer loop
      vertex 17.25 5.45807 44.999
      vertex 17.25 4.25 58.5715
      vertex 17.25 4.25 44.999
    endloop
  endfacet
  facet normal 0 1 0
    outer loop
      vertex 24 9.5 65
      vertex 17.25 9.5 60.7865
      vertex 17.25 9.5 65
    endloop
  endfacet
  facet normal 0 1 0
    outer loop
      vertex 17.25 9.5 58.5715
      vertex 17.25 9.5 60.7865
      vertex 24 9.5 65
    endloop
  endfacet
  facet normal 0 1 -0
    outer loop
      vertex 17.25 9.5 58.5715
      vertex 10.499 9.5 60.7865
      vertex 17.25 9.5 60.7865
    endloop
  endfacet
  facet normal 0 1 0
    outer loop
      vertex 17.25 9.5 58.5715
      vertex 10.499 9.5 58.3323
      vertex 10.499 9.5 60.7865
    endloop
  endfacet
  facet normal 0 1 0
    outer loop
      vertex 17.25 9.5 58.5715
      vertex 13.6501 9.5 50.4511
      vertex 10.499 9.5 58.3323
    endloop
  endfacet
  facet normal 0 1 0
    outer loop
      vertex 17.25 9.5 58.5715
      vertex 14.0495 9.5 50.4379
      vertex 13.6501 9.5 50.4511
    endloop
  endfacet
  facet normal 0 1 0
    outer loop
      vertex 17.25 9.5 58.5715
      vertex 14.4114 9.5 50.3778
      vertex 14.0495 9.5 50.4379
    endloop
  endfacet
  facet normal 0 1 0
    outer loop
      vertex 17.25 9.5 58.5715
      vertex 14.4451 9.5 50.3722
      vertex 14.4114 9.5 50.3778
    endloop
  endfacet
  facet normal 0 1 0
    outer loop
      vertex 17.25 9.5 58.5715
      vertex 14.8316 9.5 50.2549
      vertex 14.4451 9.5 50.3722
    endloop
  endfacet
  facet normal 0 1 0
    outer loop
      vertex 17.25 9.5 58.5715
      vertex 14.8651 9.5 50.2399
      vertex 14.8316 9.5 50.2549
    endloop
  endfacet
  facet normal 0 1 0
    outer loop
      vertex 17.25 9.5 58.5715
      vertex 15.204 9.5 50.0875
      vertex 14.8651 9.5 50.2399
    endloop
  endfacet
  facet normal 0 1 0
    outer loop
      vertex 17.25 9.5 58.5715
      vertex 15.5212 9.5 49.8942
      vertex 15.204 9.5 50.0875
    endloop
  endfacet
  facet normal 0 1 0
    outer loop
      vertex 17.25 9.5 58.5715
      vertex 15.5574 9.5 49.8722
      vertex 15.5212 9.5 49.8942
    endloop
  endfacet
  facet normal 0 1 0
    outer loop
      vertex 17.25 9.5 58.5715
      vertex 15.5918 9.5 49.845
      vertex 15.5574 9.5 49.8722
    endloop
  endfacet
  facet normal 0 1 0
    outer loop
      vertex 17.25 9.5 58.5715
      vertex 15.8873 9.5 49.6117
      vertex 15.5918 9.5 49.845
    endloop
  endfacet
  facet normal 0 1 0
    outer loop
      vertex 17.25 9.5 58.5715
      vertex 16.1524 9.5 49.3464
      vertex 15.8873 9.5 49.6117
    endloop
  endfacet
  facet normal 0 1 0
    outer loop
      vertex 17.25 9.5 58.5715
      vertex 16.1893 9.5 49.3095
      vertex 16.1524 9.5 49.3464
    endloop
  endfacet
  facet normal 0 1 0
    outer loop
      vertex 17.25 9.5 58.5715
      vertex 16.223 9.5 49.2671
      vertex 16.1893 9.5 49.3095
    endloop
  endfacet
  facet normal 0 1 0
    outer loop
      vertex 17.25 9.5 58.5715
      vertex 16.4595 9.5 48.9696
      vertex 16.223 9.5 49.2671
    endloop
  endfacet
  facet normal 0 1 0
    outer loop
      vertex 17.25 9.5 58.5715
      vertex 16.6599 9.5 48.6511
      vertex 16.4595 9.5 48.9696
    endloop
  endfacet
  facet normal 0 1 0
    outer loop
      vertex 17.25 9.5 58.5715
      vertex 16.6944 9.5 48.5963
      vertex 16.6599 9.5 48.6511
    endloop
  endfacet
  facet normal 0 1 0
    outer loop
      vertex 17.25 9.5 58.5715
      vertex 16.8909 9.5 48.1945
      vertex 16.6944 9.5 48.5963
    endloop
  endfacet
  facet normal 0 1 0
    outer loop
      vertex 17.25 9.5 58.5715
      vertex 17.0465 9.5 47.7694
      vertex 16.8909 9.5 48.1945
    endloop
  endfacet
  facet normal 0 1 0
    outer loop
      vertex 17.25 9.5 58.5715
      vertex 17.159 9.5 47.3267
      vertex 17.0465 9.5 47.7694
    endloop
  endfacet
  facet normal 0 1 0
    outer loop
      vertex 17.25 9.5 58.5715
      vertex 17.2272 9.5 46.872
      vertex 17.159 9.5 47.3267
    endloop
  endfacet
  facet normal 0 1 -0
    outer loop
      vertex 17.25 9.5 46.4701
      vertex 17.2272 9.5 46.872
      vertex 17.25 9.5 58.5715
    endloop
  endfacet
  facet normal 0 1 0
    outer loop
      vertex 17.2272 9.5 46.872
      vertex 17.25 9.5 46.4701
      vertex 17.2449 9.5 46.5141
    endloop
  endfacet
  facet normal 0 1 0
    outer loop
      vertex 17.2449 9.5 46.5141
      vertex 17.25 9.5 46.4701
      vertex 17.2471 9.5 46.4701
    endloop
  endfacet
  facet normal 0 1 -0
    outer loop
      vertex 13.2853 9.5 50.4149
      vertex 10.499 9.5 58.3323
      vertex 13.6501 9.5 50.4511
    endloop
  endfacet
  facet normal 0 1 -0
    outer loop
      vertex 13.2519 9.5 50.4116
      vertex 10.499 9.5 58.3323
      vertex 13.2853 9.5 50.4149
    endloop
  endfacet
  facet normal 0 1 -0
    outer loop
      vertex 12.8602 9.5 50.32
      vertex 10.499 9.5 58.3323
      vertex 13.2519 9.5 50.4116
    endloop
  endfacet
  facet normal 0 1 -0
    outer loop
      vertex 12.8269 9.5 50.3075
      vertex 10.499 9.5 58.3323
      vertex 12.8602 9.5 50.32
    endloop
  endfacet
  facet normal 0 1 -0
    outer loop
      vertex 12.4802 9.5 50.1774
      vertex 10.499 9.5 58.3323
      vertex 12.8269 9.5 50.3075
    endloop
  endfacet
  facet normal 0 1 -0
    outer loop
      vertex 12.1525 9.5 50.0046
      vertex 10.499 9.5 58.3323
      vertex 12.4802 9.5 50.1774
    endloop
  endfacet
  facet normal 0 1 -0
    outer loop
      vertex 12.1167 9.5 49.9857
      vertex 10.499 9.5 58.3323
      vertex 12.1525 9.5 50.0046
    endloop
  endfacet
  facet normal 0 1 -0
    outer loop
      vertex 11.7744 9.5 49.7474
      vertex 10.499 9.5 58.3323
      vertex 12.1167 9.5 49.9857
    endloop
  endfacet
  facet normal 0 1 -0
    outer loop
      vertex 11.458 9.5 49.4656
      vertex 10.499 9.5 58.3323
      vertex 11.7744 9.5 49.7474
    endloop
  endfacet
  facet normal 0 1 -0
    outer loop
      vertex 11.1714 9.5 49.144
      vertex 10.499 9.5 58.3323
      vertex 11.458 9.5 49.4656
    endloop
  endfacet
  facet normal 0 1 0
    outer loop
      vertex 10.499 9.5 58.3323
      vertex 11.1714 9.5 49.144
      vertex 10.25 9.5 58.5695
    endloop
  endfacet
  facet normal 0 1 -0
    outer loop
      vertex 10.9184 9.5 48.7868
      vertex 10.25 9.5 58.5695
      vertex 11.1714 9.5 49.144
    endloop
  endfacet
  facet normal 0 1 -0
    outer loop
      vertex 10.8873 9.5 48.7309
      vertex 10.25 9.5 58.5695
      vertex 10.9184 9.5 48.7868
    endloop
  endfacet
  facet normal 0 1 -0
    outer loop
      vertex 10.7024 9.5 48.3986
      vertex 10.25 9.5 58.5695
      vertex 10.8873 9.5 48.7309
    endloop
  endfacet
  facet normal 0 1 -0
    outer loop
      vertex 10.5261 9.5 47.9845
      vertex 10.25 9.5 58.5695
      vertex 10.7024 9.5 48.3986
    endloop
  endfacet
  facet normal 0 1 -0
    outer loop
      vertex 10.4164 9.5 47.6296
      vertex 10.25 9.5 58.5695
      vertex 10.5261 9.5 47.9845
    endloop
  endfacet
  facet normal 0 1 -0
    outer loop
      vertex 10.3918 9.5 47.5499
      vertex 10.25 9.5 58.5695
      vertex 10.4164 9.5 47.6296
    endloop
  endfacet
  facet normal 0 1 -0
    outer loop
      vertex 10.3013 9.5 47.1004
      vertex 10.25 9.5 58.5695
      vertex 10.3918 9.5 47.5499
    endloop
  endfacet
  facet normal 0 1 -0
    outer loop
      vertex 10.2557 9.5 46.642
      vertex 10.25 9.5 58.5695
      vertex 10.3013 9.5 47.1004
    endloop
  endfacet
  facet normal 0 1 0
    outer loop
      vertex 10.25 9.5 46.4701
      vertex 10.2557 9.5 46.642
      vertex 10.2557 9.5 46.4701
    endloop
  endfacet
  facet normal 0 1 0
    outer loop
      vertex 10.2557 9.5 46.642
      vertex 10.25 9.5 46.4701
      vertex 10.25 9.5 58.5695
    endloop
  endfacet
  facet normal 0 0 -1
    outer loop
      vertex 10.25 4.25 44.999
      vertex 10.4693 4.64703 44.999
      vertex 10.5261 4.32896 44.999
    endloop
  endfacet
  facet normal 0 0 -1
    outer loop
      vertex 10.25 4.25 44.999
      vertex 10.5261 4.32896 44.999
      vertex 10.5455 4.25 44.999
    endloop
  endfacet
  facet normal -0 0 -1
    outer loop
      vertex 10.4693 4.64703 44.999
      vertex 10.25 4.25 44.999
      vertex 10.3918 5.08172 44.999
    endloop
  endfacet
  facet normal 0 0 -1
    outer loop
      vertex 10.25 5.45807 44.999
      vertex 10.3918 5.08172 44.999
      vertex 10.25 4.25 44.999
    endloop
  endfacet
  facet normal 0 0 -1
    outer loop
      vertex 10.3918 5.08172 44.999
      vertex 10.25 5.45807 44.999
      vertex 10.348 5.45807 44.999
    endloop
  endfacet
  facet normal 0 0 -1
    outer loop
      vertex 17.0465 4.7015 44.999
      vertex 17.25 5.45807 44.999
      vertex 17.25 4.25 44.999
    endloop
  endfacet
  facet normal -0 0 -1
    outer loop
      vertex 17.25 5.45807 44.999
      vertex 17.0465 4.7015 44.999
      vertex 17.1575 5.45807 44.999
    endloop
  endfacet
  facet normal 0 -0 -1
    outer loop
      vertex 17.0465 4.7015 44.999
      vertex 17.25 4.25 44.999
      vertex 16.9511 4.25 44.999
    endloop
  endfacet
  facet normal 0 -1 0
    outer loop
      vertex 10.25 4.25 64.999
      vertex 17.25 4.25 58.5715
      vertex 17.001 4.25 64.999
    endloop
  endfacet
  facet normal 0 -1 0
    outer loop
      vertex 12.4802 4.25 47.1463
      vertex 17.25 4.25 58.5715
      vertex 10.25 4.25 64.999
    endloop
  endfacet
  facet normal 0 -1 0
    outer loop
      vertex 17.25 4.25 58.5715
      vertex 13.4574 4.25 47.4009
      vertex 13.6501 4.25 47.42
    endloop
  endfacet
  facet normal 0 -1 0
    outer loop
      vertex 17.25 4.25 58.5715
      vertex 13.2519 4.25 47.3805
      vertex 13.4574 4.25 47.4009
    endloop
  endfacet
  facet normal 0 -1 0
    outer loop
      vertex 17.25 4.25 58.5715
      vertex 12.8602 4.25 47.2889
      vertex 13.2519 4.25 47.3805
    endloop
  endfacet
  facet normal 0 -1 0
    outer loop
      vertex 17.25 4.25 58.5715
      vertex 12.6615 4.25 47.2143
      vertex 12.8602 4.25 47.2889
    endloop
  endfacet
  facet normal 0 -1 0
    outer loop
      vertex 17.25 4.25 58.5715
      vertex 12.4802 4.25 47.1463
      vertex 12.6615 4.25 47.2143
    endloop
  endfacet
  facet normal 0 -1 0
    outer loop
      vertex 10.25 4.25 64.999
      vertex 12.3088 4.25 47.0559
      vertex 12.4802 4.25 47.1463
    endloop
  endfacet
  facet normal 0 -1 0
    outer loop
      vertex 10.25 4.25 64.999
      vertex 12.1167 4.25 46.9546
      vertex 12.3088 4.25 47.0559
    endloop
  endfacet
  facet normal 0 -1 0
    outer loop
      vertex 10.25 4.25 64.999
      vertex 11.7744 4.25 46.7163
      vertex 12.1167 4.25 46.9546
    endloop
  endfacet
  facet normal 0 -1 0
    outer loop
      vertex 10.25 4.25 64.999
      vertex 11.458 4.25 46.4345
      vertex 11.7744 4.25 46.7163
    endloop
  endfacet
  facet normal 0 -1 0
    outer loop
      vertex 10.25 4.25 64.999
      vertex 11.1714 4.25 46.1129
      vertex 11.458 4.25 46.4345
    endloop
  endfacet
  facet normal 0 -1 0
    outer loop
      vertex 10.25 4.25 44.999
      vertex 11.1714 4.25 46.1129
      vertex 10.25 4.25 64.999
    endloop
  endfacet
  facet normal 0 -1 0
    outer loop
      vertex 11.1714 4.25 46.1129
      vertex 10.25 4.25 44.999
      vertex 10.9184 4.25 45.7557
    endloop
  endfacet
  facet normal 0 -1 0
    outer loop
      vertex 10.9184 4.25 45.7557
      vertex 10.25 4.25 44.999
      vertex 10.7925 4.25 45.5294
    endloop
  endfacet
  facet normal 0 -1 0
    outer loop
      vertex 10.7925 4.25 45.5294
      vertex 10.25 4.25 44.999
      vertex 10.7024 4.25 45.3675
    endloop
  endfacet
  facet normal 0 -1 0
    outer loop
      vertex 10.7024 4.25 45.3675
      vertex 10.25 4.25 44.999
      vertex 10.5455 4.25 44.999
    endloop
  endfacet
  facet normal 0 -1 0
    outer loop
      vertex 17.001 4.25 64.999
      vertex 24 4.25 65
      vertex 17.001 4.25 65
    endloop
  endfacet
  facet normal 0 -1 0
    outer loop
      vertex 24 4.25 65
      vertex 17.001 4.25 64.999
      vertex 17.25 4.25 58.5715
    endloop
  endfacet
  facet normal 0 -1 0
    outer loop
      vertex 14.0495 4.25 47.4068
      vertex 17.25 4.25 58.5715
      vertex 13.6501 4.25 47.42
    endloop
  endfacet
  facet normal 0 -1 0
    outer loop
      vertex 14.2405 4.25 47.3751
      vertex 17.25 4.25 58.5715
      vertex 14.0495 4.25 47.4068
    endloop
  endfacet
  facet normal 0 -1 0
    outer loop
      vertex 14.4451 4.25 47.3412
      vertex 17.25 4.25 58.5715
      vertex 14.2405 4.25 47.3751
    endloop
  endfacet
  facet normal 0 -1 0
    outer loop
      vertex 14.8316 4.25 47.2238
      vertex 17.25 4.25 58.5715
      vertex 14.4451 4.25 47.3412
    endloop
  endfacet
  facet normal 0 -1 0
    outer loop
      vertex 15.0273 4.25 47.1358
      vertex 17.25 4.25 58.5715
      vertex 14.8316 4.25 47.2238
    endloop
  endfacet
  facet normal 0 -1 0
    outer loop
      vertex 15.204 4.25 47.0564
      vertex 17.25 4.25 58.5715
      vertex 15.0273 4.25 47.1358
    endloop
  endfacet
  facet normal 0 -1 0
    outer loop
      vertex 15.3693 4.25 46.9557
      vertex 17.25 4.25 58.5715
      vertex 15.204 4.25 47.0564
    endloop
  endfacet
  facet normal 0 -1 0
    outer loop
      vertex 15.5574 4.25 46.8411
      vertex 17.25 4.25 58.5715
      vertex 15.3693 4.25 46.9557
    endloop
  endfacet
  facet normal 0 -1 0
    outer loop
      vertex 15.7359 4.25 46.7001
      vertex 17.25 4.25 58.5715
      vertex 15.5574 4.25 46.8411
    endloop
  endfacet
  facet normal 0 -1 0
    outer loop
      vertex 15.8873 4.25 46.5806
      vertex 17.25 4.25 58.5715
      vertex 15.7359 4.25 46.7001
    endloop
  endfacet
  facet normal 0 -1 0
    outer loop
      vertex 16.0231 4.25 46.4448
      vertex 17.25 4.25 58.5715
      vertex 15.8873 4.25 46.5806
    endloop
  endfacet
  facet normal 0 -1 0
    outer loop
      vertex 16.1893 4.25 46.2785
      vertex 17.25 4.25 58.5715
      vertex 16.0231 4.25 46.4448
    endloop
  endfacet
  facet normal 0 -1 0
    outer loop
      vertex 16.3415 4.25 46.087
      vertex 17.25 4.25 58.5715
      vertex 16.1893 4.25 46.2785
    endloop
  endfacet
  facet normal 0 -1 0
    outer loop
      vertex 16.4595 4.25 45.9385
      vertex 17.25 4.25 58.5715
      vertex 16.3415 4.25 46.087
    endloop
  endfacet
  facet normal 0 -1 0
    outer loop
      vertex 17.25 4.25 44.999
      vertex 16.4595 4.25 45.9385
      vertex 16.5595 4.25 45.7795
    endloop
  endfacet
  facet normal 0 -1 0
    outer loop
      vertex 17.25 4.25 44.999
      vertex 16.5595 4.25 45.7795
      vertex 16.6944 4.25 45.5652
    endloop
  endfacet
  facet normal 0 -1 0
    outer loop
      vertex 17.25 4.25 44.999
      vertex 16.6944 4.25 45.5652
      vertex 16.8909 4.25 45.1634
    endloop
  endfacet
  facet normal 0 -1 0
    outer loop
      vertex 17.25 4.25 44.999
      vertex 16.8909 4.25 45.1634
      vertex 16.9511 4.25 44.999
    endloop
  endfacet
  facet normal 0 -1 0
    outer loop
      vertex 16.4595 4.25 45.9385
      vertex 17.25 4.25 44.999
      vertex 17.25 4.25 58.5715
    endloop
  endfacet
  facet normal -0.998369 0.0286539 -0.0493745
    outer loop
      vertex 17.2444 9.2503 46.3793
      vertex 17.2272 9.5 46.872
      vertex 17.2449 9.5 46.5141
    endloop
  endfacet
  facet normal -0.99838 0.0284472 -0.0492701
    outer loop
      vertex 17.2272 9.5 46.872
      vertex 17.2444 9.2503 46.3793
      vertex 17.2272 7.61681 45.7847
    endloop
  endfacet
  facet normal -0.998334 0.0289465 -0.0499167
    outer loop
      vertex 17.2449 9.5 46.5141
      vertex 17.2471 9.5 46.4701
      vertex 17.2444 9.2503 46.3793
    endloop
  endfacet
  facet normal -0.564314 0.412781 -0.714955
    outer loop
      vertex 15.7359 4.25 46.7001
      vertex 15.8873 9.5 49.6117
      vertex 15.8873 4.25 46.5806
    endloop
  endfacet
  facet normal -0.564415 0.41275 -0.714894
    outer loop
      vertex 15.8873 9.5 49.6117
      vertex 15.7359 4.25 46.7001
      vertex 15.5918 9.5 49.845
    endloop
  endfacet
  facet normal -0.466621 0.44223 -0.765962
    outer loop
      vertex 15.204 9.5 50.0875
      vertex 15.3693 4.25 46.9557
      vertex 15.204 4.25 47.0564
    endloop
  endfacet
  facet normal -0.466741 0.442195 -0.765909
    outer loop
      vertex 15.3693 4.25 46.9557
      vertex 15.204 9.5 50.0875
      vertex 15.5212 9.5 49.8942
    endloop
  endfacet
  facet normal -0.564615 0.412676 -0.714779
    outer loop
      vertex 15.5574 4.25 46.8411
      vertex 15.5918 9.5 49.845
      vertex 15.7359 4.25 46.7001
    endloop
  endfacet
  facet normal -0.564995 0.412548 -0.714552
    outer loop
      vertex 15.5918 9.5 49.845
      vertex 15.5574 4.25 46.8411
      vertex 15.5574 9.5 49.8722
    endloop
  endfacet
  facet normal -0.809135 0.293822 -0.50889
    outer loop
      vertex 16.4595 4.25 45.9385
      vertex 16.6599 9.5 48.6511
      vertex 16.5595 4.25 45.7795
    endloop
  endfacet
  facet normal -0.809019 0.293892 -0.509034
    outer loop
      vertex 16.6599 9.5 48.6511
      vertex 16.4595 4.25 45.9385
      vertex 16.4595 9.5 48.9696
    endloop
  endfacet
  facet normal 1 0 -0
    outer loop
      vertex 10.2557 9.5 46.4701
      vertex 10.2557 9.5 46.642
      vertex 10.2557 8.69455 46.177
    endloop
  endfacet
  facet normal 0.993468 0.0570543 -0.0988266
    outer loop
      vertex 10.3013 9.5 47.1004
      vertex 10.2557 8.69455 46.177
      vertex 10.2557 9.5 46.642
    endloop
  endfacet
  facet normal 0.993467 0.0570585 -0.0988303
    outer loop
      vertex 10.2557 8.69455 46.177
      vertex 10.3013 9.5 47.1004
      vertex 10.3013 6.5461 45.395
    endloop
  endfacet
  facet normal -0.870754 0.245861 -0.425841
    outer loop
      vertex 16.6944 4.25 45.5652
      vertex 16.8909 9.5 48.1945
      vertex 16.8909 4.25 45.1634
    endloop
  endfacet
  facet normal -0.870754 0.245861 -0.425841
    outer loop
      vertex 16.8909 9.5 48.1945
      vertex 16.6944 4.25 45.5652
      vertex 16.6944 9.5 48.5963
    endloop
  endfacet
  facet normal -0.142271 0.494915 -0.857215
    outer loop
      vertex 14.0495 9.5 50.4379
      vertex 14.2405 4.25 47.3751
      vertex 14.0495 4.25 47.4068
    endloop
  endfacet
  facet normal -0.142354 0.494907 -0.857206
    outer loop
      vertex 14.2405 4.25 47.3751
      vertex 14.0495 9.5 50.4379
      vertex 14.4114 9.5 50.3778
    endloop
  endfacet
  facet normal -0.654659 0.377944 -0.654659
    outer loop
      vertex 15.8873 4.25 46.5806
      vertex 16.1524 9.5 49.3464
      vertex 16.0231 4.25 46.4448
    endloop
  endfacet
  facet normal -0.654935 0.377843 -0.654442
    outer loop
      vertex 16.1524 9.5 49.3464
      vertex 15.8873 4.25 46.5806
      vertex 15.8873 9.5 49.6117
    endloop
  endfacet
  facet normal -0.362656 0.465963 -0.807068
    outer loop
      vertex 15.0273 4.25 47.1358
      vertex 15.204 9.5 50.0875
      vertex 15.204 4.25 47.0564
    endloop
  endfacet
  facet normal -0.362893 0.465924 -0.806984
    outer loop
      vertex 15.204 9.5 50.0875
      vertex 15.0273 4.25 47.1358
      vertex 14.8651 9.5 50.2399
    endloop
  endfacet
  facet normal -0.736833 0.338038 -0.585497
    outer loop
      vertex 16.3415 4.25 46.087
      vertex 16.4595 9.5 48.9696
      vertex 16.4595 4.25 45.9385
    endloop
  endfacet
  facet normal -0.736689 0.338112 -0.585637
    outer loop
      vertex 16.4595 9.5 48.9696
      vertex 16.3415 4.25 46.087
      vertex 16.223 9.5 49.2671
    endloop
  endfacet
  facet normal -0.921106 0.194655 -0.337154
    outer loop
      vertex 17.0465 4.7015 44.999
      vertex 16.8909 9.5 48.1945
      vertex 17.0465 9.5 47.7694
    endloop
  endfacet
  facet normal -0.921069 0.194618 -0.337277
    outer loop
      vertex 16.8909 4.25 45.1634
      vertex 17.0465 4.7015 44.999
      vertex 16.9511 4.25 44.999
    endloop
  endfacet
  facet normal -0.921098 0.194666 -0.337171
    outer loop
      vertex 17.0465 4.7015 44.999
      vertex 16.8909 4.25 45.1634
      vertex 16.8909 9.5 48.1945
    endloop
  endfacet
  facet normal -0.362877 0.465927 -0.806989
    outer loop
      vertex 14.8316 4.25 47.2238
      vertex 14.8651 9.5 50.2399
      vertex 15.0273 4.25 47.1358
    endloop
  endfacet
  facet normal -0.361542 0.466179 -0.807443
    outer loop
      vertex 14.8651 9.5 50.2399
      vertex 14.8316 4.25 47.2238
      vertex 14.8316 9.5 50.2549
    endloop
  endfacet
  facet normal -0.985331 0.085329 -0.147789
    outer loop
      vertex 17.2272 7.61681 45.7847
      vertex 17.159 9.5 47.3267
      vertex 17.2272 9.5 46.872
    endloop
  endfacet
  facet normal -0.985331 0.0853286 -0.147788
    outer loop
      vertex 17.159 9.5 47.3267
      vertex 17.2272 7.61681 45.7847
      vertex 17.159 5.48594 45.0091
    endloop
  endfacet
  facet normal 0.696917 0.358577 -0.621071
    outer loop
      vertex 11.458 4.25 46.4345
      vertex 11.1714 9.5 49.144
      vertex 11.458 9.5 49.4656
    endloop
  endfacet
  facet normal 0.696917 0.358577 -0.621071
    outer loop
      vertex 11.1714 9.5 49.144
      vertex 11.458 4.25 46.4345
      vertex 11.1714 4.25 46.1129
    endloop
  endfacet
  facet normal 0.309159 0.475507 -0.823598
    outer loop
      vertex 12.8602 4.25 47.2889
      vertex 12.8269 9.5 50.3075
      vertex 12.8602 9.5 50.32
    endloop
  endfacet
  facet normal 0.309207 0.475499 -0.823585
    outer loop
      vertex 12.8269 9.5 50.3075
      vertex 12.8602 4.25 47.2889
      vertex 12.6615 4.25 47.2143
    endloop
  endfacet
  facet normal 0.085524 0.498169 -0.862852
    outer loop
      vertex 13.4574 4.25 47.4009
      vertex 13.6501 9.5 50.4511
      vertex 13.6501 4.25 47.42
    endloop
  endfacet
  facet normal 0.0856223 0.498162 -0.862846
    outer loop
      vertex 13.6501 9.5 50.4511
      vertex 13.4574 4.25 47.4009
      vertex 13.2853 9.5 50.4149
    endloop
  endfacet
  facet normal -0.02861 0.499797 -0.86567
    outer loop
      vertex 13.6501 4.25 47.42
      vertex 14.0495 9.5 50.4379
      vertex 14.0495 4.25 47.4068
    endloop
  endfacet
  facet normal -0.02861 0.499797 -0.86567
    outer loop
      vertex 14.0495 9.5 50.4379
      vertex 13.6501 4.25 47.42
      vertex 13.6501 9.5 50.4511
    endloop
  endfacet
  facet normal -0.142443 0.494891 -0.857201
    outer loop
      vertex 14.4451 4.25 47.3412
      vertex 14.4114 9.5 50.3778
      vertex 14.4451 9.5 50.3722
    endloop
  endfacet
  facet normal -0.142037 0.494922 -0.85725
    outer loop
      vertex 14.4114 9.5 50.3778
      vertex 14.4451 4.25 47.3412
      vertex 14.2405 4.25 47.3751
    endloop
  endfacet
  facet normal -0.808889 0.293981 -0.509189
    outer loop
      vertex 16.5595 4.25 45.7795
      vertex 16.6944 9.5 48.5963
      vertex 16.6944 4.25 45.5652
    endloop
  endfacet
  facet normal -0.808858 0.294001 -0.509227
    outer loop
      vertex 16.6944 9.5 48.5963
      vertex 16.5595 4.25 45.7795
      vertex 16.6599 9.5 48.6511
    endloop
  endfacet
  facet normal -0.736766 0.338067 -0.585565
    outer loop
      vertex 16.1893 4.25 46.2785
      vertex 16.223 9.5 49.2671
      vertex 16.3415 4.25 46.087
    endloop
  endfacet
  facet normal -0.736752 0.338074 -0.585579
    outer loop
      vertex 16.223 9.5 49.2671
      vertex 16.1893 4.25 46.2785
      vertex 16.1893 9.5 49.3095
    endloop
  endfacet
  facet normal -0.654881 0.377858 -0.654488
    outer loop
      vertex 16.0231 4.25 46.4448
      vertex 16.1893 9.5 49.3095
      vertex 16.1893 4.25 46.2785
    endloop
  endfacet
  facet normal -0.654659 0.377944 -0.654659
    outer loop
      vertex 16.1893 9.5 49.3095
      vertex 16.0231 4.25 46.4448
      vertex 16.1524 9.5 49.3464
    endloop
  endfacet
  facet normal -0.465745 0.442461 -0.766362
    outer loop
      vertex 15.5574 4.25 46.8411
      vertex 15.5212 9.5 49.8942
      vertex 15.5574 9.5 49.8722
    endloop
  endfacet
  facet normal -0.466655 0.442215 -0.76595
    outer loop
      vertex 15.5212 9.5 49.8942
      vertex 15.5574 4.25 46.8411
      vertex 15.3693 4.25 46.9557
    endloop
  endfacet
  facet normal -0.959542 0.140787 -0.243841
    outer loop
      vertex 17.159 5.48594 45.0091
      vertex 17.0465 9.5 47.7694
      vertex 17.159 9.5 47.3267
    endloop
  endfacet
  facet normal -0.959045 0.140706 -0.245833
    outer loop
      vertex 17.0465 4.7015 44.999
      vertex 17.159 5.48594 45.0091
      vertex 17.1575 5.45807 44.999
    endloop
  endfacet
  facet normal -0.959559 0.140754 -0.243794
    outer loop
      vertex 17.159 5.48594 45.0091
      vertex 17.0465 4.7015 44.999
      vertex 17.0465 9.5 47.7694
    endloop
  endfacet
  facet normal 0.198492 0.490053 -0.848793
    outer loop
      vertex 12.8602 4.25 47.2889
      vertex 13.2519 9.5 50.4116
      vertex 13.2519 4.25 47.3805
    endloop
  endfacet
  facet normal 0.198492 0.490053 -0.848793
    outer loop
      vertex 13.2519 9.5 50.4116
      vertex 12.8602 4.25 47.2889
      vertex 12.8602 9.5 50.32
    endloop
  endfacet
  facet normal 0.415411 0.454821 -0.787764
    outer loop
      vertex 12.1167 4.25 46.9546
      vertex 12.1525 9.5 50.0046
      vertex 12.3088 4.25 47.0559
    endloop
  endfacet
  facet normal 0.415805 0.454728 -0.787609
    outer loop
      vertex 12.1525 9.5 50.0046
      vertex 12.1167 4.25 46.9546
      vertex 12.1167 9.5 49.9857
    endloop
  endfacet
  facet normal 0.0856545 0.498162 -0.862843
    outer loop
      vertex 13.2519 4.25 47.3805
      vertex 13.2853 9.5 50.4149
      vertex 13.4574 4.25 47.4009
    endloop
  endfacet
  facet normal 0.0852538 0.498181 -0.862872
    outer loop
      vertex 13.2853 9.5 50.4149
      vertex 13.2519 4.25 47.3805
      vertex 13.2519 9.5 50.4116
    endloop
  endfacet
  facet normal -0.254401 0.483551 -0.837531
    outer loop
      vertex 14.4451 4.25 47.3412
      vertex 14.8316 9.5 50.2549
      vertex 14.8316 4.25 47.2238
    endloop
  endfacet
  facet normal -0.254201 0.483565 -0.837584
    outer loop
      vertex 14.8316 9.5 50.2549
      vertex 14.4451 4.25 47.3412
      vertex 14.4451 9.5 50.3722
    endloop
  endfacet
  facet normal 0.94181 0.168068 -0.291114
    outer loop
      vertex 10.5261 9.5 47.9845
      vertex 10.4693 4.64703 44.999
      vertex 10.4164 9.5 47.6296
    endloop
  endfacet
  facet normal 0.941739 0.168173 -0.291284
    outer loop
      vertex 10.4693 4.64703 44.999
      vertex 10.5261 9.5 47.9845
      vertex 10.5261 4.32896 44.999
    endloop
  endfacet
  facet normal 0.89742 0.220589 -0.38207
    outer loop
      vertex 10.7024 4.25 45.3675
      vertex 10.5261 9.5 47.9845
      vertex 10.7024 9.5 48.3986
    endloop
  endfacet
  facet normal 0.897415 0.220593 -0.382079
    outer loop
      vertex 10.5261 9.5 47.9845
      vertex 10.7024 4.25 45.3675
      vertex 10.5261 4.32896 44.999
    endloop
  endfacet
  facet normal 0.897428 0.220493 -0.382107
    outer loop
      vertex 10.5261 4.32896 44.999
      vertex 10.7024 4.25 45.3675
      vertex 10.5455 4.25 44.999
    endloop
  endfacet
  facet normal 0.941961 0.167861 -0.290743
    outer loop
      vertex 10.4164 9.5 47.6296
      vertex 10.3918 5.08172 44.999
      vertex 10.3918 9.5 47.5499
    endloop
  endfacet
  facet normal 0.941912 0.167932 -0.290861
    outer loop
      vertex 10.3918 5.08172 44.999
      vertex 10.4164 9.5 47.6296
      vertex 10.4693 4.64703 44.999
    endloop
  endfacet
  facet normal 0.974025 0.113219 -0.196105
    outer loop
      vertex 10.3918 9.5 47.5499
      vertex 10.3013 6.5461 45.395
      vertex 10.3013 9.5 47.1004
    endloop
  endfacet
  facet normal 0.97402 0.113231 -0.196121
    outer loop
      vertex 10.3918 5.08172 44.999
      vertex 10.3013 6.5461 45.395
      vertex 10.3918 9.5 47.5499
    endloop
  endfacet
  facet normal 0.973917 0.113345 -0.196569
    outer loop
      vertex 10.3013 6.5461 45.395
      vertex 10.3918 5.08172 44.999
      vertex 10.348 5.45807 44.999
    endloop
  endfacet
  facet normal 0.841313 0.270277 -0.468127
    outer loop
      vertex 10.7925 4.25 45.5294
      vertex 10.7024 9.5 48.3986
      vertex 10.8873 9.5 48.7309
    endloop
  endfacet
  facet normal 0.841273 0.270306 -0.468182
    outer loop
      vertex 10.7024 9.5 48.3986
      vertex 10.7925 4.25 45.5294
      vertex 10.7024 4.25 45.3675
    endloop
  endfacet
  facet normal 0.516323 0.428198 -0.741658
    outer loop
      vertex 11.7744 4.25 46.7163
      vertex 12.1167 9.5 49.9857
      vertex 12.1167 4.25 46.9546
    endloop
  endfacet
  facet normal 0.516323 0.428198 -0.741658
    outer loop
      vertex 12.1167 9.5 49.9857
      vertex 11.7744 4.25 46.7163
      vertex 11.7744 9.5 49.7474
    endloop
  endfacet
  facet normal 0.30893 0.475544 -0.823663
    outer loop
      vertex 12.4802 9.5 50.1774
      vertex 12.6615 4.25 47.2143
      vertex 12.4802 4.25 47.1463
    endloop
  endfacet
  facet normal 0.309066 0.475525 -0.823622
    outer loop
      vertex 12.6615 4.25 47.2143
      vertex 12.4802 9.5 50.1774
      vertex 12.8269 9.5 50.3075
    endloop
  endfacet
  facet normal 0.841346 0.270249 -0.468083
    outer loop
      vertex 10.9184 4.25 45.7557
      vertex 10.8873 9.5 48.7309
      vertex 10.9184 9.5 48.7868
    endloop
  endfacet
  facet normal 0.84135 0.270246 -0.468078
    outer loop
      vertex 10.8873 9.5 48.7309
      vertex 10.9184 4.25 45.7557
      vertex 10.7925 4.25 45.5294
    endloop
  endfacet
  facet normal 0.774079 0.316545 -0.54827
    outer loop
      vertex 11.1714 4.25 46.1129
      vertex 10.9184 9.5 48.7868
      vertex 11.1714 9.5 49.144
    endloop
  endfacet
  facet normal 0.774079 0.316545 -0.54827
    outer loop
      vertex 10.9184 9.5 48.7868
      vertex 11.1714 4.25 46.1129
      vertex 10.9184 4.25 45.7557
    endloop
  endfacet
  facet normal 0.415472 0.454804 -0.787741
    outer loop
      vertex 12.3088 4.25 47.0559
      vertex 12.4802 9.5 50.1774
      vertex 12.4802 4.25 47.1463
    endloop
  endfacet
  facet normal 0.415399 0.454823 -0.787769
    outer loop
      vertex 12.4802 9.5 50.1774
      vertex 12.3088 4.25 47.0559
      vertex 12.1525 9.5 50.0046
    endloop
  endfacet
  facet normal 0.61075 0.395913 -0.685739
    outer loop
      vertex 11.458 4.25 46.4345
      vertex 11.7744 9.5 49.7474
      vertex 11.7744 4.25 46.7163
    endloop
  endfacet
  facet normal 0.61075 0.395913 -0.685739
    outer loop
      vertex 11.7744 9.5 49.7474
      vertex 11.458 4.25 46.4345
      vertex 11.458 9.5 49.4656
    endloop
  endfacet
  facet normal 0 0.342012 -0.939696
    outer loop
      vertex 10.25 5.45807 44.999
      vertex 10.3013 6.5461 45.395
      vertex 10.348 5.45807 44.999
    endloop
  endfacet
  facet normal -0.000313133 0.342025 -0.939691
    outer loop
      vertex 10.25 5.45807 44.999
      vertex 10.2557 8.69455 46.177
      vertex 10.3013 6.5461 45.395
    endloop
  endfacet
  facet normal 0.00847576 0.341999 -0.939662
    outer loop
      vertex 10.25 9.5 46.4701
      vertex 10.2557 8.69455 46.177
      vertex 10.25 5.45807 44.999
    endloop
  endfacet
  facet normal 0 0.341959 -0.939715
    outer loop
      vertex 10.2557 8.69455 46.177
      vertex 10.25 9.5 46.4701
      vertex 10.2557 9.5 46.4701
    endloop
  endfacet
  facet normal -0.0135505 0.34198 -0.939609
    outer loop
      vertex 17.2444 9.2503 46.3793
      vertex 17.25 9.5 46.4701
      vertex 17.25 5.45807 44.999
    endloop
  endfacet
  facet normal 0 0.341743 -0.939793
    outer loop
      vertex 17.25 9.5 46.4701
      vertex 17.2444 9.2503 46.3793
      vertex 17.2471 9.5 46.4701
    endloop
  endfacet
  facet normal 0.00194208 0.342031 -0.939687
    outer loop
      vertex 17.25 5.45807 44.999
      vertex 17.2272 7.61681 45.7847
      vertex 17.2444 9.2503 46.3793
    endloop
  endfacet
  facet normal 0.000451995 0.342018 -0.939693
    outer loop
      vertex 17.25 5.45807 44.999
      vertex 17.159 5.48594 45.0091
      vertex 17.2272 7.61681 45.7847
    endloop
  endfacet
  facet normal 0 0.340714 -0.940167
    outer loop
      vertex 17.159 5.48594 45.0091
      vertex 17.25 5.45807 44.999
      vertex 17.1575 5.45807 44.999
    endloop
  endfacet
  facet normal -1 0 0
    outer loop
      vertex 17.001 4.25 64.999
      vertex 17.001 8.75 65
      vertex 17.001 8.75 64.999
    endloop
  endfacet
  facet normal -1 -0 0
    outer loop
      vertex 17.001 8.75 65
      vertex 17.001 4.25 64.999
      vertex 17.001 4.25 65
    endloop
  endfacet
  facet normal 0.689651 0 -0.724142
    outer loop
      vertex 17.25 4.25 58.5715
      vertex 24 9.5 65
      vertex 24 4.25 65
    endloop
  endfacet
  facet normal 0.689651 0 -0.724142
    outer loop
      vertex 24 9.5 65
      vertex 17.25 4.25 58.5715
      vertex 17.25 9.5 58.5715
    endloop
  endfacet
  facet normal -0 -1 -0
    outer loop
      vertex 10.25 4.5 64.999
      vertex 3.499 4.5 64.999
      vertex 10.25 4.5 58.5695
    endloop
  endfacet
  facet normal -0.689654 0 -0.724139
    outer loop
      vertex 10.25 4.5 58.5695
      vertex 3.499 4.5 64.999
      vertex 10.25 9.5 58.5695
    endloop
  endfacet
  facet normal -0.689742 0 -0.724055
    outer loop
      vertex 10.25 9.5 58.5695
      vertex 10.499 9.76 58.3323
      vertex 10.499 9.5 58.3323
    endloop
  endfacet
  facet normal -0.689654 -0 -0.724139
    outer loop
      vertex 3.499 9.76 64.999
      vertex 10.25 9.5 58.5695
      vertex 3.499 4.5 64.999
    endloop
  endfacet
  facet normal -0.689657 -0.000155848 -0.724136
    outer loop
      vertex 10.25 9.5 58.5695
      vertex 3.499 9.76 64.999
      vertex 10.499 9.76 58.3323
    endloop
  endfacet
  facet normal 1 -0 0
    outer loop
      vertex 10.499 9.5 60.7865
      vertex 10.499 9.76 58.3323
      vertex 10.499 9.76 61.0595
    endloop
  endfacet
  facet normal 1 0 0
    outer loop
      vertex 10.499 9.76 58.3323
      vertex 10.499 9.5 60.7865
      vertex 10.499 9.5 58.3323
    endloop
  endfacet
  facet normal 0 0 1
    outer loop
      vertex 10.24 9.76 64.999
      vertex 3.499 9.76 64.999
      vertex 10.24 8.75 64.999
    endloop
  endfacet
  facet normal -0 0 1
    outer loop
      vertex 10.24 8.75 64.999
      vertex 10.25 4.5 64.999
      vertex 10.25 8.75 64.999
    endloop
  endfacet
  facet normal 0 0 1
    outer loop
      vertex 3.499 4.5 64.999
      vertex 10.24 8.75 64.999
      vertex 3.499 9.76 64.999
    endloop
  endfacet
  facet normal 0 0 1
    outer loop
      vertex 10.24 8.75 64.999
      vertex 3.499 4.5 64.999
      vertex 10.25 4.5 64.999
    endloop
  endfacet
  facet normal 0 1 0
    outer loop
      vertex 10.499 9.76 61.0595
      vertex 10.499 9.76 58.3323
      vertex 10.24 9.76 61.0595
    endloop
  endfacet
  facet normal 0 1 -0
    outer loop
      vertex 10.24 9.76 61.0595
      vertex 3.499 9.76 64.999
      vertex 10.24 9.76 64.999
    endloop
  endfacet
  facet normal 0 1 0
    outer loop
      vertex 3.499 9.76 64.999
      vertex 10.24 9.76 61.0595
      vertex 10.499 9.76 58.3323
    endloop
  endfacet
  facet normal 0 -1 0
    outer loop
      vertex 10.25 8.75 64.999
      vertex 10.24 8.75 65
      vertex 10.24 8.75 64.999
    endloop
  endfacet
  facet normal 0 -1 0
    outer loop
      vertex 10.24 8.75 65
      vertex 10.25 8.75 64.999
      vertex 17.001 8.75 65
    endloop
  endfacet
  facet normal 0 -1 -0
    outer loop
      vertex 17.001 8.75 65
      vertex 10.25 8.75 64.999
      vertex 17.001 8.75 64.999
    endloop
  endfacet
  facet normal 1 -0 0
    outer loop
      vertex 17.25 9.5 65
      vertex 17.25 9.5 60.7865
      vertex 17.25 13.5129 65
    endloop
  endfacet
  facet normal 0 0.724134 -0.689659
    outer loop
      vertex 17.25 13.5129 65
      vertex 10.499 9.76 61.0595
      vertex 10.24 13.5129 65
    endloop
  endfacet
  facet normal -2.97847e-07 0.724134 -0.689659
    outer loop
      vertex 17.25 9.5 60.7865
      vertex 10.499 9.76 61.0595
      vertex 17.25 13.5129 65
    endloop
  endfacet
  facet normal 0 0.724138 -0.689655
    outer loop
      vertex 10.499 9.76 61.0595
      vertex 17.25 9.5 60.7865
      vertex 10.499 9.5 60.7865
    endloop
  endfacet
  facet normal 0 0.724134 -0.689659
    outer loop
      vertex 10.24 13.5129 65
      vertex 10.499 9.76 61.0595
      vertex 10.24 9.76 61.0595
    endloop
  endfacet
  facet normal -1 0 0
    outer loop
      vertex 10.24 9.76 64.999
      vertex 10.24 13.5129 65
      vertex 10.24 9.76 61.0595
    endloop
  endfacet
  facet normal -1 0 0
    outer loop
      vertex 10.24 8.75 65
      vertex 10.24 9.76 64.999
      vertex 10.24 8.75 64.999
    endloop
  endfacet
  facet normal -1 0 0
    outer loop
      vertex 10.24 9.76 64.999
      vertex 10.24 8.75 65
      vertex 10.24 13.5129 65
    endloop
  endfacet
endsolid OpenSCAD_Model
