solid OpenSCAD_Model
  facet normal 0.999804 1.73417e-06 -0.0198207
    outer loop
      vertex 12.4975 0 0.248527
      vertex 12.4951 -36.999 0.124228
      vertex 12.4778 0 -0.745189
    endloop
  endfacet
  facet normal 0.999814 0 -0.0193047
    outer loop
      vertex 12.4975 -37 0.248527
      vertex 12.4951 -36.999 0.124228
      vertex 12.4975 0 0.248527
    endloop
  endfacet
  facet normal 0.999814 0 -0.0193047
    outer loop
      vertex 12.4951 -36.999 0.124228
      vertex 12.4975 -37 0.248527
      vertex 12.4951 -37 0.124228
    endloop
  endfacet
  facet normal 0.999801 -7.66715e-07 -0.0199271
    outer loop
      vertex 12.4852 -36.999 -0.372485
      vertex 12.4778 0 -0.745189
      vertex 12.4951 -36.999 0.124228
    endloop
  endfacet
  facet normal 0.999803 0 -0.019851
    outer loop
      vertex 12.4778 -37 -0.745189
      vertex 12.4852 -36.999 -0.372485
      vertex 12.4852 -37 -0.372485
    endloop
  endfacet
  facet normal 0.999803 0 -0.019851
    outer loop
      vertex 12.4852 -36.999 -0.372485
      vertex 12.4778 -37 -0.745189
      vertex 12.4778 0 -0.745189
    endloop
  endfacet
  facet normal 0.685704 0 -0.727881
    outer loop
      vertex 8.20282 -37 -9.43206
      vertex 8.92627 0 -8.75053
      vertex 8.92627 -37 -8.75053
    endloop
  endfacet
  facet normal 0.685704 0 -0.727881
    outer loop
      vertex 8.92627 0 -8.75053
      vertex 8.20282 -37 -9.43206
      vertex 8.20282 0 -9.43206
    endloop
  endfacet
  facet normal 0.7141 -0 0.700044
    outer loop
      vertex 8.57132 -37 9.09848
      vertex 9.2671 0 8.38873
      vertex 8.57132 0 9.09848
    endloop
  endfacet
  facet normal 0.7141 0 0.700044
    outer loop
      vertex 9.2671 0 8.38873
      vertex 8.57132 -37 9.09848
      vertex 9.2671 -37 8.38873
    endloop
  endfacet
  facet normal -0.312803 0 0.949818
    outer loop
      vertex -4.37889 0 11.7079
      vertex -3.43485 -37 12.0188
      vertex -3.43485 0 12.0188
    endloop
  endfacet
  facet normal -0.312803 0 0.949818
    outer loop
      vertex -3.43485 -37 12.0188
      vertex -4.37889 0 11.7079
      vertex -4.37889 -37 11.7079
    endloop
  endfacet
  facet normal 0.423667 0 -0.905818
    outer loop
      vertex 4.84089 -37 -11.5246
      vertex 5.74122 0 -11.1035
      vertex 5.74122 -37 -11.1035
    endloop
  endfacet
  facet normal 0.423667 0 -0.905818
    outer loop
      vertex 5.74122 0 -11.1035
      vertex 4.84089 -37 -11.5246
      vertex 4.84089 0 -11.5246
    endloop
  endfacet
  facet normal 0.914105 0 -0.405477
    outer loop
      vertex 11.6185 -37 -4.6108
      vertex 11.2155 0 -5.51932
      vertex 11.6185 0 -4.6108
    endloop
  endfacet
  facet normal 0.914105 0 -0.405477
    outer loop
      vertex 11.2155 0 -5.51932
      vertex 11.6185 -37 -4.6108
      vertex 11.2155 -37 -5.51932
    endloop
  endfacet
  facet normal 0.594199 0 0.804318
    outer loop
      vertex 7.02193 0 10.3413
      vertex 7.82135 -37 9.75072
      vertex 7.82135 0 9.75072
    endloop
  endfacet
  facet normal 0.594199 0 0.804318
    outer loop
      vertex 7.82135 -37 9.75072
      vertex 7.02193 0 10.3413
      vertex 7.02193 -37 10.3413
    endloop
  endfacet
  facet normal 0.990328 -1.31311e-06 0.138745
    outer loop
      vertex 12.3004 0 2.22497
      vertex 12.3176 -36.999 2.10185
      vertex 12.4383 0 1.24067
    endloop
  endfacet
  facet normal 0.990382 -0 0.138358
    outer loop
      vertex 12.3004 -37 2.22497
      vertex 12.3176 -36.999 2.10185
      vertex 12.3004 0 2.22497
    endloop
  endfacet
  facet normal 0.990382 0 0.138358
    outer loop
      vertex 12.3176 -36.999 2.10185
      vertex 12.3004 -37 2.22497
      vertex 12.3176 -37 2.10185
    endloop
  endfacet
  facet normal 0.99031 1.81687e-06 0.138876
    outer loop
      vertex 12.3866 -36.999 1.60982
      vertex 12.4383 0 1.24067
      vertex 12.3176 -36.999 2.10185
    endloop
  endfacet
  facet normal 0.990335 0 0.138698
    outer loop
      vertex 12.4383 -37 1.24067
      vertex 12.3866 -36.999 1.60982
      vertex 12.3866 -37 1.60982
    endloop
  endfacet
  facet normal 0.990335 0 0.138698
    outer loop
      vertex 12.3866 -36.999 1.60982
      vertex 12.4383 -37 1.24067
      vertex 12.4383 0 1.24067
    endloop
  endfacet
  facet normal -0.494222 0 -0.869336
    outer loop
      vertex -6.60524 -37 -10.6123
      vertex -5.74122 0 -11.1035
      vertex -5.74122 -37 -11.1035
    endloop
  endfacet
  facet normal -0.494222 0 -0.869336
    outer loop
      vertex -5.74122 0 -11.1035
      vertex -6.60524 -37 -10.6123
      vertex -6.60524 0 -10.6123
    endloop
  endfacet
  facet normal -0.943413 0 -0.331619
    outer loop
      vertex -11.6185 -37 -4.6108
      vertex -11.9481 0 -3.67313
      vertex -11.6185 0 -4.6108
    endloop
  endfacet
  facet normal -0.943413 -0 -0.331619
    outer loop
      vertex -11.9481 0 -3.67313
      vertex -11.6185 -37 -4.6108
      vertex -11.9481 -37 -3.67313
    endloop
  endfacet
  facet normal -0.685704 0 -0.727881
    outer loop
      vertex -8.92627 -37 -8.75053
      vertex -8.20282 0 -9.43206
      vertex -8.20282 -37 -9.43206
    endloop
  endfacet
  facet normal -0.685704 0 -0.727881
    outer loop
      vertex -8.20282 0 -9.43206
      vertex -8.92627 -37 -8.75053
      vertex -8.92627 0 -8.75053
    endloop
  endfacet
  facet normal -0.274664 0 -0.96154
    outer loop
      vertex -3.90996 -37 -11.8728
      vertex -3.2 0 -12.0756
      vertex -3.2 -37 -12.0756
    endloop
  endfacet
  facet normal -0.274664 0 -0.96154
    outer loop
      vertex -3.2 0 -12.0756
      vertex -3.90996 -37 -11.8728
      vertex -3.90996 0 -11.8728
    endloop
  endfacet
  facet normal -0.955869 0 0.293795
    outer loop
      vertex -12.0847 -37 3.19521
      vertex -11.7927 0 4.14524
      vertex -12.0847 0 3.19521
    endloop
  endfacet
  facet normal -0.955869 0 0.293795
    outer loop
      vertex -11.7927 0 4.14524
      vertex -12.0847 -37 3.19521
      vertex -11.7927 -37 4.14524
    endloop
  endfacet
  facet normal -0.656232 0 0.75456
    outer loop
      vertex -8.57132 0 9.09848
      vertex -7.82135 -37 9.75072
      vertex -7.82135 0 9.75072
    endloop
  endfacet
  facet normal -0.656232 0 0.75456
    outer loop
      vertex -7.82135 -37 9.75072
      vertex -8.57132 0 9.09848
      vertex -8.57132 -37 9.09848
    endloop
  endfacet
  facet normal 0.350331 0 -0.936626
    outer loop
      vertex 3.90996 -37 -11.8728
      vertex 4.84089 0 -11.5246
      vertex 4.84089 -37 -11.5246
    endloop
  endfacet
  facet normal 0.350331 0 -0.936626
    outer loop
      vertex 4.84089 0 -11.5246
      vertex 3.90996 -37 -11.8728
      vertex 3.90996 0 -11.8728
    endloop
  endfacet
  facet normal 0.561729 0 -0.827321
    outer loop
      vertex 6.60524 -37 -10.6123
      vertex 7.42751 0 -10.054
      vertex 7.42751 -37 -10.054
    endloop
  endfacet
  facet normal 0.561729 0 -0.827321
    outer loop
      vertex 7.42751 0 -10.054
      vertex 6.60524 -37 -10.6123
      vertex 6.60524 0 -10.6123
    endloop
  endfacet
  facet normal 0.625732 0 -0.780038
    outer loop
      vertex 7.42751 -37 -10.054
      vertex 8.20282 0 -9.43206
      vertex 8.20282 -37 -9.43206
    endloop
  endfacet
  facet normal 0.625732 0 -0.780038
    outer loop
      vertex 8.20282 0 -9.43206
      vertex 7.42751 -37 -10.054
      vertex 7.42751 0 -10.054
    endloop
  endfacet
  facet normal 0.494222 0 -0.869336
    outer loop
      vertex 5.74122 -37 -11.1035
      vertex 6.60524 0 -10.6123
      vertex 6.60524 -37 -10.6123
    endloop
  endfacet
  facet normal 0.494222 0 -0.869336
    outer loop
      vertex 6.60524 0 -10.6123
      vertex 5.74122 -37 -11.1035
      vertex 5.74122 0 -11.1035
    endloop
  endfacet
  facet normal 0.966769 -3.75261e-07 -0.255652
    outer loop
      vertex 12.2022 0 -2.71223
      vertex 12.1704 -36.999 -2.83243
      vertex 11.9481 0 -3.67313
    endloop
  endfacet
  facet normal 0.96674 0 -0.25576
    outer loop
      vertex 12.2022 -37 -2.71223
      vertex 12.1704 -36.999 -2.83243
      vertex 12.2022 0 -2.71223
    endloop
  endfacet
  facet normal 0.96674 0 -0.25576
    outer loop
      vertex 12.1704 -36.999 -2.83243
      vertex 12.2022 -37 -2.71223
      vertex 12.1704 -37 -2.83243
    endloop
  endfacet
  facet normal 0.966781 7.84142e-07 -0.255604
    outer loop
      vertex 12.06 -36.999 -3.25
      vertex 11.9481 0 -3.67313
      vertex 12.1704 -36.999 -2.83243
    endloop
  endfacet
  facet normal 0.966765 0 -0.255668
    outer loop
      vertex 11.9481 -37 -3.67313
      vertex 12.06 -36.999 -3.25
      vertex 12.06 -37 -3.25
    endloop
  endfacet
  facet normal 0.966765 0 -0.255668
    outer loop
      vertex 12.06 -36.999 -3.25
      vertex 11.9481 -37 -3.67313
      vertex 11.9481 0 -3.67313
    endloop
  endfacet
  facet normal 0.943413 0 -0.331619
    outer loop
      vertex 11.9481 -37 -3.67313
      vertex 11.6185 0 -4.6108
      vertex 11.9481 0 -3.67313
    endloop
  endfacet
  facet normal 0.943413 0 -0.331619
    outer loop
      vertex 11.6185 0 -4.6108
      vertex 11.9481 -37 -3.67313
      vertex 11.6185 -37 -4.6108
    endloop
  endfacet
  facet normal 0.878959 0 -0.476897
    outer loop
      vertex 11.2155 -37 -5.51932
      vertex 10.7415 0 -6.39294
      vertex 11.2155 0 -5.51932
    endloop
  endfacet
  facet normal 0.878959 0 -0.476897
    outer loop
      vertex 10.7415 0 -6.39294
      vertex 11.2155 -37 -5.51932
      vertex 10.7415 -37 -6.39294
    endloop
  endfacet
  facet normal 0.741372 0 -0.671094
    outer loop
      vertex 9.59328 -37 -8.01367
      vertex 8.92627 0 -8.75053
      vertex 9.59328 0 -8.01367
    endloop
  endfacet
  facet normal 0.741372 0 -0.671094
    outer loop
      vertex 8.92627 0 -8.75053
      vertex 9.59328 -37 -8.01367
      vertex 8.92627 -37 -8.75053
    endloop
  endfacet
  facet normal 0.236251 0 0.971692
    outer loop
      vertex 3.2 0 12.0759
      vertex 3.43485 -37 12.0188
      vertex 3.43485 0 12.0188
    endloop
  endfacet
  facet normal 0.236251 0 0.971692
    outer loop
      vertex 3.43485 -37 12.0188
      vertex 3.2 0 12.0759
      vertex 3.2 -37 12.0759
    endloop
  endfacet
  facet normal 0.387261 0 0.92197
    outer loop
      vertex 4.37889 0 11.7079
      vertex 5.29524 -37 11.323
      vertex 5.29524 0 11.323
    endloop
  endfacet
  facet normal 0.387261 0 0.92197
    outer loop
      vertex 5.29524 -37 11.323
      vertex 4.37889 0 11.7079
      vertex 4.37889 -37 11.7079
    endloop
  endfacet
  facet normal 0.459298 0 0.888282
    outer loop
      vertex 5.29524 0 11.323
      vertex 6.17811 -37 10.8665
      vertex 6.17811 0 10.8665
    endloop
  endfacet
  facet normal 0.459298 0 0.888282
    outer loop
      vertex 6.17811 -37 10.8665
      vertex 5.29524 0 11.323
      vertex 5.29524 -37 11.323
    endloop
  endfacet
  facet normal 0.312803 0 0.949818
    outer loop
      vertex 3.43485 0 12.0188
      vertex 4.37889 -37 11.7079
      vertex 4.37889 0 11.7079
    endloop
  endfacet
  facet normal 0.312803 0 0.949818
    outer loop
      vertex 4.37889 -37 11.7079
      vertex 3.43485 0 12.0188
      vertex 3.43485 -37 12.0188
    endloop
  endfacet
  facet normal 0 -1 0
    outer loop
      vertex -3.2 -37 9
      vertex -3.43485 -37 12.0188
      vertex -4.37889 -37 11.7079
    endloop
  endfacet
  facet normal 0 -1 0
    outer loop
      vertex -3.2 -37 9
      vertex -4.37889 -37 11.7079
      vertex -5.29524 -37 11.323
    endloop
  endfacet
  facet normal 0 -1 0
    outer loop
      vertex -3.2 -37 9
      vertex -5.29524 -37 11.323
      vertex -6.17811 -37 10.8665
    endloop
  endfacet
  facet normal 0 -1 0
    outer loop
      vertex -3.2 -37 9
      vertex -6.17811 -37 10.8665
      vertex -7.02193 -37 10.3413
    endloop
  endfacet
  facet normal 0 -1 0
    outer loop
      vertex -3.2 -37 9
      vertex -7.02193 -37 10.3413
      vertex -7.82135 -37 9.75072
    endloop
  endfacet
  facet normal 0 -1 0
    outer loop
      vertex -3.2 -37 9
      vertex -7.82135 -37 9.75072
      vertex -8.57132 -37 9.09848
    endloop
  endfacet
  facet normal 0 -1 0
    outer loop
      vertex -3.43485 -37 12.0188
      vertex -3.2 -37 9
      vertex -3.2 -37 12.0759
    endloop
  endfacet
  facet normal 0 -1 0
    outer loop
      vertex -9.5 -37 3.25
      vertex -3.2 -37 9
      vertex -9.2671 -37 8.38873
    endloop
  endfacet
  facet normal 0 -1 0
    outer loop
      vertex -9.2671 -37 8.38873
      vertex -3.2 -37 9
      vertex -8.57132 -37 9.09848
    endloop
  endfacet
  facet normal 0 -1 0
    outer loop
      vertex 3.2 -37 9
      vertex 3.43485 -37 12.0188
      vertex 3.2 -37 12.0759
    endloop
  endfacet
  facet normal 0 -1 -0
    outer loop
      vertex 3.43485 -37 12.0188
      vertex 3.2 -37 9
      vertex 4.37889 -37 11.7079
    endloop
  endfacet
  facet normal 0 -1 -0
    outer loop
      vertex 4.37889 -37 11.7079
      vertex 3.2 -37 9
      vertex 5.29524 -37 11.323
    endloop
  endfacet
  facet normal 0 -1 -0
    outer loop
      vertex 5.29524 -37 11.323
      vertex 3.2 -37 9
      vertex 6.17811 -37 10.8665
    endloop
  endfacet
  facet normal 0 -1 -0
    outer loop
      vertex 6.17811 -37 10.8665
      vertex 3.2 -37 9
      vertex 7.02193 -37 10.3413
    endloop
  endfacet
  facet normal 0 -1 -0
    outer loop
      vertex 7.02193 -37 10.3413
      vertex 3.2 -37 9
      vertex 7.82135 -37 9.75072
    endloop
  endfacet
  facet normal 0 -1 -0
    outer loop
      vertex 7.82135 -37 9.75072
      vertex 3.2 -37 9
      vertex 8.57132 -37 9.09848
    endloop
  endfacet
  facet normal -0 -1 0
    outer loop
      vertex 0 -37 2.5
      vertex -3.2 -37 9
      vertex -0.956708 -37 2.3097
    endloop
  endfacet
  facet normal 0 -1 0
    outer loop
      vertex 0.956708 -37 2.3097
      vertex 3.2 -37 9
      vertex 0 -37 2.5
    endloop
  endfacet
  facet normal 0 -1 0
    outer loop
      vertex -9.5 -37 3.25
      vertex -9.2671 -37 8.38873
      vertex -9.90429 -37 7.62594
    endloop
  endfacet
  facet normal 0 -1 0
    outer loop
      vertex 1.76777 -37 1.76777
      vertex 3.2 -37 9
      vertex 0.956708 -37 2.3097
    endloop
  endfacet
  facet normal 0 -1 0
    outer loop
      vertex -9.5 -37 3.25
      vertex -9.90429 -37 7.62594
      vertex -10.4789 -37 6.81493
    endloop
  endfacet
  facet normal -0 -1 0
    outer loop
      vertex 9.5 -37 3.25
      vertex 3.2 -37 9
      vertex 1.76777 -37 1.76777
    endloop
  endfacet
  facet normal 0 -1 0
    outer loop
      vertex -9.5 -37 3.25
      vertex -10.4789 -37 6.81493
      vertex -10.9872 -37 5.96084
    endloop
  endfacet
  facet normal -0 -1 -0
    outer loop
      vertex 9.2671 -37 8.38873
      vertex 3.2 -37 9
      vertex 9.5 -37 3.25
    endloop
  endfacet
  facet normal 0 -1 0
    outer loop
      vertex -9.5 -37 3.25
      vertex -10.9872 -37 5.96084
      vertex -11.426 -37 5.06907
    endloop
  endfacet
  facet normal 0 -1 0
    outer loop
      vertex 3.2 -37 9
      vertex 9.2671 -37 8.38873
      vertex 8.57132 -37 9.09848
    endloop
  endfacet
  facet normal 0 -1 0
    outer loop
      vertex -9.5 -37 3.25
      vertex -11.426 -37 5.06907
      vertex -11.7927 -37 4.14524
    endloop
  endfacet
  facet normal 0 -1 0
    outer loop
      vertex 9.2671 -37 8.38873
      vertex 9.5 -37 3.25
      vertex 9.90429 -37 7.62594
    endloop
  endfacet
  facet normal 0 -1 0
    outer loop
      vertex -9.5 -37 3.25
      vertex -11.7927 -37 4.14524
      vertex -12.0638 -37 3.25
    endloop
  endfacet
  facet normal 0 -1 0
    outer loop
      vertex -12.0847 -37 3.19521
      vertex -12.0638 -37 3.25
      vertex -11.7927 -37 4.14524
    endloop
  endfacet
  facet normal 0 -1 0
    outer loop
      vertex -12.0638 -37 3.25
      vertex -12.0847 -37 3.19521
      vertex -12.1656 -37 2.83131
    endloop
  endfacet
  facet normal 0 -1 -0
    outer loop
      vertex 11.426 -37 5.06907
      vertex 9.5 -37 3.25
      vertex 11.7927 -37 4.14524
    endloop
  endfacet
  facet normal 0 -1 0
    outer loop
      vertex -3.2 -37 9
      vertex 0 -37 2.5
      vertex 3.2 -37 9
    endloop
  endfacet
  facet normal 0 -1 0
    outer loop
      vertex -3.2 -37 9
      vertex -1.76777 -37 1.76777
      vertex -0.956708 -37 2.3097
    endloop
  endfacet
  facet normal 0 -1 0
    outer loop
      vertex -9.5 -37 3.25
      vertex -2.3097 -37 0.956708
      vertex -1.76777 -37 1.76777
    endloop
  endfacet
  facet normal 0 -1 0
    outer loop
      vertex -9.5 -37 3.25
      vertex -2.5 -37 0
      vertex -2.3097 -37 0.956708
    endloop
  endfacet
  facet normal 0 -1 0
    outer loop
      vertex -9.5 -37 -3.25
      vertex -2.5 -37 0
      vertex -9.5 -37 3.25
    endloop
  endfacet
  facet normal 0 -1 -0
    outer loop
      vertex -2.5 -37 0
      vertex -9.5 -37 -3.25
      vertex -2.3097 -37 -0.956708
    endloop
  endfacet
  facet normal 0 -1 -0
    outer loop
      vertex -2.3097 -37 -0.956708
      vertex -9.5 -37 -3.25
      vertex -1.76777 -37 -1.76777
    endloop
  endfacet
  facet normal 0 -1 -0
    outer loop
      vertex -0.956708 -37 -2.3097
      vertex -9.5 -37 -3.25
      vertex 0 -37 -2.5
    endloop
  endfacet
  facet normal 0 -1 -0
    outer loop
      vertex -1.76777 -37 -1.76777
      vertex -9.5 -37 -3.25
      vertex -0.956708 -37 -2.3097
    endloop
  endfacet
  facet normal 0 -1 -0
    outer loop
      vertex -3.2 -37 9
      vertex -9.5 -37 3.25
      vertex -1.76777 -37 1.76777
    endloop
  endfacet
  facet normal 0 -1 -0
    outer loop
      vertex 10.4789 -37 6.81493
      vertex 9.5 -37 3.25
      vertex 10.9872 -37 5.96084
    endloop
  endfacet
  facet normal 0 -1 0
    outer loop
      vertex 12.0614 -37 3.25
      vertex 11.7927 -37 4.14524
      vertex 9.5 -37 3.25
    endloop
  endfacet
  facet normal 0 -1 0
    outer loop
      vertex 12.0614 -37 3.25
      vertex 12.0847 -37 3.19521
      vertex 11.7927 -37 4.14524
    endloop
  endfacet
  facet normal -0 -1 -0
    outer loop
      vertex 12.0847 -37 3.19521
      vertex 12.0614 -37 3.25
      vertex 12.1117 -37 3.07384
    endloop
  endfacet
  facet normal 0 -1 0
    outer loop
      vertex -11.9481 -37 -3.67313
      vertex -9.5 -37 -3.25
      vertex -12.06 -37 -3.25
    endloop
  endfacet
  facet normal 0 -1 0
    outer loop
      vertex -9.5 -37 -3.25
      vertex -3.2 -37 -9
      vertex 9.5 -37 -3.25
    endloop
  endfacet
  facet normal 0 -1 0
    outer loop
      vertex -11.6185 -37 -4.6108
      vertex -9.5 -37 -3.25
      vertex -11.9481 -37 -3.67313
    endloop
  endfacet
  facet normal 0 -1 0
    outer loop
      vertex 3.2 -37 -9
      vertex 9.5 -37 -3.25
      vertex -3.2 -37 -9
    endloop
  endfacet
  facet normal 0 -1 0
    outer loop
      vertex -11.2155 -37 -5.51932
      vertex -9.5 -37 -3.25
      vertex -11.6185 -37 -4.6108
    endloop
  endfacet
  facet normal -0 -1 0
    outer loop
      vertex 8.92627 -37 -8.75053
      vertex 9.5 -37 -3.25
      vertex 3.2 -37 -9
    endloop
  endfacet
  facet normal 0 -1 0
    outer loop
      vertex -10.7415 -37 -6.39294
      vertex -9.5 -37 -3.25
      vertex -11.2155 -37 -5.51932
    endloop
  endfacet
  facet normal 0 -1 0
    outer loop
      vertex 9.5 -37 -3.25
      vertex 11.9481 -37 -3.67313
      vertex 12.06 -37 -3.25
    endloop
  endfacet
  facet normal 0 -1 0
    outer loop
      vertex -10.1996 -37 -7.22615
      vertex -9.5 -37 -3.25
      vertex -10.7415 -37 -6.39294
    endloop
  endfacet
  facet normal 0 -1 0
    outer loop
      vertex 9.5 -37 -3.25
      vertex 11.6185 -37 -4.6108
      vertex 11.9481 -37 -3.67313
    endloop
  endfacet
  facet normal 0 -1 0
    outer loop
      vertex -9.59328 -37 -8.01367
      vertex -9.5 -37 -3.25
      vertex -10.1996 -37 -7.22615
    endloop
  endfacet
  facet normal 0 -1 0
    outer loop
      vertex 9.5 -37 -3.25
      vertex 11.2155 -37 -5.51932
      vertex 11.6185 -37 -4.6108
    endloop
  endfacet
  facet normal 0 -1 0
    outer loop
      vertex -8.92627 -37 -8.75053
      vertex -9.5 -37 -3.25
      vertex -9.59328 -37 -8.01367
    endloop
  endfacet
  facet normal 0 -1 0
    outer loop
      vertex 9.5 -37 -3.25
      vertex 10.7415 -37 -6.39294
      vertex 11.2155 -37 -5.51932
    endloop
  endfacet
  facet normal 0 -1 0
    outer loop
      vertex -9.5 -37 -3.25
      vertex -8.92627 -37 -8.75053
      vertex -3.2 -37 -9
    endloop
  endfacet
  facet normal 0 -1 0
    outer loop
      vertex 9.5 -37 -3.25
      vertex 10.1996 -37 -7.22615
      vertex 10.7415 -37 -6.39294
    endloop
  endfacet
  facet normal 0 -1 0
    outer loop
      vertex 9.5 -37 -3.25
      vertex 9.59328 -37 -8.01367
      vertex 10.1996 -37 -7.22615
    endloop
  endfacet
  facet normal 0 -1 0
    outer loop
      vertex -8.20282 -37 -9.43206
      vertex -3.2 -37 -9
      vertex -8.92627 -37 -8.75053
    endloop
  endfacet
  facet normal 0 -1 0
    outer loop
      vertex -7.42751 -37 -10.054
      vertex -3.2 -37 -9
      vertex -8.20282 -37 -9.43206
    endloop
  endfacet
  facet normal 0 -1 0
    outer loop
      vertex -6.60524 -37 -10.6123
      vertex -3.2 -37 -9
      vertex -7.42751 -37 -10.054
    endloop
  endfacet
  facet normal 0 -1 0
    outer loop
      vertex -5.74122 -37 -11.1035
      vertex -3.2 -37 -9
      vertex -6.60524 -37 -10.6123
    endloop
  endfacet
  facet normal 0 -1 0
    outer loop
      vertex -4.84089 -37 -11.5246
      vertex -3.2 -37 -9
      vertex -5.74122 -37 -11.1035
    endloop
  endfacet
  facet normal 0 -1 0
    outer loop
      vertex -3.90996 -37 -11.8728
      vertex -3.2 -37 -9
      vertex -4.84089 -37 -11.5246
    endloop
  endfacet
  facet normal 0 -1 -0
    outer loop
      vertex -3.2 -37 -9
      vertex -3.90996 -37 -11.8728
      vertex -3.2 -37 -12.0756
    endloop
  endfacet
  facet normal 0 -1 -0
    outer loop
      vertex 9.5 -37 -3.25
      vertex 8.92627 -37 -8.75053
      vertex 9.59328 -37 -8.01367
    endloop
  endfacet
  facet normal 0 -1 0
    outer loop
      vertex 3.2 -37 -9
      vertex 8.20282 -37 -9.43206
      vertex 8.92627 -37 -8.75053
    endloop
  endfacet
  facet normal 0 -1 0
    outer loop
      vertex 3.2 -37 -9
      vertex 7.42751 -37 -10.054
      vertex 8.20282 -37 -9.43206
    endloop
  endfacet
  facet normal 0 -1 0
    outer loop
      vertex 3.2 -37 -9
      vertex 6.60524 -37 -10.6123
      vertex 7.42751 -37 -10.054
    endloop
  endfacet
  facet normal 0 -1 0
    outer loop
      vertex 3.2 -37 -9
      vertex 5.74122 -37 -11.1035
      vertex 6.60524 -37 -10.6123
    endloop
  endfacet
  facet normal 0 -1 0
    outer loop
      vertex 3.2 -37 -9
      vertex 4.84089 -37 -11.5246
      vertex 5.74122 -37 -11.1035
    endloop
  endfacet
  facet normal 0 -1 0
    outer loop
      vertex 3.2 -37 -9
      vertex 3.90996 -37 -11.8728
      vertex 4.84089 -37 -11.5246
    endloop
  endfacet
  facet normal -0 -1 0
    outer loop
      vertex 3.90996 -37 -11.8728
      vertex 3.2 -37 -9
      vertex 3.2 -37 -12.0756
    endloop
  endfacet
  facet normal 0 -1 -0
    outer loop
      vertex 10.9872 -37 5.96084
      vertex 9.5 -37 3.25
      vertex 11.426 -37 5.06907
    endloop
  endfacet
  facet normal 0 -1 -0
    outer loop
      vertex 9.90429 -37 7.62594
      vertex 9.5 -37 3.25
      vertex 10.4789 -37 6.81493
    endloop
  endfacet
  facet normal 0 -1 0
    outer loop
      vertex 2.3097 -37 0.956708
      vertex 9.5 -37 3.25
      vertex 1.76777 -37 1.76777
    endloop
  endfacet
  facet normal 0 -1 0
    outer loop
      vertex 2.5 -37 0
      vertex 9.5 -37 3.25
      vertex 2.3097 -37 0.956708
    endloop
  endfacet
  facet normal 0 -1 0
    outer loop
      vertex 9.5 -37 -3.25
      vertex 2.5 -37 0
      vertex 2.3097 -37 -0.956708
    endloop
  endfacet
  facet normal 0 -1 0
    outer loop
      vertex 9.5 -37 -3.25
      vertex 2.3097 -37 -0.956708
      vertex 1.76777 -37 -1.76777
    endloop
  endfacet
  facet normal 0 -1 0
    outer loop
      vertex 9.5 -37 -3.25
      vertex 1.76777 -37 -1.76777
      vertex 0.956708 -37 -2.3097
    endloop
  endfacet
  facet normal 0 -1 0
    outer loop
      vertex 2.5 -37 0
      vertex 9.5 -37 -3.25
      vertex 9.5 -37 3.25
    endloop
  endfacet
  facet normal 0 -1 0
    outer loop
      vertex 0 -37 -2.5
      vertex 9.5 -37 -3.25
      vertex 0.956708 -37 -2.3097
    endloop
  endfacet
  facet normal 0 -1 0
    outer loop
      vertex 9.5 -37 -3.25
      vertex 0 -37 -2.5
      vertex -9.5 -37 -3.25
    endloop
  endfacet
  facet normal -0 -1 0
    outer loop
      vertex 12.3791 -37 -1.73419
      vertex 12.4161 -37 -1.36327
      vertex 12.357 -37 -1.85653
    endloop
  endfacet
  facet normal -0 -1 0
    outer loop
      vertex 12.4778 -37 -0.745189
      vertex 12.4852 -37 -0.372485
      vertex 12.4654 -37 -0.868899
    endloop
  endfacet
  facet normal -0 -1 -0
    outer loop
      vertex 12.3004 -37 2.22497
      vertex 12.2195 -37 2.58887
      vertex 12.3176 -37 2.10185
    endloop
  endfacet
  facet normal -0 -1 -0
    outer loop
      vertex 12.4383 -37 1.24067
      vertex 12.3866 -37 1.60982
      vertex 12.4457 -37 1.11658
    endloop
  endfacet
  facet normal -0 -1 0
    outer loop
      vertex 12.4975 -37 0.248527
      vertex 12.4753 -37 0.620628
      vertex 12.4951 -37 0.124228
    endloop
  endfacet
  facet normal 0 -1 0
    outer loop
      vertex -12.4605 -37 0.868547
      vertex -12.421 -37 1.3638
      vertex -12.4383 -37 1.24067
    endloop
  endfacet
  facet normal 0 -1 0
    outer loop
      vertex -12.4901 -37 -0.124195
      vertex -12.4901 -37 0.372635
      vertex -12.4975 -37 0.248527
    endloop
  endfacet
  facet normal -0 -1 0
    outer loop
      vertex 12.2022 -37 -2.71223
      vertex 12.2686 -37 -2.34541
      vertex 12.1704 -37 -2.83243
    endloop
  endfacet
  facet normal 0 -1 0
    outer loop
      vertex -12.4408 -37 -1.11616
      vertex -12.4802 -37 -0.620881
      vertex -12.4778 -37 -0.745189
    endloop
  endfacet
  facet normal 0 -1 0
    outer loop
      vertex -12.1069 -37 -3.07263
      vertex -12.2243 -37 -2.58989
      vertex -12.2022 -37 -2.71223
    endloop
  endfacet
  facet normal 0 -1 0
    outer loop
      vertex -12.3521 -37 1.85578
      vertex -12.2734 -37 2.34634
      vertex -12.3004 -37 2.22497
    endloop
  endfacet
  facet normal 0 -1 0
    outer loop
      vertex -12.3128 -37 -2.10104
      vertex -12.3915 -37 -1.61047
      vertex -12.3791 -37 -1.73419
    endloop
  endfacet
  facet normal 0.859331 -0 0.511419
    outer loop
      vertex 10.4789 -37 6.81493
      vertex 10.9872 0 5.96084
      vertex 10.4789 0 6.81493
    endloop
  endfacet
  facet normal 0.859331 0 0.511419
    outer loop
      vertex 10.9872 0 5.96084
      vertex 10.4789 -37 6.81493
      vertex 10.9872 -37 5.96084
    endloop
  endfacet
  facet normal 0.976168 4.6149e-07 0.217018
    outer loop
      vertex 12.0847 0 3.19521
      vertex 12.1117 -36.999 3.07384
      vertex 12.3004 0 2.22497
    endloop
  endfacet
  facet normal 0.976138 -0 0.217152
    outer loop
      vertex 12.0847 -37 3.19521
      vertex 12.1117 -36.999 3.07384
      vertex 12.0847 0 3.19521
    endloop
  endfacet
  facet normal 0.976138 0 0.217152
    outer loop
      vertex 12.1117 -36.999 3.07384
      vertex 12.0847 -37 3.19521
      vertex 12.1117 -37 3.07384
    endloop
  endfacet
  facet normal 0.976175 -3.0754e-07 0.216986
    outer loop
      vertex 12.2195 -36.999 2.58887
      vertex 12.3004 0 2.22497
      vertex 12.1117 -36.999 3.07384
    endloop
  endfacet
  facet normal 0.976168 0 0.217016
    outer loop
      vertex 12.3004 -37 2.22497
      vertex 12.2195 -36.999 2.58887
      vertex 12.2195 -37 2.58887
    endloop
  endfacet
  facet normal 0.976168 0 0.217016
    outer loop
      vertex 12.2195 -36.999 2.58887
      vertex 12.3004 -37 2.22497
      vertex 12.3004 0 2.22497
    endloop
  endfacet
  facet normal 0.998225 -1.16111e-07 0.0595629
    outer loop
      vertex 12.4383 0 1.24067
      vertex 12.4457 -36.999 1.11658
      vertex 12.4975 0 0.248527
    endloop
  endfacet
  facet normal 0.998227 -0 0.0595284
    outer loop
      vertex 12.4383 -37 1.24067
      vertex 12.4457 -36.999 1.11658
      vertex 12.4383 0 1.24067
    endloop
  endfacet
  facet normal 0.998227 0 0.0595284
    outer loop
      vertex 12.4457 -36.999 1.11658
      vertex 12.4383 -37 1.24067
      vertex 12.4457 -37 1.11658
    endloop
  endfacet
  facet normal 0.998224 2.20603e-07 0.0595772
    outer loop
      vertex 12.4753 -36.999 0.620628
      vertex 12.4975 0 0.248527
      vertex 12.4457 -36.999 1.11658
    endloop
  endfacet
  facet normal 0.998225 0 0.0595553
    outer loop
      vertex 12.4975 -37 0.248527
      vertex 12.4753 -36.999 0.620628
      vertex 12.4753 -37 0.620628
    endloop
  endfacet
  facet normal 0.998225 0 0.0595553
    outer loop
      vertex 12.4753 -36.999 0.620628
      vertex 12.4975 -37 0.248527
      vertex 12.4975 0 0.248527
    endloop
  endfacet
  facet normal -0.878959 0 -0.476897
    outer loop
      vertex -10.7415 -37 -6.39294
      vertex -11.2155 0 -5.51932
      vertex -10.7415 0 -6.39294
    endloop
  endfacet
  facet normal -0.878959 -0 -0.476897
    outer loop
      vertex -11.2155 0 -5.51932
      vertex -10.7415 -37 -6.39294
      vertex -11.2155 -37 -5.51932
    endloop
  endfacet
  facet normal -0.741372 0 -0.671094
    outer loop
      vertex -8.92627 -37 -8.75053
      vertex -9.59328 0 -8.01367
      vertex -8.92627 0 -8.75053
    endloop
  endfacet
  facet normal -0.741372 -0 -0.671094
    outer loop
      vertex -9.59328 0 -8.01367
      vertex -8.92627 -37 -8.75053
      vertex -9.59328 -37 -8.01367
    endloop
  endfacet
  facet normal -0.838299 0 -0.54521
    outer loop
      vertex -10.1996 -37 -7.22615
      vertex -10.7415 0 -6.39294
      vertex -10.1996 0 -7.22615
    endloop
  endfacet
  facet normal -0.838299 -0 -0.54521
    outer loop
      vertex -10.7415 0 -6.39294
      vertex -10.1996 -37 -7.22615
      vertex -10.7415 -37 -6.39294
    endloop
  endfacet
  facet normal -0.625732 0 -0.780038
    outer loop
      vertex -8.20282 -37 -9.43206
      vertex -7.42751 0 -10.054
      vertex -7.42751 -37 -10.054
    endloop
  endfacet
  facet normal -0.625732 0 -0.780038
    outer loop
      vertex -7.42751 0 -10.054
      vertex -8.20282 -37 -9.43206
      vertex -8.20282 0 -9.43206
    endloop
  endfacet
  facet normal -0.561729 0 -0.827321
    outer loop
      vertex -7.42751 -37 -10.054
      vertex -6.60524 0 -10.6123
      vertex -6.60524 -37 -10.6123
    endloop
  endfacet
  facet normal -0.561729 0 -0.827321
    outer loop
      vertex -6.60524 0 -10.6123
      vertex -7.42751 -37 -10.054
      vertex -7.42751 0 -10.054
    endloop
  endfacet
  facet normal -0.350331 0 -0.936626
    outer loop
      vertex -4.84089 -37 -11.5246
      vertex -3.90996 0 -11.8728
      vertex -3.90996 -37 -11.8728
    endloop
  endfacet
  facet normal -0.350331 0 -0.936626
    outer loop
      vertex -3.90996 0 -11.8728
      vertex -4.84089 -37 -11.5246
      vertex -4.84089 0 -11.5246
    endloop
  endfacet
  facet normal -0.767463 0 0.641093
    outer loop
      vertex -9.90429 -37 7.62594
      vertex -9.2671 0 8.38873
      vertex -9.90429 0 7.62594
    endloop
  endfacet
  facet normal -0.767463 0 0.641093
    outer loop
      vertex -9.2671 0 8.38873
      vertex -9.90429 -37 7.62594
      vertex -9.2671 -37 8.38873
    endloop
  endfacet
  facet normal -0.815956 0 0.578114
    outer loop
      vertex -10.4789 -37 6.81493
      vertex -9.90429 0 7.62594
      vertex -10.4789 0 6.81493
    endloop
  endfacet
  facet normal -0.815956 0 0.578114
    outer loop
      vertex -9.90429 0 7.62594
      vertex -10.4789 -37 6.81493
      vertex -9.90429 -37 7.62594
    endloop
  endfacet
  facet normal -0.998225 1.45088e-07 0.0595629
    outer loop
      vertex -12.4975 0 0.248527
      vertex -12.4901 -36.999 0.372635
      vertex -12.4383 0 1.24067
    endloop
  endfacet
  facet normal -0.998227 0 0.0595198
    outer loop
      vertex -12.4975 -37 0.248527
      vertex -12.4901 -36.999 0.372635
      vertex -12.4975 0 0.248527
    endloop
  endfacet
  facet normal -0.998227 0 0.0595198
    outer loop
      vertex -12.4901 -36.999 0.372635
      vertex -12.4975 -37 0.248527
      vertex -12.4901 -37 0.372635
    endloop
  endfacet
  facet normal -0.998223 -3.04359e-07 0.059582
    outer loop
      vertex -12.4605 -36.999 0.868547
      vertex -12.4383 0 1.24067
      vertex -12.4901 -36.999 0.372635
    endloop
  endfacet
  facet normal -0.998225 0 0.0595518
    outer loop
      vertex -12.4383 -37 1.24067
      vertex -12.4605 -36.999 0.868547
      vertex -12.4605 -37 0.868547
    endloop
  endfacet
  facet normal -0.998225 0 0.0595518
    outer loop
      vertex -12.4605 -36.999 0.868547
      vertex -12.4383 -37 1.24067
      vertex -12.4383 0 1.24067
    endloop
  endfacet
  facet normal -0.528415 0 0.848986
    outer loop
      vertex -7.02193 0 10.3413
      vertex -6.17811 -37 10.8665
      vertex -6.17811 0 10.8665
    endloop
  endfacet
  facet normal -0.528415 0 0.848986
    outer loop
      vertex -6.17811 -37 10.8665
      vertex -7.02193 0 10.3413
      vertex -7.02193 -37 10.3413
    endloop
  endfacet
  facet normal -0.459298 0 0.888282
    outer loop
      vertex -6.17811 0 10.8665
      vertex -5.29524 -37 11.323
      vertex -5.29524 0 11.323
    endloop
  endfacet
  facet normal -0.459298 0 0.888282
    outer loop
      vertex -5.29524 -37 11.323
      vertex -6.17811 0 10.8665
      vertex -6.17811 -37 10.8665
    endloop
  endfacet
  facet normal -0.594199 0 0.804318
    outer loop
      vertex -7.82135 0 9.75072
      vertex -7.02193 -37 10.3413
      vertex -7.02193 0 10.3413
    endloop
  endfacet
  facet normal -0.594199 0 0.804318
    outer loop
      vertex -7.02193 -37 10.3413
      vertex -7.82135 0 9.75072
      vertex -7.82135 -37 9.75072
    endloop
  endfacet
  facet normal -0.387261 0 0.92197
    outer loop
      vertex -5.29524 0 11.323
      vertex -4.37889 -37 11.7079
      vertex -4.37889 0 11.7079
    endloop
  endfacet
  facet normal -0.387261 0 0.92197
    outer loop
      vertex -4.37889 -37 11.7079
      vertex -5.29524 0 11.323
      vertex -5.29524 -37 11.323
    endloop
  endfacet
  facet normal 0 1 0
    outer loop
      vertex 3.2 0 9
      vertex 3.43485 0 12.0188
      vertex 4.37889 0 11.7079
    endloop
  endfacet
  facet normal 0 1 0
    outer loop
      vertex 3.2 0 9
      vertex 4.37889 0 11.7079
      vertex 5.29524 0 11.323
    endloop
  endfacet
  facet normal 0 1 0
    outer loop
      vertex 3.2 0 9
      vertex 5.29524 0 11.323
      vertex 6.17811 0 10.8665
    endloop
  endfacet
  facet normal 0 1 0
    outer loop
      vertex 3.2 0 9
      vertex 6.17811 0 10.8665
      vertex 7.02193 0 10.3413
    endloop
  endfacet
  facet normal 0 1 0
    outer loop
      vertex 3.2 0 9
      vertex 7.02193 0 10.3413
      vertex 7.82135 0 9.75072
    endloop
  endfacet
  facet normal 0 1 0
    outer loop
      vertex 3.2 0 9
      vertex 7.82135 0 9.75072
      vertex 8.57132 0 9.09848
    endloop
  endfacet
  facet normal 0 1 0
    outer loop
      vertex 3.43485 0 12.0188
      vertex 3.2 0 9
      vertex 3.2 0 12.0759
    endloop
  endfacet
  facet normal 0 1 0
    outer loop
      vertex 9.90429 0 7.62594
      vertex 3.2 0 9
      vertex 9.2671 0 8.38873
    endloop
  endfacet
  facet normal 0 1 0
    outer loop
      vertex 9.2671 0 8.38873
      vertex 3.2 0 9
      vertex 8.57132 0 9.09848
    endloop
  endfacet
  facet normal 0 1 -0
    outer loop
      vertex -3.2 0 9
      vertex -3.43485 0 12.0188
      vertex -3.2 0 12.0759
    endloop
  endfacet
  facet normal 0 1 0
    outer loop
      vertex -3.43485 0 12.0188
      vertex -3.2 0 9
      vertex -4.37889 0 11.7079
    endloop
  endfacet
  facet normal 0 1 0
    outer loop
      vertex -4.37889 0 11.7079
      vertex -3.2 0 9
      vertex -5.29524 0 11.323
    endloop
  endfacet
  facet normal 0 1 0
    outer loop
      vertex -5.29524 0 11.323
      vertex -3.2 0 9
      vertex -6.17811 0 10.8665
    endloop
  endfacet
  facet normal 0 1 0
    outer loop
      vertex -6.17811 0 10.8665
      vertex -3.2 0 9
      vertex -7.02193 0 10.3413
    endloop
  endfacet
  facet normal 0 1 0
    outer loop
      vertex -7.02193 0 10.3413
      vertex -3.2 0 9
      vertex -7.82135 0 9.75072
    endloop
  endfacet
  facet normal 0 1 0
    outer loop
      vertex -7.82135 0 9.75072
      vertex -3.2 0 9
      vertex -8.57132 0 9.09848
    endloop
  endfacet
  facet normal -0 1 0
    outer loop
      vertex 0 0 2.5
      vertex 3.2 0 9
      vertex 0.956708 0 2.3097
    endloop
  endfacet
  facet normal 0 1 -0
    outer loop
      vertex -0.956708 0 2.3097
      vertex -3.2 0 9
      vertex 0 0 2.5
    endloop
  endfacet
  facet normal 0 1 0
    outer loop
      vertex 3.2 0 9
      vertex 9.90429 0 7.62594
      vertex 1.76777 0 1.76777
    endloop
  endfacet
  facet normal 0 1 -0
    outer loop
      vertex -1.76777 0 1.76777
      vertex -3.2 0 9
      vertex -0.956708 0 2.3097
    endloop
  endfacet
  facet normal 0 1 0
    outer loop
      vertex 1.76777 0 1.76777
      vertex 9.90429 0 7.62594
      vertex 10.4789 0 6.81493
    endloop
  endfacet
  facet normal -0 1 0
    outer loop
      vertex -9.90429 0 7.62594
      vertex -3.2 0 9
      vertex -1.76777 0 1.76777
    endloop
  endfacet
  facet normal 0 1 0
    outer loop
      vertex 2.3097 0 0.956708
      vertex 10.4789 0 6.81493
      vertex 10.9872 0 5.96084
    endloop
  endfacet
  facet normal 0 1 0
    outer loop
      vertex -3.2 0 9
      vertex -9.2671 0 8.38873
      vertex -8.57132 0 9.09848
    endloop
  endfacet
  facet normal 0 1 0
    outer loop
      vertex 2.3097 0 0.956708
      vertex 10.9872 0 5.96084
      vertex 11.426 0 5.06907
    endloop
  endfacet
  facet normal 0 1 0
    outer loop
      vertex -3.2 0 9
      vertex -9.90429 0 7.62594
      vertex -9.2671 0 8.38873
    endloop
  endfacet
  facet normal 0 1 0
    outer loop
      vertex 2.3097 0 0.956708
      vertex 11.426 0 5.06907
      vertex 11.7927 0 4.14524
    endloop
  endfacet
  facet normal 0 1 0
    outer loop
      vertex -9.90429 0 7.62594
      vertex -1.76777 0 1.76777
      vertex -10.4789 0 6.81493
    endloop
  endfacet
  facet normal 0 1 0
    outer loop
      vertex 2.3097 0 0.956708
      vertex 11.7927 0 4.14524
      vertex 12.0847 0 3.19521
    endloop
  endfacet
  facet normal 0 1 -0
    outer loop
      vertex -2.3097 0 0.956708
      vertex -10.4789 0 6.81493
      vertex -1.76777 0 1.76777
    endloop
  endfacet
  facet normal 0 1 0
    outer loop
      vertex -10.4789 0 6.81493
      vertex -2.3097 0 0.956708
      vertex -10.9872 0 5.96084
    endloop
  endfacet
  facet normal 0 1 0
    outer loop
      vertex 3.2 0 9
      vertex 0 0 2.5
      vertex -3.2 0 9
    endloop
  endfacet
  facet normal 0 1 0
    outer loop
      vertex 2.3097 0 0.956708
      vertex 12.0847 0 3.19521
      vertex 12.3004 0 2.22497
    endloop
  endfacet
  facet normal 0 1 0
    outer loop
      vertex 3.2 0 9
      vertex 1.76777 0 1.76777
      vertex 0.956708 0 2.3097
    endloop
  endfacet
  facet normal 0 1 0
    outer loop
      vertex 2.5 0 0
      vertex 12.3004 0 2.22497
      vertex 12.4383 0 1.24067
    endloop
  endfacet
  facet normal 0 1 0
    outer loop
      vertex 10.4789 0 6.81493
      vertex 2.3097 0 0.956708
      vertex 1.76777 0 1.76777
    endloop
  endfacet
  facet normal 0 1 0
    outer loop
      vertex 2.5 0 0
      vertex 12.4383 0 1.24067
      vertex 12.4975 0 0.248527
    endloop
  endfacet
  facet normal 0 1 0
    outer loop
      vertex 12.3004 0 2.22497
      vertex 2.5 0 0
      vertex 2.3097 0 0.956708
    endloop
  endfacet
  facet normal 0 1 -0
    outer loop
      vertex 12.4778 0 -0.745189
      vertex 2.5 0 0
      vertex 12.4975 0 0.248527
    endloop
  endfacet
  facet normal 0 1 -0
    outer loop
      vertex 12.3791 0 -1.73419
      vertex 2.5 0 0
      vertex 12.4778 0 -0.745189
    endloop
  endfacet
  facet normal 0 1 -0
    outer loop
      vertex 12.2022 0 -2.71223
      vertex 2.5 0 0
      vertex 12.3791 0 -1.73419
    endloop
  endfacet
  facet normal 0 1 0
    outer loop
      vertex 2.5 0 0
      vertex 12.2022 0 -2.71223
      vertex 2.3097 0 -0.956708
    endloop
  endfacet
  facet normal 0 1 -0
    outer loop
      vertex 11.9481 0 -3.67313
      vertex 2.3097 0 -0.956708
      vertex 12.2022 0 -2.71223
    endloop
  endfacet
  facet normal 0 1 -0
    outer loop
      vertex 11.6185 0 -4.6108
      vertex 2.3097 0 -0.956708
      vertex 11.9481 0 -3.67313
    endloop
  endfacet
  facet normal 0 1 -0
    outer loop
      vertex 11.2155 0 -5.51932
      vertex 2.3097 0 -0.956708
      vertex 11.6185 0 -4.6108
    endloop
  endfacet
  facet normal 0 1 0
    outer loop
      vertex -9.59328 0 -8.01367
      vertex -3.2 0 -9
      vertex -8.92627 0 -8.75053
    endloop
  endfacet
  facet normal 0 1 0
    outer loop
      vertex -3.2 0 -9
      vertex -8.20282 0 -9.43206
      vertex -8.92627 0 -8.75053
    endloop
  endfacet
  facet normal 0 1 0
    outer loop
      vertex -3.2 0 -9
      vertex -7.42751 0 -10.054
      vertex -8.20282 0 -9.43206
    endloop
  endfacet
  facet normal 0 1 0
    outer loop
      vertex -3.2 0 -9
      vertex -6.60524 0 -10.6123
      vertex -7.42751 0 -10.054
    endloop
  endfacet
  facet normal 0 1 0
    outer loop
      vertex -3.2 0 -9
      vertex -5.74122 0 -11.1035
      vertex -6.60524 0 -10.6123
    endloop
  endfacet
  facet normal 0 1 0
    outer loop
      vertex -3.2 0 -9
      vertex -4.84089 0 -11.5246
      vertex -5.74122 0 -11.1035
    endloop
  endfacet
  facet normal 0 1 0
    outer loop
      vertex -3.2 0 -9
      vertex -3.90996 0 -11.8728
      vertex -4.84089 0 -11.5246
    endloop
  endfacet
  facet normal -0 1 0
    outer loop
      vertex -3.90996 0 -11.8728
      vertex -3.2 0 -9
      vertex -3.2 0 -12.0756
    endloop
  endfacet
  facet normal 0 1 0
    outer loop
      vertex -10.9872 0 5.96084
      vertex -2.3097 0 0.956708
      vertex -11.426 0 5.06907
    endloop
  endfacet
  facet normal 0 1 0
    outer loop
      vertex -11.426 0 5.06907
      vertex -2.3097 0 0.956708
      vertex -11.7927 0 4.14524
    endloop
  endfacet
  facet normal 0 1 0
    outer loop
      vertex -11.7927 0 4.14524
      vertex -2.3097 0 0.956708
      vertex -12.0847 0 3.19521
    endloop
  endfacet
  facet normal 0 1 0
    outer loop
      vertex -12.0847 0 3.19521
      vertex -2.3097 0 0.956708
      vertex -12.3004 0 2.22497
    endloop
  endfacet
  facet normal 0 1 -0
    outer loop
      vertex -2.5 0 0
      vertex -12.3004 0 2.22497
      vertex -2.3097 0 0.956708
    endloop
  endfacet
  facet normal 0 1 0
    outer loop
      vertex -12.3004 0 2.22497
      vertex -2.5 0 0
      vertex -12.4383 0 1.24067
    endloop
  endfacet
  facet normal 0 1 0
    outer loop
      vertex -12.4383 0 1.24067
      vertex -2.5 0 0
      vertex -12.4975 0 0.248527
    endloop
  endfacet
  facet normal 0 1 0
    outer loop
      vertex -2.5 0 0
      vertex -12.4778 0 -0.745189
      vertex -12.4975 0 0.248527
    endloop
  endfacet
  facet normal 0 1 0
    outer loop
      vertex -12.2022 0 -2.71223
      vertex -2.5 0 0
      vertex -2.3097 0 -0.956708
    endloop
  endfacet
  facet normal 0 1 0
    outer loop
      vertex -2.5 0 0
      vertex -12.3791 0 -1.73419
      vertex -12.4778 0 -0.745189
    endloop
  endfacet
  facet normal 0 1 0
    outer loop
      vertex -10.1996 0 -7.22615
      vertex -2.3097 0 -0.956708
      vertex -1.76777 0 -1.76777
    endloop
  endfacet
  facet normal 0 1 0
    outer loop
      vertex -3.2 0 -9
      vertex -1.76777 0 -1.76777
      vertex -0.956708 0 -2.3097
    endloop
  endfacet
  facet normal 0 1 0
    outer loop
      vertex -3.2 0 -9
      vertex 0 0 -2.5
      vertex 3.2 0 -9
    endloop
  endfacet
  facet normal 0 1 0
    outer loop
      vertex -2.5 0 0
      vertex -12.2022 0 -2.71223
      vertex -12.3791 0 -1.73419
    endloop
  endfacet
  facet normal 0 1 -0
    outer loop
      vertex 10.7415 0 -6.39294
      vertex 2.3097 0 -0.956708
      vertex 11.2155 0 -5.51932
    endloop
  endfacet
  facet normal 0 1 -0
    outer loop
      vertex 10.1996 0 -7.22615
      vertex 2.3097 0 -0.956708
      vertex 10.7415 0 -6.39294
    endloop
  endfacet
  facet normal 0 1 0
    outer loop
      vertex 0 0 -2.5
      vertex -3.2 0 -9
      vertex -0.956708 0 -2.3097
    endloop
  endfacet
  facet normal 0 1 0
    outer loop
      vertex 2.3097 0 -0.956708
      vertex 10.1996 0 -7.22615
      vertex 1.76777 0 -1.76777
    endloop
  endfacet
  facet normal 0 1 0
    outer loop
      vertex -2.3097 0 -0.956708
      vertex -11.9481 0 -3.67313
      vertex -12.2022 0 -2.71223
    endloop
  endfacet
  facet normal 0 1 -0
    outer loop
      vertex 9.59328 0 -8.01367
      vertex 1.76777 0 -1.76777
      vertex 10.1996 0 -7.22615
    endloop
  endfacet
  facet normal 0 1 0
    outer loop
      vertex -2.3097 0 -0.956708
      vertex -11.6185 0 -4.6108
      vertex -11.9481 0 -3.67313
    endloop
  endfacet
  facet normal 0 1 0
    outer loop
      vertex 1.76777 0 -1.76777
      vertex 3.2 0 -9
      vertex 0.956708 0 -2.3097
    endloop
  endfacet
  facet normal 0 1 0
    outer loop
      vertex -2.3097 0 -0.956708
      vertex -11.2155 0 -5.51932
      vertex -11.6185 0 -4.6108
    endloop
  endfacet
  facet normal 0 1 0
    outer loop
      vertex 0.956708 0 -2.3097
      vertex 3.2 0 -9
      vertex 0 0 -2.5
    endloop
  endfacet
  facet normal 0 1 0
    outer loop
      vertex -2.3097 0 -0.956708
      vertex -10.7415 0 -6.39294
      vertex -11.2155 0 -5.51932
    endloop
  endfacet
  facet normal 0 1 0
    outer loop
      vertex 1.76777 0 -1.76777
      vertex 9.59328 0 -8.01367
      vertex 3.2 0 -9
    endloop
  endfacet
  facet normal 0 1 0
    outer loop
      vertex -2.3097 0 -0.956708
      vertex -10.1996 0 -7.22615
      vertex -10.7415 0 -6.39294
    endloop
  endfacet
  facet normal 0 1 0
    outer loop
      vertex 3.2 0 -9
      vertex 9.59328 0 -8.01367
      vertex 8.92627 0 -8.75053
    endloop
  endfacet
  facet normal 0 1 0
    outer loop
      vertex -1.76777 0 -1.76777
      vertex -9.59328 0 -8.01367
      vertex -10.1996 0 -7.22615
    endloop
  endfacet
  facet normal 0 1 -0
    outer loop
      vertex -3.2 0 -9
      vertex -9.59328 0 -8.01367
      vertex -1.76777 0 -1.76777
    endloop
  endfacet
  facet normal 0 1 -0
    outer loop
      vertex 8.20282 0 -9.43206
      vertex 3.2 0 -9
      vertex 8.92627 0 -8.75053
    endloop
  endfacet
  facet normal 0 1 -0
    outer loop
      vertex 7.42751 0 -10.054
      vertex 3.2 0 -9
      vertex 8.20282 0 -9.43206
    endloop
  endfacet
  facet normal 0 1 -0
    outer loop
      vertex 6.60524 0 -10.6123
      vertex 3.2 0 -9
      vertex 7.42751 0 -10.054
    endloop
  endfacet
  facet normal 0 1 -0
    outer loop
      vertex 5.74122 0 -11.1035
      vertex 3.2 0 -9
      vertex 6.60524 0 -10.6123
    endloop
  endfacet
  facet normal 0 1 -0
    outer loop
      vertex 4.84089 0 -11.5246
      vertex 3.2 0 -9
      vertex 5.74122 0 -11.1035
    endloop
  endfacet
  facet normal 0 1 -0
    outer loop
      vertex 3.90996 0 -11.8728
      vertex 3.2 0 -9
      vertex 4.84089 0 -11.5246
    endloop
  endfacet
  facet normal 0 1 0
    outer loop
      vertex 3.2 0 -9
      vertex 3.90996 0 -11.8728
      vertex 3.2 0 -12.0756
    endloop
  endfacet
  facet normal 0.274664 0 -0.96154
    outer loop
      vertex 3.2 -37 -12.0756
      vertex 3.90996 0 -11.8728
      vertex 3.90996 -37 -11.8728
    endloop
  endfacet
  facet normal 0.274664 0 -0.96154
    outer loop
      vertex 3.90996 0 -11.8728
      vertex 3.2 -37 -12.0756
      vertex 3.2 0 -12.0756
    endloop
  endfacet
  facet normal 0.984033 7.41346e-07 -0.177984
    outer loop
      vertex 12.3791 0 -1.73419
      vertex 12.357 -36.999 -1.85653
      vertex 12.2022 0 -2.71223
    endloop
  endfacet
  facet normal 0.984073 0 -0.177767
    outer loop
      vertex 12.3791 -37 -1.73419
      vertex 12.357 -36.999 -1.85653
      vertex 12.3791 0 -1.73419
    endloop
  endfacet
  facet normal 0.984073 0 -0.177767
    outer loop
      vertex 12.357 -36.999 -1.85653
      vertex 12.3791 -37 -1.73419
      vertex 12.357 -37 -1.85653
    endloop
  endfacet
  facet normal 0.984042 1.89017e-06 -0.177936
    outer loop
      vertex 12.2686 -36.999 -2.34541
      vertex 12.2022 0 -2.71223
      vertex 12.357 -36.999 -1.85653
    endloop
  endfacet
  facet normal 0.984009 0 -0.178121
    outer loop
      vertex 12.2022 -37 -2.71223
      vertex 12.2686 -36.999 -2.34541
      vertex 12.2686 -37 -2.34541
    endloop
  endfacet
  facet normal 0.984009 0 -0.178121
    outer loop
      vertex 12.2686 -36.999 -2.34541
      vertex 12.2022 -37 -2.71223
      vertex 12.2022 0 -2.71223
    endloop
  endfacet
  facet normal 0.995057 -1.45308e-06 -0.0993044
    outer loop
      vertex 12.4778 0 -0.745189
      vertex 12.4654 -36.999 -0.868899
      vertex 12.3791 0 -1.73419
    endloop
  endfacet
  facet normal 0.995014 0 -0.0997347
    outer loop
      vertex 12.4778 -37 -0.745189
      vertex 12.4654 -36.999 -0.868899
      vertex 12.4778 0 -0.745189
    endloop
  endfacet
  facet normal 0.995014 0 -0.0997347
    outer loop
      vertex 12.4654 -36.999 -0.868899
      vertex 12.4778 -37 -0.745189
      vertex 12.4654 -37 -0.868899
    endloop
  endfacet
  facet normal 0.995064 2.92189e-07 -0.0992305
    outer loop
      vertex 12.4161 -36.999 -1.36327
      vertex 12.3791 0 -1.73419
      vertex 12.4654 -36.999 -0.868899
    endloop
  endfacet
  facet normal 0.995062 0 -0.0992594
    outer loop
      vertex 12.3791 -37 -1.73419
      vertex 12.4161 -36.999 -1.36327
      vertex 12.4161 -37 -1.36327
    endloop
  endfacet
  facet normal 0.995062 0 -0.0992594
    outer loop
      vertex 12.4161 -36.999 -1.36327
      vertex 12.3791 -37 -1.73419
      vertex 12.3791 0 -1.73419
    endloop
  endfacet
  facet normal 0.838299 0 -0.54521
    outer loop
      vertex 10.7415 -37 -6.39294
      vertex 10.1996 0 -7.22615
      vertex 10.7415 0 -6.39294
    endloop
  endfacet
  facet normal 0.838299 0 -0.54521
    outer loop
      vertex 10.1996 0 -7.22615
      vertex 10.7415 -37 -6.39294
      vertex 10.1996 -37 -7.22615
    endloop
  endfacet
  facet normal 0.656232 0 0.75456
    outer loop
      vertex 7.82135 0 9.75072
      vertex 8.57132 -37 9.09848
      vertex 8.57132 0 9.09848
    endloop
  endfacet
  facet normal 0.656232 0 0.75456
    outer loop
      vertex 8.57132 -37 9.09848
      vertex 7.82135 0 9.75072
      vertex 7.82135 -37 9.75072
    endloop
  endfacet
  facet normal 0.815956 -0 0.578114
    outer loop
      vertex 9.90429 -37 7.62594
      vertex 10.4789 0 6.81493
      vertex 9.90429 0 7.62594
    endloop
  endfacet
  facet normal 0.815956 0 0.578114
    outer loop
      vertex 10.4789 0 6.81493
      vertex 9.90429 -37 7.62594
      vertex 10.4789 -37 6.81493
    endloop
  endfacet
  facet normal 0.89726 -0 0.441502
    outer loop
      vertex 10.9872 -37 5.96084
      vertex 11.426 0 5.06907
      vertex 10.9872 0 5.96084
    endloop
  endfacet
  facet normal 0.89726 0 0.441502
    outer loop
      vertex 11.426 0 5.06907
      vertex 10.9872 -37 5.96084
      vertex 11.426 -37 5.06907
    endloop
  endfacet
  facet normal 0.767463 -0 0.641093
    outer loop
      vertex 9.2671 -37 8.38873
      vertex 9.90429 0 7.62594
      vertex 9.2671 0 8.38873
    endloop
  endfacet
  facet normal 0.767463 0 0.641093
    outer loop
      vertex 9.90429 0 7.62594
      vertex 9.2671 -37 8.38873
      vertex 9.90429 -37 7.62594
    endloop
  endfacet
  facet normal 0.929456 -0 0.368933
    outer loop
      vertex 11.426 -37 5.06907
      vertex 11.7927 0 4.14524
      vertex 11.426 0 5.06907
    endloop
  endfacet
  facet normal 0.929456 0 0.368933
    outer loop
      vertex 11.7927 0 4.14524
      vertex 11.426 -37 5.06907
      vertex 11.7927 -37 4.14524
    endloop
  endfacet
  facet normal -0.995057 1.42624e-06 -0.0993044
    outer loop
      vertex -12.3791 0 -1.73419
      vertex -12.3915 -36.999 -1.61047
      vertex -12.4778 0 -0.745189
    endloop
  endfacet
  facet normal -0.995015 0 -0.0997267
    outer loop
      vertex -12.3791 -37 -1.73419
      vertex -12.3915 -36.999 -1.61047
      vertex -12.3791 0 -1.73419
    endloop
  endfacet
  facet normal -0.995015 -0 -0.0997267
    outer loop
      vertex -12.3915 -36.999 -1.61047
      vertex -12.3791 -37 -1.73419
      vertex -12.3915 -37 -1.61047
    endloop
  endfacet
  facet normal -0.995063 -3.26284e-08 -0.0992426
    outer loop
      vertex -12.4408 -36.999 -1.11616
      vertex -12.4778 0 -0.745189
      vertex -12.3915 -36.999 -1.61047
    endloop
  endfacet
  facet normal -0.995063 0 -0.0992458
    outer loop
      vertex -12.4778 -37 -0.745189
      vertex -12.4408 -36.999 -1.11616
      vertex -12.4408 -37 -1.11616
    endloop
  endfacet
  facet normal -0.995063 0 -0.0992458
    outer loop
      vertex -12.4408 -36.999 -1.11616
      vertex -12.4778 -37 -0.745189
      vertex -12.4778 0 -0.745189
    endloop
  endfacet
  facet normal -0.966769 2.00602e-07 -0.255652
    outer loop
      vertex -11.9481 0 -3.67313
      vertex -12.06 -36.999 -3.25
      vertex -12.2022 0 -2.71223
    endloop
  endfacet
  facet normal -0.966765 0 -0.255668
    outer loop
      vertex -11.9481 -37 -3.67313
      vertex -12.06 -36.999 -3.25
      vertex -11.9481 0 -3.67313
    endloop
  endfacet
  facet normal -0.966765 -0 -0.255668
    outer loop
      vertex -12.06 -36.999 -3.25
      vertex -11.9481 -37 -3.67313
      vertex -12.06 -37 -3.25
    endloop
  endfacet
  facet normal -0.966774 -8.85379e-08 -0.255633
    outer loop
      vertex -12.1069 -36.999 -3.07263
      vertex -12.2022 0 -2.71223
      vertex -12.06 -36.999 -3.25
    endloop
  endfacet
  facet normal -0.966772 0 -0.255642
    outer loop
      vertex -12.2022 -37 -2.71223
      vertex -12.1069 -36.999 -3.07263
      vertex -12.1069 -37 -3.07263
    endloop
  endfacet
  facet normal -0.966772 0 -0.255642
    outer loop
      vertex -12.1069 -36.999 -3.07263
      vertex -12.2022 -37 -2.71223
      vertex -12.2022 0 -2.71223
    endloop
  endfacet
  facet normal -0.914105 0 -0.405477
    outer loop
      vertex -11.2155 -37 -5.51932
      vertex -11.6185 0 -4.6108
      vertex -11.2155 0 -5.51932
    endloop
  endfacet
  facet normal -0.914105 -0 -0.405477
    outer loop
      vertex -11.6185 0 -4.6108
      vertex -11.2155 -37 -5.51932
      vertex -11.6185 -37 -4.6108
    endloop
  endfacet
  facet normal -0.423667 0 -0.905818
    outer loop
      vertex -5.74122 -37 -11.1035
      vertex -4.84089 0 -11.5246
      vertex -4.84089 -37 -11.5246
    endloop
  endfacet
  facet normal -0.423667 0 -0.905818
    outer loop
      vertex -4.84089 0 -11.5246
      vertex -5.74122 -37 -11.1035
      vertex -5.74122 0 -11.1035
    endloop
  endfacet
  facet normal -0.859331 0 0.511419
    outer loop
      vertex -10.9872 -37 5.96084
      vertex -10.4789 0 6.81493
      vertex -10.9872 0 5.96084
    endloop
  endfacet
  facet normal -0.859331 0 0.511419
    outer loop
      vertex -10.4789 0 6.81493
      vertex -10.9872 -37 5.96084
      vertex -10.4789 -37 6.81493
    endloop
  endfacet
  facet normal -0.929456 0 0.368933
    outer loop
      vertex -11.7927 -37 4.14524
      vertex -11.426 0 5.06907
      vertex -11.7927 0 4.14524
    endloop
  endfacet
  facet normal -0.929456 0 0.368933
    outer loop
      vertex -11.426 0 5.06907
      vertex -11.7927 -37 4.14524
      vertex -11.426 -37 5.06907
    endloop
  endfacet
  facet normal -0.976168 -4.6149e-07 0.217018
    outer loop
      vertex -12.3004 0 2.22497
      vertex -12.2734 -36.999 2.34634
      vertex -12.0847 0 3.19521
    endloop
  endfacet
  facet normal -0.976138 0 0.217152
    outer loop
      vertex -12.3004 -37 2.22497
      vertex -12.2734 -36.999 2.34634
      vertex -12.3004 0 2.22497
    endloop
  endfacet
  facet normal -0.976138 0 0.217152
    outer loop
      vertex -12.2734 -36.999 2.34634
      vertex -12.3004 -37 2.22497
      vertex -12.2734 -37 2.34634
    endloop
  endfacet
  facet normal -0.976175 3.0754e-07 0.216986
    outer loop
      vertex -12.1656 -36.999 2.83131
      vertex -12.0847 0 3.19521
      vertex -12.2734 -36.999 2.34634
    endloop
  endfacet
  facet normal -0.976168 0 0.217016
    outer loop
      vertex -12.0847 -37 3.19521
      vertex -12.1656 -36.999 2.83131
      vertex -12.1656 -37 2.83131
    endloop
  endfacet
  facet normal -0.976168 0 0.217016
    outer loop
      vertex -12.1656 -36.999 2.83131
      vertex -12.0847 -37 3.19521
      vertex -12.0847 0 3.19521
    endloop
  endfacet
  facet normal -0.990328 -1.32603e-06 0.138745
    outer loop
      vertex -12.4383 0 1.24067
      vertex -12.421 -36.999 1.3638
      vertex -12.3004 0 2.22497
    endloop
  endfacet
  facet normal -0.990273 0 0.139135
    outer loop
      vertex -12.4383 -37 1.24067
      vertex -12.421 -36.999 1.3638
      vertex -12.4383 0 1.24067
    endloop
  endfacet
  facet normal -0.990273 0 0.139135
    outer loop
      vertex -12.421 -36.999 1.3638
      vertex -12.4383 -37 1.24067
      vertex -12.421 -37 1.3638
    endloop
  endfacet
  facet normal -0.990335 -9.92905e-08 0.138693
    outer loop
      vertex -12.3521 -36.999 1.85578
      vertex -12.3004 0 2.22497
      vertex -12.421 -36.999 1.3638
    endloop
  endfacet
  facet normal -0.990337 0 0.138683
    outer loop
      vertex -12.3004 -37 2.22497
      vertex -12.3521 -36.999 1.85578
      vertex -12.3521 -37 1.85578
    endloop
  endfacet
  facet normal -0.990337 0 0.138683
    outer loop
      vertex -12.3521 -36.999 1.85578
      vertex -12.3004 -37 2.22497
      vertex -12.3004 0 2.22497
    endloop
  endfacet
  facet normal -0.999804 -1.73899e-06 -0.0198207
    outer loop
      vertex -12.4778 0 -0.745189
      vertex -12.4802 -36.999 -0.620881
      vertex -12.4975 0 0.248527
    endloop
  endfacet
  facet normal -0.999814 0 -0.0193033
    outer loop
      vertex -12.4778 -37 -0.745189
      vertex -12.4802 -36.999 -0.620881
      vertex -12.4778 0 -0.745189
    endloop
  endfacet
  facet normal -0.999814 -0 -0.0193033
    outer loop
      vertex -12.4802 -36.999 -0.620881
      vertex -12.4778 -37 -0.745189
      vertex -12.4802 -37 -0.620881
    endloop
  endfacet
  facet normal -0.999801 7.87322e-07 -0.0199282
    outer loop
      vertex -12.4901 -36.999 -0.124195
      vertex -12.4975 0 0.248527
      vertex -12.4802 -36.999 -0.620881
    endloop
  endfacet
  facet normal -0.999803 0 -0.01985
    outer loop
      vertex -12.4975 -37 0.248527
      vertex -12.4901 -36.999 -0.124195
      vertex -12.4901 -37 -0.124195
    endloop
  endfacet
  facet normal -0.999803 0 -0.01985
    outer loop
      vertex -12.4901 -36.999 -0.124195
      vertex -12.4975 -37 0.248527
      vertex -12.4975 0 0.248527
    endloop
  endfacet
  facet normal -0.7141 0 0.700044
    outer loop
      vertex -9.2671 -37 8.38873
      vertex -8.57132 0 9.09848
      vertex -9.2671 0 8.38873
    endloop
  endfacet
  facet normal -0.7141 0 0.700044
    outer loop
      vertex -8.57132 0 9.09848
      vertex -9.2671 -37 8.38873
      vertex -8.57132 -37 9.09848
    endloop
  endfacet
  facet normal -0.236251 0 0.971692
    outer loop
      vertex -3.43485 0 12.0188
      vertex -3.2 -37 12.0759
      vertex -3.2 0 12.0759
    endloop
  endfacet
  facet normal -0.236251 0 0.971692
    outer loop
      vertex -3.2 -37 12.0759
      vertex -3.43485 0 12.0188
      vertex -3.43485 -37 12.0188
    endloop
  endfacet
  facet normal 0.792364 0 -0.610049
    outer loop
      vertex 10.1996 -37 -7.22615
      vertex 9.59328 0 -8.01367
      vertex 10.1996 0 -7.22615
    endloop
  endfacet
  facet normal 0.792364 0 -0.610049
    outer loop
      vertex 9.59328 0 -8.01367
      vertex 10.1996 -37 -7.22615
      vertex 9.59328 -37 -8.01367
    endloop
  endfacet
  facet normal 0.528415 0 0.848986
    outer loop
      vertex 6.17811 0 10.8665
      vertex 7.02193 -37 10.3413
      vertex 7.02193 0 10.3413
    endloop
  endfacet
  facet normal 0.528415 0 0.848986
    outer loop
      vertex 7.02193 -37 10.3413
      vertex 6.17811 0 10.8665
      vertex 6.17811 -37 10.8665
    endloop
  endfacet
  facet normal 0.955869 -0 0.293795
    outer loop
      vertex 11.7927 -37 4.14524
      vertex 12.0847 0 3.19521
      vertex 11.7927 0 4.14524
    endloop
  endfacet
  facet normal 0.955869 0 0.293795
    outer loop
      vertex 12.0847 0 3.19521
      vertex 11.7927 -37 4.14524
      vertex 12.0847 -37 3.19521
    endloop
  endfacet
  facet normal -0.984033 -7.41346e-07 -0.177984
    outer loop
      vertex -12.2022 0 -2.71223
      vertex -12.2243 -36.999 -2.58989
      vertex -12.3791 0 -1.73419
    endloop
  endfacet
  facet normal -0.984073 0 -0.177767
    outer loop
      vertex -12.2022 -37 -2.71223
      vertex -12.2243 -36.999 -2.58989
      vertex -12.2022 0 -2.71223
    endloop
  endfacet
  facet normal -0.984073 -0 -0.177767
    outer loop
      vertex -12.2243 -36.999 -2.58989
      vertex -12.2022 -37 -2.71223
      vertex -12.2243 -37 -2.58989
    endloop
  endfacet
  facet normal -0.984005 3.0178e-06 -0.178141
    outer loop
      vertex -12.3128 -36.999 -2.10104
      vertex -12.3791 0 -1.73419
      vertex -12.2243 -36.999 -2.58989
    endloop
  endfacet
  facet normal -0.984058 0 -0.177847
    outer loop
      vertex -12.3791 -37 -1.73419
      vertex -12.3128 -36.999 -2.10104
      vertex -12.3128 -37 -2.10104
    endloop
  endfacet
  facet normal -0.984058 0 -0.177847
    outer loop
      vertex -12.3128 -36.999 -2.10104
      vertex -12.3791 -37 -1.73419
      vertex -12.3791 0 -1.73419
    endloop
  endfacet
  facet normal -0.792364 0 -0.610049
    outer loop
      vertex -9.59328 -37 -8.01367
      vertex -10.1996 0 -7.22615
      vertex -9.59328 0 -8.01367
    endloop
  endfacet
  facet normal -0.792364 -0 -0.610049
    outer loop
      vertex -10.1996 0 -7.22615
      vertex -9.59328 -37 -8.01367
      vertex -10.1996 -37 -7.22615
    endloop
  endfacet
  facet normal -0.89726 0 0.441502
    outer loop
      vertex -11.426 -37 5.06907
      vertex -10.9872 0 5.96084
      vertex -11.426 0 5.06907
    endloop
  endfacet
  facet normal -0.89726 0 0.441502
    outer loop
      vertex -10.9872 0 5.96084
      vertex -11.426 -37 5.06907
      vertex -10.9872 -37 5.96084
    endloop
  endfacet
  facet normal -0.195089 0 0.980785
    outer loop
      vertex 0 0 -2.5
      vertex 0.956708 -37 -2.3097
      vertex 0.956708 0 -2.3097
    endloop
  endfacet
  facet normal -0.195089 0 0.980785
    outer loop
      vertex 0.956708 -37 -2.3097
      vertex 0 0 -2.5
      vertex 0 -37 -2.5
    endloop
  endfacet
  facet normal -0.195089 0 -0.980785
    outer loop
      vertex 0 -37 2.5
      vertex 0.956708 0 2.3097
      vertex 0.956708 -37 2.3097
    endloop
  endfacet
  facet normal -0.195089 0 -0.980785
    outer loop
      vertex 0.956708 0 2.3097
      vertex 0 -37 2.5
      vertex 0 0 2.5
    endloop
  endfacet
  facet normal -0.980785 0 0.195089
    outer loop
      vertex 2.3097 -37 -0.956708
      vertex 2.5 0 0
      vertex 2.3097 0 -0.956708
    endloop
  endfacet
  facet normal -0.980785 0 0.195089
    outer loop
      vertex 2.5 0 0
      vertex 2.3097 -37 -0.956708
      vertex 2.5 -37 0
    endloop
  endfacet
  facet normal -0.555567 0 0.831472
    outer loop
      vertex 0.956708 0 -2.3097
      vertex 1.76777 -37 -1.76777
      vertex 1.76777 0 -1.76777
    endloop
  endfacet
  facet normal -0.555567 0 0.831472
    outer loop
      vertex 1.76777 -37 -1.76777
      vertex 0.956708 0 -2.3097
      vertex 0.956708 -37 -2.3097
    endloop
  endfacet
  facet normal -0.831472 0 0.555567
    outer loop
      vertex 1.76777 -37 -1.76777
      vertex 2.3097 0 -0.956708
      vertex 1.76777 0 -1.76777
    endloop
  endfacet
  facet normal -0.831472 0 0.555567
    outer loop
      vertex 2.3097 0 -0.956708
      vertex 1.76777 -37 -1.76777
      vertex 2.3097 -37 -0.956708
    endloop
  endfacet
  facet normal -0.831472 0 -0.555567
    outer loop
      vertex 2.3097 -37 0.956708
      vertex 1.76777 0 1.76777
      vertex 2.3097 0 0.956708
    endloop
  endfacet
  facet normal -0.831472 -0 -0.555567
    outer loop
      vertex 1.76777 0 1.76777
      vertex 2.3097 -37 0.956708
      vertex 1.76777 -37 1.76777
    endloop
  endfacet
  facet normal -0.555567 0 -0.831472
    outer loop
      vertex 0.956708 -37 2.3097
      vertex 1.76777 0 1.76777
      vertex 1.76777 -37 1.76777
    endloop
  endfacet
  facet normal -0.555567 0 -0.831472
    outer loop
      vertex 1.76777 0 1.76777
      vertex 0.956708 -37 2.3097
      vertex 0.956708 0 2.3097
    endloop
  endfacet
  facet normal -0.980785 0 -0.195089
    outer loop
      vertex 2.5 -37 0
      vertex 2.3097 0 0.956708
      vertex 2.5 0 0
    endloop
  endfacet
  facet normal -0.980785 -0 -0.195089
    outer loop
      vertex 2.3097 0 0.956708
      vertex 2.5 -37 0
      vertex 2.3097 -37 0.956708
    endloop
  endfacet
  facet normal 0.831472 0 -0.555567
    outer loop
      vertex -1.76777 -37 1.76777
      vertex -2.3097 0 0.956708
      vertex -1.76777 0 1.76777
    endloop
  endfacet
  facet normal 0.831472 0 -0.555567
    outer loop
      vertex -2.3097 0 0.956708
      vertex -1.76777 -37 1.76777
      vertex -2.3097 -37 0.956708
    endloop
  endfacet
  facet normal 0.195089 0 -0.980785
    outer loop
      vertex -0.956708 -37 2.3097
      vertex 0 0 2.5
      vertex 0 -37 2.5
    endloop
  endfacet
  facet normal 0.195089 0 -0.980785
    outer loop
      vertex 0 0 2.5
      vertex -0.956708 -37 2.3097
      vertex -0.956708 0 2.3097
    endloop
  endfacet
  facet normal 0.195089 0 0.980785
    outer loop
      vertex -0.956708 0 -2.3097
      vertex 0 -37 -2.5
      vertex 0 0 -2.5
    endloop
  endfacet
  facet normal 0.195089 0 0.980785
    outer loop
      vertex 0 -37 -2.5
      vertex -0.956708 0 -2.3097
      vertex -0.956708 -37 -2.3097
    endloop
  endfacet
  facet normal 0.831472 -0 0.555567
    outer loop
      vertex -2.3097 -37 -0.956708
      vertex -1.76777 0 -1.76777
      vertex -2.3097 0 -0.956708
    endloop
  endfacet
  facet normal 0.831472 0 0.555567
    outer loop
      vertex -1.76777 0 -1.76777
      vertex -2.3097 -37 -0.956708
      vertex -1.76777 -37 -1.76777
    endloop
  endfacet
  facet normal 0.980785 -0 0.195089
    outer loop
      vertex -2.5 -37 0
      vertex -2.3097 0 -0.956708
      vertex -2.5 0 0
    endloop
  endfacet
  facet normal 0.980785 0 0.195089
    outer loop
      vertex -2.3097 0 -0.956708
      vertex -2.5 -37 0
      vertex -2.3097 -37 -0.956708
    endloop
  endfacet
  facet normal 0.555567 0 0.831472
    outer loop
      vertex -1.76777 0 -1.76777
      vertex -0.956708 -37 -2.3097
      vertex -0.956708 0 -2.3097
    endloop
  endfacet
  facet normal 0.555567 0 0.831472
    outer loop
      vertex -0.956708 -37 -2.3097
      vertex -1.76777 0 -1.76777
      vertex -1.76777 -37 -1.76777
    endloop
  endfacet
  facet normal 0.980785 0 -0.195089
    outer loop
      vertex -2.3097 -37 0.956708
      vertex -2.5 0 0
      vertex -2.3097 0 0.956708
    endloop
  endfacet
  facet normal 0.980785 0 -0.195089
    outer loop
      vertex -2.5 0 0
      vertex -2.3097 -37 0.956708
      vertex -2.5 -37 0
    endloop
  endfacet
  facet normal 0.555567 0 -0.831472
    outer loop
      vertex -1.76777 -37 1.76777
      vertex -0.956708 0 2.3097
      vertex -0.956708 -37 2.3097
    endloop
  endfacet
  facet normal 0.555567 0 -0.831472
    outer loop
      vertex -0.956708 0 2.3097
      vertex -1.76777 -37 1.76777
      vertex -1.76777 0 1.76777
    endloop
  endfacet
  facet normal -0 0 1
    outer loop
      vertex -3.2 0 9
      vertex 3.2 -37 9
      vertex 3.2 0 9
    endloop
  endfacet
  facet normal 0 0 1
    outer loop
      vertex 3.2 -37 9
      vertex -3.2 0 9
      vertex -3.2 -37 9
    endloop
  endfacet
  facet normal 1 -0 0
    outer loop
      vertex -3.2 -37 12.0759
      vertex -3.2 0 9
      vertex -3.2 0 12.0759
    endloop
  endfacet
  facet normal 1 0 0
    outer loop
      vertex -3.2 0 9
      vertex -3.2 -37 12.0759
      vertex -3.2 -37 9
    endloop
  endfacet
  facet normal -1 0 0
    outer loop
      vertex 3.2 -37 9
      vertex 3.2 0 12.0759
      vertex 3.2 0 9
    endloop
  endfacet
  facet normal -1 -0 0
    outer loop
      vertex 3.2 0 12.0759
      vertex 3.2 -37 9
      vertex 3.2 -37 12.0759
    endloop
  endfacet
  facet normal 0 0 -1
    outer loop
      vertex -3.2 -37 -9
      vertex 3.2 0 -9
      vertex 3.2 -37 -9
    endloop
  endfacet
  facet normal -0 0 -1
    outer loop
      vertex 3.2 0 -9
      vertex -3.2 -37 -9
      vertex -3.2 0 -9
    endloop
  endfacet
  facet normal 1 -0 0
    outer loop
      vertex -3.2 -37 -9
      vertex -3.2 0 -12.0756
      vertex -3.2 0 -9
    endloop
  endfacet
  facet normal 1 0 0
    outer loop
      vertex -3.2 0 -12.0756
      vertex -3.2 -37 -9
      vertex -3.2 -37 -12.0756
    endloop
  endfacet
  facet normal -1 0 0
    outer loop
      vertex 3.2 -37 -12.0756
      vertex 3.2 0 -9
      vertex 3.2 0 -12.0756
    endloop
  endfacet
  facet normal -1 -0 0
    outer loop
      vertex 3.2 0 -9
      vertex 3.2 -37 -12.0756
      vertex 3.2 -37 -9
    endloop
  endfacet
  facet normal 0.999212 0 0.0397003
    outer loop
      vertex 12.4605 -36.999 0.993127
      vertex 12.4753 -37 0.620628
      vertex 12.4753 -36.999 0.620628
    endloop
  endfacet
  facet normal 0.99921 2.54557e-06 0.0397419
    outer loop
      vertex 12.5 -43.099 0
      vertex 12.4753 -37 0.620628
      vertex 12.4605 -43.099 0.993127
    endloop
  endfacet
  facet normal 0.999212 -0 0.0397003
    outer loop
      vertex 12.4605 -43.099 0.993127
      vertex 12.4753 -37 0.620628
      vertex 12.4605 -36.999 0.993127
    endloop
  endfacet
  facet normal 0.999223 -0 0.039413
    outer loop
      vertex 12.4951 -37 0.124228
      vertex 12.5 -36.999 0
      vertex 12.4951 -36.999 0.124228
    endloop
  endfacet
  facet normal 0.999205 -9.028e-06 0.0398555
    outer loop
      vertex 12.4753 -37 0.620628
      vertex 12.5 -43.099 0
      vertex 12.4951 -37 0.124228
    endloop
  endfacet
  facet normal 0.999223 0 0.039413
    outer loop
      vertex 12.4951 -37 0.124228
      vertex 12.5 -43.099 0
      vertex 12.5 -36.999 0
    endloop
  endfacet
  facet normal -1 0 0
    outer loop
      vertex -12.4901 -36.999 -0.496956
      vertex -12.4901 -37 -0.124195
      vertex -12.4901 -36.999 -0.124195
    endloop
  endfacet
  facet normal -1 0 0
    outer loop
      vertex -12.4901 -43.099 0.496956
      vertex -12.4901 -37 -0.124195
      vertex -12.4901 -43.099 -0.496956
    endloop
  endfacet
  facet normal -1 0 0
    outer loop
      vertex -12.4901 -43.099 -0.496956
      vertex -12.4901 -37 -0.124195
      vertex -12.4901 -36.999 -0.496956
    endloop
  endfacet
  facet normal -1 0 0
    outer loop
      vertex -12.4901 -37 0.372635
      vertex -12.4901 -36.999 0.496956
      vertex -12.4901 -36.999 0.372635
    endloop
  endfacet
  facet normal -1 0 0
    outer loop
      vertex -12.4901 -37 -0.124195
      vertex -12.4901 -43.099 0.496956
      vertex -12.4901 -37 0.372635
    endloop
  endfacet
  facet normal -1 0 0
    outer loop
      vertex -12.4901 -37 0.372635
      vertex -12.4901 -43.099 0.496956
      vertex -12.4901 -36.999 0.496956
    endloop
  endfacet
  facet normal 0.980315 0 0.197442
    outer loop
      vertex 12.1459 -36.999 2.9543
      vertex 12.2195 -37 2.58887
      vertex 12.2195 -36.999 2.58887
    endloop
  endfacet
  facet normal 0.980302 3.83068e-06 0.197503
    outer loop
      vertex 12.3422 -43.099 1.97997
      vertex 12.2195 -37 2.58887
      vertex 12.1459 -43.099 2.9543
    endloop
  endfacet
  facet normal 0.980315 -0 0.197442
    outer loop
      vertex 12.1459 -43.099 2.9543
      vertex 12.2195 -37 2.58887
      vertex 12.1459 -36.999 2.9543
    endloop
  endfacet
  facet normal 0.980233 -0 0.197848
    outer loop
      vertex 12.3176 -37 2.10185
      vertex 12.3422 -36.999 1.97997
      vertex 12.3176 -36.999 2.10185
    endloop
  endfacet
  facet normal 0.98031 8.00794e-06 0.197463
    outer loop
      vertex 12.2195 -37 2.58887
      vertex 12.3422 -43.099 1.97997
      vertex 12.3176 -37 2.10185
    endloop
  endfacet
  facet normal 0.980233 0 0.197848
    outer loop
      vertex 12.3176 -37 2.10185
      vertex 12.3422 -43.099 1.97997
      vertex 12.3422 -36.999 1.97997
    endloop
  endfacet
  facet normal 0.992883 0 0.119098
    outer loop
      vertex 12.3422 -36.999 1.97997
      vertex 12.3866 -37 1.60982
      vertex 12.3866 -36.999 1.60982
    endloop
  endfacet
  facet normal 0.992891 -4.46798e-06 0.119025
    outer loop
      vertex 12.4605 -43.099 0.993127
      vertex 12.3866 -37 1.60982
      vertex 12.3422 -43.099 1.97997
    endloop
  endfacet
  facet normal 0.992883 -0 0.119098
    outer loop
      vertex 12.3422 -43.099 1.97997
      vertex 12.3866 -37 1.60982
      vertex 12.3422 -36.999 1.97997
    endloop
  endfacet
  facet normal 0.99289 -0 0.119031
    outer loop
      vertex 12.4457 -37 1.11658
      vertex 12.4605 -36.999 0.993127
      vertex 12.4457 -36.999 1.11658
    endloop
  endfacet
  facet normal 0.992898 1.28052e-06 0.118969
    outer loop
      vertex 12.3866 -37 1.60982
      vertex 12.4605 -43.099 0.993127
      vertex 12.4457 -37 1.11658
    endloop
  endfacet
  facet normal 0.99289 0 0.119031
    outer loop
      vertex 12.4457 -37 1.11658
      vertex 12.4605 -43.099 0.993127
      vertex 12.4605 -36.999 0.993127
    endloop
  endfacet
  facet normal -0.971672 0 0.236332
    outer loop
      vertex -12.2537 -36.999 2.46909
      vertex -12.1656 -37 2.83131
      vertex -12.1656 -36.999 2.83131
    endloop
  endfacet
  facet normal -0.971672 0 0.236332
    outer loop
      vertex -12.2537 -43.099 2.46909
      vertex -12.1656 -37 2.83131
      vertex -12.2537 -36.999 2.46909
    endloop
  endfacet
  facet normal -0.971682 2.56918e-06 0.236292
    outer loop
      vertex -12.0638 -43.099 3.25
      vertex -12.1656 -37 2.83131
      vertex -12.2537 -43.099 2.46909
    endloop
  endfacet
  facet normal -0.971691 0 0.236256
    outer loop
      vertex -12.1656 -37 2.83131
      vertex -12.0638 -43.099 3.25
      vertex -12.0638 -37 3.25
    endloop
  endfacet
  facet normal 0 -1 0
    outer loop
      vertex 9.5 -43.099 3.25
      vertex 12.1459 -43.099 2.9543
      vertex 12.0614 -43.099 3.25
    endloop
  endfacet
  facet normal 0 -1 0
    outer loop
      vertex 9.5 -43.099 3.25
      vertex 12.3422 -43.099 1.97997
      vertex 12.1459 -43.099 2.9543
    endloop
  endfacet
  facet normal 0 -1 0
    outer loop
      vertex 9.5 -43.099 3.25
      vertex 12.4605 -43.099 0.993127
      vertex 12.3422 -43.099 1.97997
    endloop
  endfacet
  facet normal 0 -1 0
    outer loop
      vertex 9.5 -43.099 3.25
      vertex 12.5 -43.099 0
      vertex 12.4605 -43.099 0.993127
    endloop
  endfacet
  facet normal 0 -1 0
    outer loop
      vertex 9.5 -43.099 -3.25
      vertex 12.5 -43.099 0
      vertex 9.5 -43.099 3.25
    endloop
  endfacet
  facet normal 0 -1 0
    outer loop
      vertex 12.5 -43.099 0
      vertex 9.5 -43.099 -3.25
      vertex 12.4605 -43.099 -0.993127
    endloop
  endfacet
  facet normal 0 -1 0
    outer loop
      vertex 12.4605 -43.099 -0.993127
      vertex 9.5 -43.099 -3.25
      vertex 12.3422 -43.099 -1.97997
    endloop
  endfacet
  facet normal 0 -1 0
    outer loop
      vertex 12.3422 -43.099 -1.97997
      vertex 9.5 -43.099 -3.25
      vertex 12.1459 -43.099 -2.9543
    endloop
  endfacet
  facet normal 0 -1 0
    outer loop
      vertex 12.1459 -43.099 -2.9543
      vertex 9.5 -43.099 -3.25
      vertex 12.0614 -43.099 -3.25
    endloop
  endfacet
  facet normal 0 -1 0
    outer loop
      vertex -12.2537 -43.099 2.46909
      vertex -9.5 -43.099 3.25
      vertex -12.0638 -43.099 3.25
    endloop
  endfacet
  facet normal 0 -1 0
    outer loop
      vertex -12.4111 -43.099 1.48773
      vertex -9.5 -43.099 3.25
      vertex -12.2537 -43.099 2.46909
    endloop
  endfacet
  facet normal 0 -1 0
    outer loop
      vertex -12.4901 -43.099 0.496956
      vertex -9.5 -43.099 3.25
      vertex -12.4111 -43.099 1.48773
    endloop
  endfacet
  facet normal 0 -1 0
    outer loop
      vertex -12.4901 -43.099 -0.496956
      vertex -9.5 -43.099 3.25
      vertex -12.4901 -43.099 0.496956
    endloop
  endfacet
  facet normal 0 -1 0
    outer loop
      vertex -9.5 -43.099 -3.25
      vertex -12.4901 -43.099 -0.496956
      vertex -12.4111 -43.099 -1.48773
    endloop
  endfacet
  facet normal 0 -1 0
    outer loop
      vertex -9.5 -43.099 -3.25
      vertex -12.4111 -43.099 -1.48773
      vertex -12.2537 -43.099 -2.46909
    endloop
  endfacet
  facet normal 0 -1 0
    outer loop
      vertex -9.5 -43.099 -3.25
      vertex -12.2537 -43.099 -2.46909
      vertex -12.0638 -43.099 -3.25
    endloop
  endfacet
  facet normal 0 -1 0
    outer loop
      vertex -12.4901 -43.099 -0.496956
      vertex -9.5 -43.099 -3.25
      vertex -9.5 -43.099 3.25
    endloop
  endfacet
  facet normal 0 1 0
    outer loop
      vertex 12.4753 -36.999 0.620628
      vertex 12.4457 -36.999 1.11658
      vertex 12.4605 -36.999 0.993127
    endloop
  endfacet
  facet normal 0 1 0
    outer loop
      vertex 12.4852 -36.999 -0.372485
      vertex 12.4951 -36.999 0.124228
      vertex 12.5 -36.999 0
    endloop
  endfacet
  facet normal 0 1 0
    outer loop
      vertex 12.3866 -36.999 1.60982
      vertex 12.3176 -36.999 2.10185
      vertex 12.3422 -36.999 1.97997
    endloop
  endfacet
  facet normal 0 1 0
    outer loop
      vertex 12.2686 -36.999 -2.34541
      vertex 12.357 -36.999 -1.85653
      vertex 12.3422 -36.999 -1.97997
    endloop
  endfacet
  facet normal 0 1 0
    outer loop
      vertex 12.4161 -36.999 -1.36327
      vertex 12.4654 -36.999 -0.868899
      vertex 12.4605 -36.999 -0.993127
    endloop
  endfacet
  facet normal 0 1 0
    outer loop
      vertex 12.06 -36.999 -3.25
      vertex 12.1459 -36.999 -2.9543
      vertex 12.0614 -36.999 -3.25
    endloop
  endfacet
  facet normal 0 1 -0
    outer loop
      vertex 12.1459 -36.999 -2.9543
      vertex 12.06 -36.999 -3.25
      vertex 12.1704 -36.999 -2.83243
    endloop
  endfacet
  facet normal 0 1 0
    outer loop
      vertex 12.2195 -36.999 2.58887
      vertex 12.1117 -36.999 3.07384
      vertex 12.1459 -36.999 2.9543
    endloop
  endfacet
  facet normal -0 1 0
    outer loop
      vertex -12.4901 -36.999 0.496956
      vertex -12.4605 -36.999 0.868547
      vertex -12.4901 -36.999 0.372635
    endloop
  endfacet
  facet normal -0 1 0
    outer loop
      vertex -12.4901 -36.999 -0.496956
      vertex -12.4901 -36.999 -0.124195
      vertex -12.4802 -36.999 -0.620881
    endloop
  endfacet
  facet normal -0 1 0
    outer loop
      vertex -12.2537 -36.999 2.46909
      vertex -12.1656 -36.999 2.83131
      vertex -12.2734 -36.999 2.34634
    endloop
  endfacet
  facet normal -0 1 0
    outer loop
      vertex -12.4111 -36.999 1.48773
      vertex -12.3521 -36.999 1.85578
      vertex -12.421 -36.999 1.3638
    endloop
  endfacet
  facet normal -0 1 -0
    outer loop
      vertex -12.2537 -36.999 -2.46909
      vertex -12.3128 -36.999 -2.10104
      vertex -12.2243 -36.999 -2.58989
    endloop
  endfacet
  facet normal -0 1 -0
    outer loop
      vertex -12.4111 -36.999 -1.48773
      vertex -12.4408 -36.999 -1.11616
      vertex -12.3915 -36.999 -1.61047
    endloop
  endfacet
  facet normal 0 1 -0
    outer loop
      vertex -12.0638 -36.999 -3.25
      vertex -12.1069 -36.999 -3.07263
      vertex -12.06 -36.999 -3.25
    endloop
  endfacet
  facet normal 0.961427 -0 0.275061
    outer loop
      vertex 12.1117 -37 3.07384
      vertex 12.1459 -36.999 2.9543
      vertex 12.1117 -36.999 3.07384
    endloop
  endfacet
  facet normal 0.961512 6.29643e-06 0.274764
    outer loop
      vertex 12.1459 -43.099 2.9543
      vertex 12.1117 -37 3.07384
      vertex 12.0614 -43.099 3.25
    endloop
  endfacet
  facet normal 0.961427 0 0.275061
    outer loop
      vertex 12.1117 -37 3.07384
      vertex 12.1459 -43.099 2.9543
      vertex 12.1459 -36.999 2.9543
    endloop
  endfacet
  facet normal 0.961569 0 0.274563
    outer loop
      vertex 12.0614 -37 3.25
      vertex 12.0614 -43.099 3.25
      vertex 12.1117 -37 3.07384
    endloop
  endfacet
  facet normal -0.987394 0 0.158283
    outer loop
      vertex -12.4111 -36.999 1.48773
      vertex -12.3521 -37 1.85578
      vertex -12.3521 -36.999 1.85578
    endloop
  endfacet
  facet normal -0.987381 -5.08594e-06 0.158366
    outer loop
      vertex -12.2537 -43.099 2.46909
      vertex -12.3521 -37 1.85578
      vertex -12.4111 -43.099 1.48773
    endloop
  endfacet
  facet normal -0.987394 0 0.158283
    outer loop
      vertex -12.4111 -43.099 1.48773
      vertex -12.3521 -37 1.85578
      vertex -12.4111 -36.999 1.48773
    endloop
  endfacet
  facet normal -0.987365 0 0.158461
    outer loop
      vertex -12.2734 -37 2.34634
      vertex -12.2537 -36.999 2.46909
      vertex -12.2734 -36.999 2.34634
    endloop
  endfacet
  facet normal -0.987374 -1.19036e-06 0.158403
    outer loop
      vertex -12.3521 -37 1.85578
      vertex -12.2537 -43.099 2.46909
      vertex -12.2734 -37 2.34634
    endloop
  endfacet
  facet normal -0.987365 0 0.158461
    outer loop
      vertex -12.2734 -37 2.34634
      vertex -12.2537 -43.099 2.46909
      vertex -12.2537 -36.999 2.46909
    endloop
  endfacet
  facet normal -0.996842 0 0.0794059
    outer loop
      vertex -12.4901 -36.999 0.496956
      vertex -12.4605 -37 0.868547
      vertex -12.4605 -36.999 0.868547
    endloop
  endfacet
  facet normal -0.996836 -4.74745e-06 0.0794834
    outer loop
      vertex -12.4111 -43.099 1.48773
      vertex -12.4605 -37 0.868547
      vertex -12.4901 -43.099 0.496956
    endloop
  endfacet
  facet normal -0.996842 0 0.0794059
    outer loop
      vertex -12.4901 -43.099 0.496956
      vertex -12.4605 -37 0.868547
      vertex -12.4901 -36.999 0.496956
    endloop
  endfacet
  facet normal -0.996824 0 0.0796301
    outer loop
      vertex -12.421 -37 1.3638
      vertex -12.4111 -36.999 1.48773
      vertex -12.421 -36.999 1.3638
    endloop
  endfacet
  facet normal -0.996834 -2.56414e-06 0.0795047
    outer loop
      vertex -12.4605 -37 0.868547
      vertex -12.4111 -43.099 1.48773
      vertex -12.421 -37 1.3638
    endloop
  endfacet
  facet normal -0.996824 0 0.0796301
    outer loop
      vertex -12.421 -37 1.3638
      vertex -12.4111 -43.099 1.48773
      vertex -12.4111 -36.999 1.48773
    endloop
  endfacet
  facet normal 0.999212 0 -0.0397018
    outer loop
      vertex 12.5 -36.999 0
      vertex 12.4852 -37 -0.372485
      vertex 12.4852 -36.999 -0.372485
    endloop
  endfacet
  facet normal 0.99921 -2.45434e-06 -0.0397419
    outer loop
      vertex 12.4605 -43.099 -0.993127
      vertex 12.4852 -37 -0.372485
      vertex 12.5 -43.099 0
    endloop
  endfacet
  facet normal 0.999212 0 -0.0397018
    outer loop
      vertex 12.5 -43.099 0
      vertex 12.4852 -37 -0.372485
      vertex 12.5 -36.999 0
    endloop
  endfacet
  facet normal 0.999223 0 -0.039413
    outer loop
      vertex 12.4654 -37 -0.868899
      vertex 12.4605 -36.999 -0.993127
      vertex 12.4654 -36.999 -0.868899
    endloop
  endfacet
  facet normal 0.999205 9.00511e-06 -0.0398544
    outer loop
      vertex 12.4852 -37 -0.372485
      vertex 12.4605 -43.099 -0.993127
      vertex 12.4654 -37 -0.868899
    endloop
  endfacet
  facet normal 0.999223 0 -0.039413
    outer loop
      vertex 12.4654 -37 -0.868899
      vertex 12.4605 -43.099 -0.993127
      vertex 12.4605 -36.999 -0.993127
    endloop
  endfacet
  facet normal 0.980316 0 -0.197437
    outer loop
      vertex 12.3422 -36.999 -1.97997
      vertex 12.2686 -37 -2.34541
      vertex 12.2686 -36.999 -2.34541
    endloop
  endfacet
  facet normal 0.980302 -4.15451e-06 -0.197503
    outer loop
      vertex 12.1459 -43.099 -2.9543
      vertex 12.2686 -37 -2.34541
      vertex 12.3422 -43.099 -1.97997
    endloop
  endfacet
  facet normal 0.980316 0 -0.197437
    outer loop
      vertex 12.3422 -43.099 -1.97997
      vertex 12.2686 -37 -2.34541
      vertex 12.3422 -36.999 -1.97997
    endloop
  endfacet
  facet normal 0.980385 0 -0.197091
    outer loop
      vertex 12.1704 -37 -2.83243
      vertex 12.1459 -36.999 -2.9543
      vertex 12.1704 -36.999 -2.83243
    endloop
  endfacet
  facet normal 0.980271 1.17632e-05 -0.197656
    outer loop
      vertex 12.2686 -37 -2.34541
      vertex 12.1459 -43.099 -2.9543
      vertex 12.1704 -37 -2.83243
    endloop
  endfacet
  facet normal 0.980385 0 -0.197091
    outer loop
      vertex 12.1704 -37 -2.83243
      vertex 12.1459 -43.099 -2.9543
      vertex 12.1459 -36.999 -2.9543
    endloop
  endfacet
  facet normal 0.961512 0 -0.274764
    outer loop
      vertex 12.1459 -43.099 -2.9543
      vertex 12.0614 -36.999 -3.25
      vertex 12.1459 -36.999 -2.9543
    endloop
  endfacet
  facet normal 0.961512 0 -0.274764
    outer loop
      vertex 12.0614 -36.999 -3.25
      vertex 12.1459 -43.099 -2.9543
      vertex 12.0614 -43.099 -3.25
    endloop
  endfacet
  facet normal 0.992882 0 -0.1191
    outer loop
      vertex 12.4605 -36.999 -0.993127
      vertex 12.4161 -37 -1.36327
      vertex 12.4161 -36.999 -1.36327
    endloop
  endfacet
  facet normal 0.992891 4.60459e-06 -0.119025
    outer loop
      vertex 12.3422 -43.099 -1.97997
      vertex 12.4161 -37 -1.36327
      vertex 12.4605 -43.099 -0.993127
    endloop
  endfacet
  facet normal 0.992882 0 -0.1191
    outer loop
      vertex 12.4605 -43.099 -0.993127
      vertex 12.4161 -37 -1.36327
      vertex 12.4605 -36.999 -0.993127
    endloop
  endfacet
  facet normal 0.992889 0 -0.119044
    outer loop
      vertex 12.357 -37 -1.85653
      vertex 12.3422 -36.999 -1.97997
      vertex 12.357 -36.999 -1.85653
    endloop
  endfacet
  facet normal 0.992899 -1.63173e-06 -0.118964
    outer loop
      vertex 12.4161 -37 -1.36327
      vertex 12.3422 -43.099 -1.97997
      vertex 12.357 -37 -1.85653
    endloop
  endfacet
  facet normal 0.992889 0 -0.119044
    outer loop
      vertex 12.357 -37 -1.85653
      vertex 12.3422 -43.099 -1.97997
      vertex 12.3422 -36.999 -1.97997
    endloop
  endfacet
  facet normal -0.971723 0 -0.236124
    outer loop
      vertex -12.0638 -36.999 -3.25
      vertex -12.1069 -37 -3.07263
      vertex -12.1069 -36.999 -3.07263
    endloop
  endfacet
  facet normal -0.971678 5.658e-06 -0.236307
    outer loop
      vertex -12.1069 -37 -3.07263
      vertex -12.0638 -43.099 -3.25
      vertex -12.2243 -37 -2.58989
    endloop
  endfacet
  facet normal -0.971723 0 -0.236124
    outer loop
      vertex -12.0638 -43.099 -3.25
      vertex -12.1069 -37 -3.07263
      vertex -12.0638 -36.999 -3.25
    endloop
  endfacet
  facet normal -0.971638 0 -0.236475
    outer loop
      vertex -12.2243 -37 -2.58989
      vertex -12.2537 -36.999 -2.46909
      vertex -12.2243 -36.999 -2.58989
    endloop
  endfacet
  facet normal -0.971682 3.84244e-06 -0.236292
    outer loop
      vertex -12.2537 -43.099 -2.46909
      vertex -12.2243 -37 -2.58989
      vertex -12.0638 -43.099 -3.25
    endloop
  endfacet
  facet normal -0.971638 0 -0.236475
    outer loop
      vertex -12.2243 -37 -2.58989
      vertex -12.2537 -43.099 -2.46909
      vertex -12.2537 -36.999 -2.46909
    endloop
  endfacet
  facet normal -0.996821 0 -0.079677
    outer loop
      vertex -12.4111 -36.999 -1.48773
      vertex -12.4408 -37 -1.11616
      vertex -12.4408 -36.999 -1.11616
    endloop
  endfacet
  facet normal -0.996836 -1.18705e-05 -0.0794834
    outer loop
      vertex -12.4901 -43.099 -0.496956
      vertex -12.4408 -37 -1.11616
      vertex -12.4111 -43.099 -1.48773
    endloop
  endfacet
  facet normal -0.996821 0 -0.079677
    outer loop
      vertex -12.4111 -43.099 -1.48773
      vertex -12.4408 -37 -1.11616
      vertex -12.4111 -36.999 -1.48773
    endloop
  endfacet
  facet normal -0.996824 0 -0.0796333
    outer loop
      vertex -12.4802 -37 -0.620881
      vertex -12.4901 -36.999 -0.496956
      vertex -12.4802 -36.999 -0.620881
    endloop
  endfacet
  facet normal -0.996851 6.80376e-06 -0.0793006
    outer loop
      vertex -12.4408 -37 -1.11616
      vertex -12.4901 -43.099 -0.496956
      vertex -12.4802 -37 -0.620881
    endloop
  endfacet
  facet normal -0.996824 0 -0.0796333
    outer loop
      vertex -12.4802 -37 -0.620881
      vertex -12.4901 -43.099 -0.496956
      vertex -12.4901 -36.999 -0.496956
    endloop
  endfacet
  facet normal -0.987352 0 -0.158545
    outer loop
      vertex -12.2537 -36.999 -2.46909
      vertex -12.3128 -37 -2.10104
      vertex -12.3128 -36.999 -2.10104
    endloop
  endfacet
  facet normal -0.987381 -1.11033e-05 -0.158366
    outer loop
      vertex -12.4111 -43.099 -1.48773
      vertex -12.3128 -37 -2.10104
      vertex -12.2537 -43.099 -2.46909
    endloop
  endfacet
  facet normal -0.987352 0 -0.158545
    outer loop
      vertex -12.2537 -43.099 -2.46909
      vertex -12.3128 -37 -2.10104
      vertex -12.2537 -36.999 -2.46909
    endloop
  endfacet
  facet normal -0.987489 0 -0.157689
    outer loop
      vertex -12.3915 -37 -1.61047
      vertex -12.4111 -36.999 -1.48773
      vertex -12.3915 -36.999 -1.61047
    endloop
  endfacet
  facet normal -0.987375 -1.46741e-05 -0.1584
    outer loop
      vertex -12.3128 -37 -2.10104
      vertex -12.4111 -43.099 -1.48773
      vertex -12.3915 -37 -1.61047
    endloop
  endfacet
  facet normal -0.987489 0 -0.157689
    outer loop
      vertex -12.3915 -37 -1.61047
      vertex -12.4111 -43.099 -1.48773
      vertex -12.4111 -36.999 -1.48773
    endloop
  endfacet
  facet normal -1 0 0
    outer loop
      vertex 9.5 -43.099 -3.25
      vertex 9.5 -37 3.25
      vertex 9.5 -37 -3.25
    endloop
  endfacet
  facet normal -1 -0 0
    outer loop
      vertex 9.5 -37 3.25
      vertex 9.5 -43.099 -3.25
      vertex 9.5 -43.099 3.25
    endloop
  endfacet
  facet normal 1 -0 0
    outer loop
      vertex -9.5 -43.099 3.25
      vertex -9.5 -37 -3.25
      vertex -9.5 -37 3.25
    endloop
  endfacet
  facet normal 1 0 0
    outer loop
      vertex -9.5 -37 -3.25
      vertex -9.5 -43.099 3.25
      vertex -9.5 -43.099 -3.25
    endloop
  endfacet
  facet normal 0 0 -1
    outer loop
      vertex -9.5 -43.099 -3.25
      vertex -12.06 -37 -3.25
      vertex -9.5 -37 -3.25
    endloop
  endfacet
  facet normal 0 0 -1
    outer loop
      vertex -12.0638 -43.099 -3.25
      vertex -12.06 -37 -3.25
      vertex -9.5 -43.099 -3.25
    endloop
  endfacet
  facet normal 0 0 -1
    outer loop
      vertex -12.0638 -36.999 -3.25
      vertex -12.06 -37 -3.25
      vertex -12.0638 -43.099 -3.25
    endloop
  endfacet
  facet normal 0 0 -1
    outer loop
      vertex -12.06 -37 -3.25
      vertex -12.0638 -36.999 -3.25
      vertex -12.06 -36.999 -3.25
    endloop
  endfacet
  facet normal 0 0 -1
    outer loop
      vertex 12.0614 -43.099 -3.25
      vertex 12.06 -37 -3.25
      vertex 12.0614 -36.999 -3.25
    endloop
  endfacet
  facet normal 0 0 -1
    outer loop
      vertex 9.5 -43.099 -3.25
      vertex 12.06 -37 -3.25
      vertex 12.0614 -43.099 -3.25
    endloop
  endfacet
  facet normal -0 0 -1
    outer loop
      vertex 12.06 -37 -3.25
      vertex 9.5 -43.099 -3.25
      vertex 9.5 -37 -3.25
    endloop
  endfacet
  facet normal -0 0 -1
    outer loop
      vertex 12.0614 -36.999 -3.25
      vertex 12.06 -37 -3.25
      vertex 12.06 -36.999 -3.25
    endloop
  endfacet
  facet normal -0 0 1
    outer loop
      vertex -12.0638 -37 3.25
      vertex -9.5 -43.099 3.25
      vertex -9.5 -37 3.25
    endloop
  endfacet
  facet normal 0 0 1
    outer loop
      vertex -9.5 -43.099 3.25
      vertex -12.0638 -37 3.25
      vertex -12.0638 -43.099 3.25
    endloop
  endfacet
  facet normal -0 0 1
    outer loop
      vertex 9.5 -37 3.25
      vertex 12.0614 -43.099 3.25
      vertex 12.0614 -37 3.25
    endloop
  endfacet
  facet normal 0 0 1
    outer loop
      vertex 12.0614 -43.099 3.25
      vertex 9.5 -37 3.25
      vertex 9.5 -43.099 3.25
    endloop
  endfacet
endsolid OpenSCAD_Model
